<?xml version="1.0" encoding="UTF-8"?>
<svg version="1.1" xmlns="http://www.w3.org/2000/svg" width="225" height="225">
<path d="M0 0 C74.25 0 148.5 0 225 0 C225 74.25 225 148.5 225 225 C150.75 225 76.5 225 0 225 C0 150.75 0 76.5 0 0 Z " fill="#FDFDFD" transform="translate(0,0)"/>
<path d="M0 0 C0.99 1.485 0.99 1.485 2 3 C7.05367648 9.17462853 12.66017337 14.82055589 18.29296875 20.4609375 C19.16141922 21.33271637 20.02986969 22.20449524 20.92463684 23.10269165 C22.74784586 24.93093362 24.57238537 26.75784964 26.39819336 28.58349609 C29.19477774 31.38228347 31.98324781 34.18899292 34.77148438 36.99609375 C36.54898972 38.77653044 38.32696794 40.55649519 40.10546875 42.3359375 C41.35398872 43.59523575 41.35398872 43.59523575 42.62773132 44.87997437 C43.79463249 46.04226059 43.79463249 46.04226059 44.98510742 47.22802734 C45.66570724 47.91005219 46.34630707 48.59207703 47.04753113 49.29476929 C50.15455564 52.00835602 52.3236274 52.9262139 56.4375 53.375 C60.58155564 52.93878362 62.09130272 51.90869728 65 49 C66.82989073 45.34021854 66.88390582 41.97143797 66 38 C63.99484265 34.81567341 61.43177407 32.29504783 58.73583984 29.68457031 C55.76480881 26.80129125 52.85328993 23.85824109 49.92919922 20.92749023 C48.273591 19.27301755 46.61247635 17.62403605 44.94580078 15.98071289 C44.17864746 15.22266357 43.41149414 14.46461426 42.62109375 13.68359375 C41.9242749 12.99837646 41.22745605 12.31315918 40.50952148 11.60717773 C39 10 39 10 39 9 C67.8853211 7.94886022 67.8853211 7.94886022 78 14 C78.97839844 14.58136719 79.95679687 15.16273437 80.96484375 15.76171875 C91.24738914 22.56614141 97.48539155 32.2516694 101 44 C101.56025475 48.63374409 101.6455347 53.20579406 101.59158516 57.86388779 C101.56576831 60.1101943 101.57108587 62.3547021 101.58348083 64.60110474 C101.60402731 69.3592766 101.58462694 74.11686681 101.5625 78.875 C101.54131652 84.41601343 101.53687474 89.9564391 101.56300163 95.49744034 C101.56634431 97.7013485 101.54522114 99.90410738 101.52259827 102.10787964 C101.52511007 103.46368658 101.52867064 104.81949212 101.53344727 106.17529297 C101.52724869 107.35155243 101.52105011 108.52781189 101.5146637 109.73971558 C102.10520603 113.70672971 103.52255673 115.88409918 106 119 C109.47531087 120.73765543 113.2088001 120.59585352 117 120 C120.28175318 117.47031526 121.69243777 115.92268669 123 112 C123.09268982 109.87082485 123.12512922 107.73885758 123.12597656 105.60766602 C123.1278447 104.96326065 123.12971283 104.31885529 123.13163757 103.65492249 C123.13563907 102.25537579 123.13771618 100.85582258 123.13809967 99.45627022 C123.14152938 96.46518796 123.16292085 93.47432027 123.18333054 90.48331356 C123.22121966 84.91991951 123.25263014 79.35675081 123.25048828 73.79321289 C123.24969448 69.91850878 123.27335212 66.04458705 123.3123703 62.17008781 C123.32273731 60.70355702 123.3244239 59.23693485 123.31671906 57.77038765 C123.2519924 44.07149356 126.70031606 32.38348169 136 22 C144.73465036 14.35056378 154.32457227 8.8447283 166.078125 8.90234375 C167.23828125 8.90556641 168.3984375 8.90878906 169.59375 8.91210938 C171.40359375 8.92467773 171.40359375 8.92467773 173.25 8.9375 C175.08304687 8.94426758 175.08304687 8.94426758 176.953125 8.95117188 C179.96879946 8.96295185 182.98437498 8.97940147 186 9 C181.08484705 14.9431588 175.74243787 20.34116088 170.25 25.75 C168.54456143 27.42994622 166.84133109 29.11213798 165.140625 30.796875 C164.39329102 31.53260742 163.64595703 32.26833984 162.87597656 33.02636719 C159.10986058 36.98853294 158.56934064 39.52709608 158.671875 44.7734375 C159.15508212 48.05234297 160.62809753 49.76762121 163 52 C166.61419038 53.80709519 170.19982581 53.0196305 174 52 C175.9520493 50.72237538 175.9520493 50.72237538 177.71337891 49.01611328 C178.40345032 48.38239807 179.09352173 47.74868286 179.80450439 47.09576416 C183.72914315 43.34940401 187.61448466 39.56888301 191.4609375 35.7421875 C192.33271637 34.8761087 193.20449524 34.01002991 194.10269165 33.1177063 C195.93101224 31.29877549 197.75792707 29.47843068 199.58349609 27.65673828 C202.3806172 24.86940245 205.18822403 22.0929086 207.99609375 19.31640625 C209.77669822 17.54232539 211.55666868 15.76760791 213.3359375 13.9921875 C214.17546967 13.16500214 215.01500183 12.33781677 215.87997437 11.48556519 C216.65483185 10.7077066 217.42968933 9.92984802 218.22802734 9.12841797 C218.91005219 8.45003876 219.59207703 7.77165955 220.29476929 7.07272339 C222.14874784 4.81919565 223.06299025 2.74876898 224 0 C224.33 0 224.66 0 225 0 C225 47.52 225 95.04 225 144 C150.75 144 76.5 144 0 144 C0 96.48 0 48.96 0 0 Z " fill="#FEFEFE" transform="translate(0,81)"/>
<path d="M0 0 C3.58552881 1.63687185 4.79315055 2.68972583 7 6 C7.69746979 9.1293556 7.59087549 11.85624724 7 15 C5.77856445 16.85522461 5.77856445 16.85522461 4.11328125 18.65234375 C3.47865967 19.34013916 2.84403809 20.02793457 2.19018555 20.73657227 C-1.9420482 25.00699241 -6.14268058 29.20392978 -10.375 33.375 C-12.17675401 35.1513414 -13.97635183 36.92987339 -15.7734375 38.7109375 C-16.56153809 39.48743652 -17.34963867 40.26393555 -18.16162109 41.06396484 C-20.05762341 42.87225957 -20.05762341 42.87225957 -21 45 C-20.22922119 44.98952637 -19.45844238 44.97905273 -18.66430664 44.96826172 C-15.13040502 44.92637137 -11.5965559 44.9005694 -8.0625 44.875 C-6.85013672 44.85824219 -5.63777344 44.84148437 -4.38867188 44.82421875 C12.6509631 44.731863 28.98097609 49.83004591 41.765625 61.53125 C44.22720053 63.97843035 46.62326366 66.47074582 49 69 C50.32878275 70.33786844 51.66057848 71.67278278 53 73 C53.99966797 71.83984375 53.99966797 71.83984375 55.01953125 70.65625 C66.5817304 57.48559976 80.92081685 46.55288282 99 45 C103.64662188 44.88063052 108.28974864 44.90581633 112.9375 44.9375 C114.19369141 44.94201172 115.44988281 44.94652344 116.74414062 44.95117188 C119.82947663 44.96290319 122.91471316 44.979319 126 45 C120.54611095 38.52336407 114.65259396 32.56536395 108.625 26.625 C106.82324599 24.8486586 105.02364817 23.07012661 103.2265625 21.2890625 C102.43846191 20.51256348 101.65036133 19.73606445 100.83837891 18.93603516 C97.60898754 15.53509578 97.67061308 12.78485539 97.70703125 8.26171875 C98.13655801 4.9457722 99.60924354 3.25012373 102 1 C105.5923543 -0.79617715 109.09446794 -0.68215265 113 0 C114.86915588 1.22782898 114.86915588 1.22782898 116.67016602 2.9050293 C117.36046906 3.54346771 118.05077209 4.18190613 118.76199341 4.83969116 C122.93002611 8.86302064 127.06058196 12.9185269 131.15234375 17.01953125 C132.10243935 17.96895157 133.0526832 18.91822354 134.00306702 19.86735535 C135.97705877 21.83988497 137.94926086 23.81418139 139.92016602 25.78979492 C142.447604 28.32297661 144.9795695 30.85157828 147.51285458 33.37891102 C149.46799755 35.33044808 151.42076218 37.28435093 153.37280464 39.23898888 C154.75914415 40.62631865 156.14749591 42.01163665 157.53587341 43.39692688 C158.78836632 44.65414803 158.78836632 44.65414803 160.06616211 45.93676758 C161.17247231 47.04427116 161.17247231 47.04427116 162.3011322 48.17414856 C164.11932168 50.12824051 164.94756744 51.21023449 165.125 53.8828125 C164.87097293 58.43942309 164.16065147 61.30807308 161.02978516 64.69970703 C160.39598938 65.38985901 159.7621936 66.08001099 159.10919189 66.79107666 C155.28669205 70.79432034 151.42756759 74.75592207 147.5234375 78.6796875 C146.19102524 80.02064987 146.19102524 80.02064987 144.83169556 81.38870239 C142.96568727 83.26410255 141.09826341 85.13809519 139.22949219 87.01074219 C136.8410943 89.40466522 134.46215057 91.80776353 132.08518028 94.21302605 C129.80034429 96.52097007 127.50492853 98.81834852 125.2109375 101.1171875 C124.36187836 101.97859344 123.51281921 102.83999939 122.63803101 103.72750854 C121.84015167 104.52238678 121.04227234 105.31726501 120.22021484 106.13623047 C119.17599869 107.18591507 119.17599869 107.18591507 118.11068726 108.25680542 C114.97617749 110.84556432 112.05153206 111.84338884 108.0625 112.4375 C103.72123258 111.81731894 102.11941048 110.04686605 99 107 C97.17010927 103.34021854 97.11609418 99.97143797 98 96 C100.00511692 92.81573763 102.56797265 90.29878799 105.26416016 87.68896484 C107.4045958 85.60633 109.50397233 83.48519294 111.60546875 81.36328125 C116.04791073 76.88608458 120.51665847 72.43620952 125 68 C121.06275931 67.88213212 117.12598239 67.81219826 113.1875 67.75 C112.08728516 67.71648437 110.98707031 67.68296875 109.85351562 67.6484375 C96.87928044 67.49534918 87.05658237 71.92805703 77.3125 80.3125 C67.99529291 91.14060554 64.40106244 101.21993726 64.48357964 115.46723175 C64.49636668 117.68802555 64.48478238 119.9076049 64.46754456 122.12835693 C64.44102296 126.03868992 64.43524249 129.94871766 64.43664551 133.85913086 C64.43888677 140.13017621 64.42463184 146.40084664 64.38105965 152.6717453 C64.3712715 154.8510499 64.37990725 157.02975381 64.38975525 159.20904541 C64.38360909 160.5511514 64.37669671 161.89325417 64.36889648 163.23535156 C64.36985825 164.39987854 64.37082001 165.56440552 64.37181091 166.76422119 C63.86247671 171.19683132 62.29148241 174.50982798 59.375 177.875 C55.62992084 179.64898487 52.06094945 179.65990429 48 179 C44.40522157 176.85842987 42.50753969 174.8651003 41 171 C40.75517273 167.98022461 40.75517273 167.98022461 40.76049805 164.40234375 C40.75848389 163.74803879 40.75646973 163.09373383 40.75439453 162.41960144 C40.75085584 161.00152 40.75160772 159.58342276 40.75617027 158.16534424 C40.7617872 155.91001411 40.75256321 153.65519392 40.7389679 151.39990234 C40.70196101 144.98842223 40.68321864 138.5771114 40.69458008 132.16552734 C40.70048358 128.23784284 40.68191326 124.31087055 40.64869118 120.3833313 C40.64081278 118.89724725 40.64190991 117.41108396 40.65271568 115.92501831 C40.74879188 102.10536079 37.3253416 90.51153965 28 80 C24.88650908 77.18852319 21.65509817 75.04851874 18 73 C16.68708984 72.23816406 16.68708984 72.23816406 15.34765625 71.4609375 C4.30144152 66.15282358 -8.04897551 67.5459868 -20 68 C-19.25314941 68.74161377 -18.50629883 69.48322754 -17.73681641 70.24731445 C-14.96490702 73.00111509 -12.19631549 75.75823096 -9.42871094 78.51635742 C-8.23072005 79.70932155 -7.03183291 80.90138634 -5.83203125 82.0925293 C-4.10700493 83.8054176 -2.38523424 85.52152084 -0.6640625 87.23828125 C0.14072037 88.03532219 0.14072037 88.03532219 0.96176147 88.84846497 C7.28657959 95.17232834 7.28657959 95.17232834 7.4375 100.3125 C7.3744412 103.82659505 6.8619303 105.77477223 4.625 108.5 C1.58442898 111.39578193 0.88766959 111.91464716 -3.25 112.3125 C-9.5288907 111.78925911 -13.4446429 107.80440722 -17.78027344 103.49438477 C-18.67429871 102.60989151 -19.56832397 101.72539825 -20.48944092 100.81410217 C-21.44641533 99.85686638 -22.40305204 98.89929288 -23.359375 97.94140625 C-24.35470195 96.94997184 -25.35025013 95.95875948 -26.3460083 94.96775818 C-28.42369988 92.89749841 -30.49751293 90.82344529 -32.56884766 88.74682617 C-35.21893543 86.09092836 -37.88025365 83.44660831 -40.54479599 80.80522251 C-42.60039562 78.7643714 -44.64900883 76.71661751 -46.69568634 74.66682243 C-47.67412007 73.68890071 -48.65490771 72.71332808 -49.63811493 71.74020576 C-51.01168712 70.37900997 -52.37472969 69.0072138 -53.73730469 67.63500977 C-54.5141864 66.85875748 -55.29106812 66.08250519 -56.0914917 65.2827301 C-58.73505188 62.12081858 -59.76195245 59.19023774 -60.5625 55.1875 C-59.09988345 46.89933953 -48.72241736 39.57666406 -42.98046875 33.84765625 C-42.03104843 32.89756065 -41.08177646 31.9473168 -40.13264465 30.99693298 C-38.16011503 29.02294123 -36.18581861 27.05073914 -34.21020508 25.07983398 C-31.67702339 22.552396 -29.14842172 20.0204305 -26.62108898 17.48714542 C-24.66955192 15.53200245 -22.71564907 13.57923782 -20.76101112 11.62719536 C-19.37368135 10.24085585 -17.98836335 8.85250409 -16.60307312 7.46412659 C-15.34585197 6.21163368 -15.34585197 6.21163368 -14.06323242 4.93383789 C-13.3248967 4.19629776 -12.58656097 3.45875763 -11.82585144 2.6988678 C-8.28968508 -0.59136657 -4.63078406 -0.50663089 0 0 Z " fill="#020202" transform="translate(60,23)"/>
</svg>
