<?xml version="1.0" encoding="UTF-8"?>
<svg version="1.1" xmlns="http://www.w3.org/2000/svg" width="225" height="225">
<path d="M0 0 C74.25 0 148.5 0 225 0 C225 74.25 225 148.5 225 225 C150.75 225 76.5 225 0 225 C0 150.75 0 76.5 0 0 Z " fill="#FEFEFE" transform="translate(0,0)"/>
<path d="M0 0 C-0.53013274 10.47422398 -2.28977603 20.38217639 -4.4375 30.625 C-4.91008491 32.91493941 -5.38040894 35.20533492 -5.85049438 37.49578857 C-6.15242447 38.96607607 -6.45527938 40.43617401 -6.75912476 41.90606689 C-7.92998131 47.58821069 -9.00589566 53.28409434 -10 59 C-12.34863281 59.6262207 -12.34863281 59.6262207 -15 60 C-17.421875 57.98046875 -17.421875 57.98046875 -19.75 55.1875 C-20.52859375 54.27355469 -21.3071875 53.35960937 -22.109375 52.41796875 C-24 50 -24 50 -25 48 C-28.006818 49.33999498 -29.99762609 50.79845291 -32.25 53.1875 C-34.55064697 55.61912439 -36.95234016 57.82322978 -39.5 59.98828125 C-43.06465509 63.07915828 -46.38806864 66.36624555 -49.671875 69.75 C-50.16608948 70.25682816 -50.66030396 70.76365631 -51.16949463 71.2858429 C-53.22413459 73.39462971 -55.27675256 75.50484433 -57.31103516 77.63330078 C-58.81589191 79.20442994 -60.33592082 80.75942679 -61.859375 82.3125 C-62.75108398 83.23675781 -63.64279297 84.16101563 -64.56152344 85.11328125 C-67 87 -67 87 -69.21875 86.87939453 C-71.35796828 85.82327279 -72.63098129 84.62762705 -74.25 82.875 C-77.29516272 79.69406569 -80.46765387 76.78489676 -83.80078125 73.91015625 C-87.91970352 70.33261986 -91.95239224 66.65777668 -96 63 C-97.05574219 64.05767578 -97.05574219 64.05767578 -98.1328125 65.13671875 C-100.03751542 67.04209187 -101.94953503 68.93969647 -103.8671875 70.83203125 C-108.80001017 75.71205736 -113.65686417 80.58996284 -118.16015625 85.875 C-120.55026767 88.63555331 -123.02484024 91.31601164 -125.5 94 C-129.74033571 98.60395862 -133.91389013 103.25843906 -138 108 C-141.45105456 106.49508808 -143.86724097 104.48416021 -146.625 101.9375 C-147.49640625 101.14085937 -148.3678125 100.34421875 -149.265625 99.5234375 C-151.08854167 97.84114583 -152.91145833 96.15885417 -154.734375 94.4765625 C-155.60578125 93.67992187 -156.4771875 92.88328125 -157.375 92.0625 C-158.16648438 91.33160156 -158.95796875 90.60070312 -159.7734375 89.84765625 C-161.79568821 88.16954294 -163.60312855 87.04521107 -166 86 C-167.35491884 87.49932062 -168.70888678 88.99950054 -170.0625 90.5 C-170.88363281 91.40621094 -171.70476562 92.31242187 -172.55078125 93.24609375 C-174.05792879 94.94073332 -175.5406507 96.65795165 -176.98046875 98.41015625 C-177.56441406 99.12042969 -178.14835937 99.83070313 -178.75 100.5625 C-179.26046875 101.20316406 -179.7709375 101.84382813 -180.296875 102.50390625 C-182.63708044 104.55963718 -183.86394995 105.040905 -187 105 C-189.41761187 103.36226293 -191.29173728 101.86288442 -193.375 99.875 C-193.93316406 99.38773437 -194.49132812 98.90046875 -195.06640625 98.3984375 C-197.37181763 96.25810496 -198.92480086 94.81003989 -199.22265625 91.6015625 C-197.40747727 87.73923278 -194.8225354 84.73163047 -192.0625 81.5 C-190.87353636 80.07543905 -189.68605424 78.6496404 -188.5 77.22265625 C-187.90832031 76.51383301 -187.31664062 75.80500977 -186.70703125 75.07470703 C-184.24847206 72.0866012 -181.8992987 69.02116236 -179.5625 65.9375 C-176.17303574 61.49193839 -172.70149336 57.18853196 -169 53 C-164.82082347 53.51182223 -162.89289972 55.76149845 -160.015625 58.69140625 C-159.55516785 59.15610825 -159.09471069 59.62081024 -158.62030029 60.09959412 C-157.15632189 61.58031819 -155.70313959 63.07114519 -154.25 64.5625 C-153.25720551 65.57034664 -152.2637233 66.57751633 -151.26953125 67.58398438 C-148.83833527 70.04819461 -146.41671132 72.52157329 -144 75 C-140.0554025 71.85673705 -136.81631511 68.80159196 -133.6875 64.8125 C-130.76888343 61.15813868 -127.795887 57.62499109 -124.625 54.1875 C-119.53406166 48.59901795 -114.94012159 42.65800672 -110.31347656 36.68652344 C-107.2527235 32.75647099 -104.12154503 28.88180671 -101 25 C-96.74569358 25.51051677 -94.59146606 27.93970858 -91.5625 30.8125 C-90.50659537 31.80477791 -89.4506024 32.79696182 -88.39453125 33.7890625 C-87.84490723 34.31016602 -87.2952832 34.83126953 -86.72900391 35.36816406 C-83.76152685 38.16887243 -80.75276842 40.92475373 -77.75 43.6875 C-76.64035327 44.71194533 -75.53095375 45.73665854 -74.421875 46.76171875 C-73.62265625 47.50035156 -72.8234375 48.23898438 -72 49 C-68.61558342 47.53637869 -66.42698725 45.66081934 -63.84765625 43.04296875 C-63.07099609 42.25986328 -62.29433594 41.47675781 -61.49414062 40.66992188 C-60.69169922 39.85072266 -59.88925781 39.03152344 -59.0625 38.1875 C-58.26392578 37.37990234 -57.46535156 36.57230469 -56.64257812 35.74023438 C-55.10493348 34.18475458 -53.56919588 32.62738662 -52.03564453 31.06787109 C-49.70337288 28.69867694 -47.35554266 26.34602531 -45 24 C-45.71027344 23.10796875 -46.42054688 22.2159375 -47.15234375 21.296875 C-48.08107424 20.11485438 -49.00944066 18.93254764 -49.9375 17.75 C-50.40607422 17.16347656 -50.87464844 16.57695313 -51.35742188 15.97265625 C-53.65102811 13.03552021 -55.41291257 10.7063846 -56 7 C-54.5155322 5.5155322 -53.08859742 5.62472408 -51.02197266 5.33569336 C-49.75397324 5.15561989 -49.75397324 5.15561989 -48.46035767 4.97190857 C-47.53758026 4.84582718 -46.61480286 4.71974579 -45.6640625 4.58984375 C-44.71493988 4.45808243 -43.76581726 4.32632111 -42.78793335 4.19056702 C-40.76891979 3.91186096 -38.74959014 3.63543699 -36.72998047 3.36108398 C-33.67161024 2.94385861 -30.6151352 2.51437511 -27.55859375 2.08398438 C-25.59385392 1.81434586 -23.62901289 1.54544353 -21.6640625 1.27734375 C-20.7615274 1.14923813 -19.85899231 1.02113251 -18.92910767 0.8891449 C-12.58978382 0.04402549 -6.39173065 -0.1413012 0 0 Z " fill="#FBFBFB" transform="translate(212,59)"/>
<path d="M0 0 C-0.53013274 10.47422398 -2.28977603 20.38217639 -4.4375 30.625 C-4.91008491 32.91493941 -5.38040894 35.20533492 -5.85049438 37.49578857 C-6.15242447 38.96607607 -6.45527938 40.43617401 -6.75912476 41.90606689 C-7.92998131 47.58821069 -9.00589566 53.28409434 -10 59 C-12.34863281 59.6262207 -12.34863281 59.6262207 -15 60 C-17.421875 57.98046875 -17.421875 57.98046875 -19.75 55.1875 C-20.52859375 54.27355469 -21.3071875 53.35960937 -22.109375 52.41796875 C-24 50 -24 50 -25 48 C-28.006818 49.33999498 -29.99762609 50.79845291 -32.25 53.1875 C-34.55064697 55.61912439 -36.95234016 57.82322978 -39.5 59.98828125 C-43.06465509 63.07915828 -46.38806864 66.36624555 -49.671875 69.75 C-50.16608948 70.25682816 -50.66030396 70.76365631 -51.16949463 71.2858429 C-53.22413459 73.39462971 -55.27675256 75.50484433 -57.31103516 77.63330078 C-58.81589191 79.20442994 -60.33592082 80.75942679 -61.859375 82.3125 C-62.75108398 83.23675781 -63.64279297 84.16101563 -64.56152344 85.11328125 C-67 87 -67 87 -69.21875 86.87939453 C-71.35796828 85.82327279 -72.63098129 84.62762705 -74.25 82.875 C-77.29516272 79.69406569 -80.46765387 76.78489676 -83.80078125 73.91015625 C-87.91970352 70.33261986 -91.95239224 66.65777668 -96 63 C-97.05574219 64.05767578 -97.05574219 64.05767578 -98.1328125 65.13671875 C-100.03751542 67.04209187 -101.94953503 68.93969647 -103.8671875 70.83203125 C-108.80001017 75.71205736 -113.65686417 80.58996284 -118.16015625 85.875 C-120.55026767 88.63555331 -123.02484024 91.31601164 -125.5 94 C-129.74033571 98.60395862 -133.91389013 103.25843906 -138 108 C-141.45105456 106.49508808 -143.86724097 104.48416021 -146.625 101.9375 C-147.49640625 101.14085937 -148.3678125 100.34421875 -149.265625 99.5234375 C-151.08854167 97.84114583 -152.91145833 96.15885417 -154.734375 94.4765625 C-155.60578125 93.67992187 -156.4771875 92.88328125 -157.375 92.0625 C-158.16648438 91.33160156 -158.95796875 90.60070312 -159.7734375 89.84765625 C-161.79568821 88.16954294 -163.60312855 87.04521107 -166 86 C-167.35491884 87.49932062 -168.70888678 88.99950054 -170.0625 90.5 C-170.88363281 91.40621094 -171.70476562 92.31242187 -172.55078125 93.24609375 C-174.05792879 94.94073332 -175.5406507 96.65795165 -176.98046875 98.41015625 C-177.56441406 99.12042969 -178.14835937 99.83070313 -178.75 100.5625 C-179.26046875 101.20316406 -179.7709375 101.84382813 -180.296875 102.50390625 C-182.63708044 104.55963718 -183.86394995 105.040905 -187 105 C-189.41761187 103.36226293 -191.29173728 101.86288442 -193.375 99.875 C-193.93316406 99.38773437 -194.49132812 98.90046875 -195.06640625 98.3984375 C-197.37181763 96.25810496 -198.92480086 94.81003989 -199.22265625 91.6015625 C-197.40747727 87.73923278 -194.8225354 84.73163047 -192.0625 81.5 C-190.87353636 80.07543905 -189.68605424 78.6496404 -188.5 77.22265625 C-187.90832031 76.51383301 -187.31664062 75.80500977 -186.70703125 75.07470703 C-184.24847206 72.0866012 -181.8992987 69.02116236 -179.5625 65.9375 C-176.17303574 61.49193839 -172.70149336 57.18853196 -169 53 C-164.82082347 53.51182223 -162.89289972 55.76149845 -160.015625 58.69140625 C-159.55516785 59.15610825 -159.09471069 59.62081024 -158.62030029 60.09959412 C-157.15632189 61.58031819 -155.70313959 63.07114519 -154.25 64.5625 C-153.25720551 65.57034664 -152.2637233 66.57751633 -151.26953125 67.58398438 C-148.83833527 70.04819461 -146.41671132 72.52157329 -144 75 C-140.0554025 71.85673705 -136.81631511 68.80159196 -133.6875 64.8125 C-130.76888343 61.15813868 -127.795887 57.62499109 -124.625 54.1875 C-119.53406166 48.59901795 -114.94012159 42.65800672 -110.31347656 36.68652344 C-107.2527235 32.75647099 -104.12154503 28.88180671 -101 25 C-96.74569358 25.51051677 -94.59146606 27.93970858 -91.5625 30.8125 C-90.50659537 31.80477791 -89.4506024 32.79696182 -88.39453125 33.7890625 C-87.84490723 34.31016602 -87.2952832 34.83126953 -86.72900391 35.36816406 C-83.76152685 38.16887243 -80.75276842 40.92475373 -77.75 43.6875 C-76.64035327 44.71194533 -75.53095375 45.73665854 -74.421875 46.76171875 C-73.62265625 47.50035156 -72.8234375 48.23898438 -72 49 C-68.61558342 47.53637869 -66.42698725 45.66081934 -63.84765625 43.04296875 C-63.07099609 42.25986328 -62.29433594 41.47675781 -61.49414062 40.66992188 C-60.69169922 39.85072266 -59.88925781 39.03152344 -59.0625 38.1875 C-58.26392578 37.37990234 -57.46535156 36.57230469 -56.64257812 35.74023438 C-55.10493348 34.18475458 -53.56919588 32.62738662 -52.03564453 31.06787109 C-49.70337288 28.69867694 -47.35554266 26.34602531 -45 24 C-45.71027344 23.10796875 -46.42054688 22.2159375 -47.15234375 21.296875 C-48.08107424 20.11485438 -49.00944066 18.93254764 -49.9375 17.75 C-50.40607422 17.16347656 -50.87464844 16.57695313 -51.35742188 15.97265625 C-53.65102811 13.03552021 -55.41291257 10.7063846 -56 7 C-54.5155322 5.5155322 -53.08859742 5.62472408 -51.02197266 5.33569336 C-49.75397324 5.15561989 -49.75397324 5.15561989 -48.46035767 4.97190857 C-47.53758026 4.84582718 -46.61480286 4.71974579 -45.6640625 4.58984375 C-44.71493988 4.45808243 -43.76581726 4.32632111 -42.78793335 4.19056702 C-40.76891979 3.91186096 -38.74959014 3.63543699 -36.72998047 3.36108398 C-33.67161024 2.94385861 -30.6151352 2.51437511 -27.55859375 2.08398438 C-25.59385392 1.81434586 -23.62901289 1.54544353 -21.6640625 1.27734375 C-20.7615274 1.14923813 -19.85899231 1.02113251 -18.92910767 0.8891449 C-12.58978382 0.04402549 -6.39173065 -0.1413012 0 0 Z M-11.1484375 3.8671875 C-18.89814799 5.48088043 -26.76656273 6.23619945 -34.625 7.125 C-36.21749179 7.30821276 -37.80994014 7.49180357 -39.40234375 7.67578125 C-43.26774229 8.1215458 -47.13369202 8.56219654 -51 9 C-50.0532443 10.44302525 -49.10343345 11.88404633 -48.15234375 13.32421875 C-47.62374756 14.12690186 -47.09515137 14.92958496 -46.55053711 15.7565918 C-44.94499689 18.16680464 -44.94499689 18.16680464 -42.5625 20.8125 C-41 23 -41 23 -41.1796875 24.8984375 C-42.20223812 27.5181148 -43.53708017 28.86635297 -45.5625 30.8125 C-46.64917969 31.86050781 -46.64917969 31.86050781 -47.7578125 32.9296875 C-50.42319683 35.39075666 -53.15591674 37.76313194 -55.90234375 40.1328125 C-59.76355784 43.56979636 -63.58370897 47.11713218 -67 51 C-67 51.66 -67 52.32 -67 53 C-71.10861466 53.52124216 -72.62808793 53.27676054 -76.0078125 50.76171875 C-77.06104761 49.75155149 -78.0995004 48.72581241 -79.125 47.6875 C-80.2560156 46.59193685 -81.38753888 45.49689762 -82.51953125 44.40234375 C-83.0913916 43.84015137 -83.66325195 43.27795898 -84.25244141 42.69873047 C-87.0457917 39.98342852 -89.92986256 37.36974995 -92.8125 34.75 C-93.8193678 33.82851534 -94.82591326 32.90667827 -95.83203125 31.984375 C-96.54746094 31.32953125 -97.26289062 30.6746875 -98 30 C-101.55002629 31.4590218 -103.26013523 33.27417414 -105.5625 36.3125 C-108.76324577 40.44134306 -112.04647133 44.46560612 -115.4375 48.4375 C-118.82829173 52.41509256 -122.16333592 56.42508928 -125.4375 60.5 C-130.66564881 66.9353759 -136.32529976 72.96042902 -142 79 C-146.08335544 78.47113167 -147.94353018 76.40370962 -150.765625 73.52734375 C-151.65507812 72.62822266 -152.54453125 71.72910156 -153.4609375 70.80273438 C-154.38132813 69.85720703 -155.30171875 68.91167969 -156.25 67.9375 C-157.19461673 66.97783027 -158.13992195 66.01883771 -159.0859375 65.06054688 C-161.39749172 62.71361172 -163.7017634 60.35996609 -166 58 C-170.02809225 59.82877305 -172.36349709 62.43705626 -175.125 65.8125 C-175.60074463 66.38419922 -176.07648926 66.95589844 -176.56665039 67.54492188 C-180.77552141 72.63983438 -184.8144589 77.86090135 -188.80859375 83.125 C-190.26124451 85.03079493 -191.75365959 86.90696812 -193.28515625 88.75 C-195.202056 90.79361374 -195.202056 90.79361374 -195 93 C-193.35979454 94.81436736 -193.35979454 94.81436736 -191.25 96.625 C-190.20585937 97.57246094 -190.20585937 97.57246094 -189.140625 98.5390625 C-186.88129241 100.37580728 -186.88129241 100.37580728 -183 100 C-180.77262849 98.07592026 -180.77262849 98.07592026 -178.6875 95.5 C-177.90890625 94.59507812 -177.1303125 93.69015625 -176.328125 92.7578125 C-175.55984375 91.84773438 -174.7915625 90.93765625 -174 90 C-172.64843154 88.456055 -171.29456782 86.91411351 -169.9375 85.375 C-168.95758435 84.25065233 -167.97810582 83.12592245 -167 82 C-163.14745778 82.51192213 -161.29060467 83.2441447 -158.6875 86.125 C-155.00718458 90.02884867 -151.0742986 93.51456487 -147 97 C-146.319375 97.58523437 -145.63875 98.17046875 -144.9375 98.7734375 C-143.29398963 100.18500084 -141.64733469 101.59290162 -140 103 C-136.33340176 101.51551443 -134.63058745 99.55606956 -132.25 96.4375 C-126.28000646 88.93573181 -119.64527555 82.09531793 -113.04101562 75.15429688 C-109.83608833 71.77148845 -106.66659189 68.35616111 -103.5 64.9375 C-102.9421582 64.33574951 -102.38431641 63.73399902 -101.80957031 63.11401367 C-100.53918043 61.74316964 -99.26949976 60.3716684 -98 59 C-93.53361192 59.43153508 -90.93993291 62.54067661 -87.875 65.5 C-86.71774216 66.59015619 -85.56018677 67.6799966 -84.40234375 68.76953125 C-83.26814718 69.84626782 -82.13402929 70.92308726 -81 72 C-79.15635716 73.74144929 -77.30148012 75.46754212 -75.4375 77.1875 C-74.67308594 77.90292969 -73.90867187 78.61835938 -73.12109375 79.35546875 C-70.91612071 81.06503349 -69.7423064 81.68165813 -67 82 C-64.56789492 80.0034383 -62.48915537 78.04473841 -60.328125 75.78125 C-59.68687683 75.13055542 -59.04562866 74.47986084 -58.38494873 73.80944824 C-56.32790131 71.71773253 -54.28856315 69.60972054 -52.25 67.5 C-50.222501 65.4222484 -48.1914519 63.34807034 -46.15789795 61.27624512 C-44.89357285 59.98590477 -43.63323625 58.69163894 -42.37774658 57.3927002 C-29.87774893 44.54749351 -29.87774893 44.54749351 -23 43 C-22.5978125 43.85851562 -22.5978125 43.85851562 -22.1875 44.734375 C-20.95867364 47.07884634 -19.57477824 49.12404938 -18 51.25 C-17.2265625 52.30960938 -17.2265625 52.30960938 -16.4375 53.390625 C-15.963125 53.92171875 -15.48875 54.4528125 -15 55 C-14.34 55 -13.68 55 -13 55 C-9.33322532 37.71508869 -5.87234554 20.43776742 -3 3 C-6.12965734 3 -8.19429171 3.18677889 -11.1484375 3.8671875 Z " fill="#0C0C0C" transform="translate(212,59)"/>
</svg>
