<?xml version="1.0" encoding="UTF-8"?>
<svg version="1.1" xmlns="http://www.w3.org/2000/svg" width="225" height="225">
<path d="M0 0 C74.25 0 148.5 0 225 0 C225 74.25 225 148.5 225 225 C150.75 225 76.5 225 0 225 C0 150.75 0 76.5 0 0 Z " fill="#FEFEFE" transform="translate(0,0)"/>
<path d="M0 0 C0.99 0 1.98 0 3 0 C3.21914062 0.54527344 3.43828125 1.09054688 3.6640625 1.65234375 C5.48452168 5.98148449 7.39593682 9.63495986 10.25 13.375 C13.19907822 17.68576994 13.88596807 21.1456675 13.59375 26.33984375 C12.61422155 30.72838899 10.40527792 34.07895885 7 37 C5.02 37.495 5.02 37.495 3 38 C3.495 46.91 3.495 46.91 4 56 C4.061875 54.35 4.12375 52.7 4.1875 51 C4.87769722 43.65365428 7.27849014 39.30736705 12.875 34.5625 C17.67434473 32.12558217 23.30611071 32.4110966 28.57421875 32.2734375 C31.77262979 32.01814814 33.28613771 31.531525 36 30 C36.99 30 37.98 30 39 30 C38.6213178 39.06943871 36.61277736 47.38722264 30 54 C23.45626439 59.38040484 16.02861737 58.37198227 8 58 C7.35165346 59.269553 6.70642185 60.54069706 6.0625 61.8125 C5.70285156 62.52019531 5.34320313 63.22789063 4.97265625 63.95703125 C3.89269484 66.11810285 3.89269484 66.11810285 3 69 C3.969375 69.0825 4.93875 69.165 5.9375 69.25 C9.90298122 69.80053965 13.09008484 71.32553193 16.6796875 73.03515625 C18.98478114 73.99367162 21.04577126 74.460261 23.5 74.875 C29.59997548 76.05425712 34.65281715 79.65281715 39 84 C39 84.99 39 85.98 39 87 C35.69970513 86.40782455 34.03863036 85.34193631 31.5625 83.125 C27.06995079 79.59813894 22.62929513 78.78372677 17.1015625 77.72265625 C14.27263689 77.06352371 12.34877331 76.27334967 9.875 74.8125 C5.06439049 72.2050688 0.3378108 72.11907458 -5 73 C-7.65055035 74.05378481 -10.04594708 75.30313488 -12.52734375 76.70703125 C-15.04800946 78.02510447 -17.38076376 78.77518646 -20.125 79.5 C-24.43818461 80.67694154 -27.74546087 82.46867056 -31.40625 85.01171875 C-33 86 -33 86 -35 86 C-34.63308186 83.35130968 -34.23353212 82.21789381 -32.25 80.3671875 C-27.57901607 77.26941691 -23.78411878 75.48293931 -18.265625 74.56640625 C-14.8384916 73.7096229 -12.09516736 71.91653316 -9.140625 70.0234375 C-6.60613622 68.81169286 -4.77570205 68.81560021 -2 69 C-3.485 66.03 -3.485 66.03 -5 63 C-5.64066406 63.03480469 -6.28132813 63.06960937 -6.94140625 63.10546875 C-12.68673351 63.2852778 -16.91219413 62.99282698 -22 60 C-26.960512 55.039488 -29.08819934 50.59259176 -29.125 43.625 C-29.08375 42.42875 -29.0425 41.2325 -29 40 C-28.30777344 40.32226562 -27.61554688 40.64453125 -26.90234375 40.9765625 C-23.65953768 42.12005535 -20.99146248 42.26999055 -17.5625 42.375 C-12.06469736 42.72949632 -9.01557387 43.20148418 -5 47 C-3 51 -3 51 -2 60 C-1.67 52.74 -1.34 45.48 -1 38 C-2.65 37.34 -4.3 36.68 -6 36 C-9.67801627 31.19814543 -11.625 26.95815096 -11.625 20.8125 C-10.46713687 15.60211593 -7.18336733 11.45912396 -4.1640625 7.13671875 C-2.5339654 4.77396068 -1.16998939 2.60354782 0 0 Z " fill="#111111" transform="translate(128,38)"/>
<path d="M0 0 C3.04859848 0.90505267 4.40045073 1.83089216 6 4.59375 C6.63143237 8.30341516 6.47342656 9.9220693 4.29296875 13.015625 C1.96122953 15.63734202 -0.43555866 17.73408274 -3.1875 19.90625 C-6.68506438 22.69784162 -10.04971266 25.53259558 -13.3125 28.59375 C-26.48793588 40.34921841 -45.15214702 51.95487101 -63.11328125 51.89453125 C-67.50828841 51.55441512 -71.54602752 50.65339676 -75.8125 49.59375 C-85.77088338 47.13517798 -95.88908894 46.22490798 -106 48.59375 C-106.04253906 49.46386719 -106.04253906 49.46386719 -106.0859375 50.3515625 C-106.57131046 54.32637349 -107.10146102 56.78506491 -110.1484375 59.52734375 C-114.58115712 62.30278532 -118.64163567 64.76997632 -124 63.59375 C-127.01208079 61.15812444 -128.64504381 57.9819708 -130.5390625 54.6484375 C-131.02854874 53.79271652 -131.02854874 53.79271652 -131.52792358 52.91970825 C-132.56484293 51.10527796 -133.59521394 49.2872367 -134.625 47.46875 C-135.66303702 45.64378297 -136.7024301 43.81960713 -137.74349976 41.99636841 C-138.6840708 40.3479091 -139.62069429 38.6971993 -140.55712891 37.04638672 C-141.78416026 34.72594973 -141.78416026 34.72594973 -143 33.59375 C-143.5625 30.90625 -143.5625 30.90625 -143 27.59375 C-139.63406645 24.19583609 -135.43005567 21.40444736 -131 19.59375 C-127.25 19.96875 -127.25 19.96875 -124 20.59375 C-124 21.25375 -124 21.91375 -124 22.59375 C-119.31759971 19.12530534 -114.90953148 15.62273094 -110.875 11.40625 C-105.36690652 5.74454436 -99.61612039 2.54034776 -91.625 2.28125 C-87.30426464 2.30629774 -83.84188664 3.17710046 -79.75 4.53125 C-72.47147242 6.81627622 -65.50687216 7.11948348 -57.90332031 7.17749023 C-51.20906331 7.28930294 -44.23195189 7.85148779 -38.9375 12.34375 C-37.54392145 15.68833851 -37.49671912 18.00787371 -38 21.59375 C-39.65669062 24.21017863 -40.34687102 25.17773908 -43 26.59375 C-47.43268433 27.29354629 -51.83246448 27.24739168 -56.3125 27.21875 C-64.28957415 27.21875 -70.66385721 27.3427981 -78 30.59375 C-78.99 30.59375 -79.98 30.59375 -81 30.59375 C-81 29.60375 -81 28.61375 -81 27.59375 C-71.69757383 21.90893401 -60.16920083 22.30897655 -49.59130859 21.93505859 C-48.75293457 21.9036377 -47.91456055 21.8722168 -47.05078125 21.83984375 C-46.29450439 21.81591553 -45.53822754 21.7919873 -44.7590332 21.76733398 C-42.97374804 21.77891396 -42.97374804 21.77891396 -42 20.59375 C-41.58282721 18.17837162 -41.58282721 18.17837162 -42 15.59375 C-44.95333109 12.74292982 -47.03692219 12.23199247 -51.078125 12.2578125 C-52.06675537 12.24806396 -53.05538574 12.23831543 -54.07397461 12.22827148 C-55.12206299 12.22512939 -56.17015137 12.2219873 -57.25 12.21875 C-64.88212581 12.07282572 -71.71933427 11.59835786 -78.9375 9.03125 C-86.24041251 6.43480165 -91.79334727 5.22384499 -99.25 7.84375 C-104.43546794 10.34960223 -108.40477217 14.36449596 -112.48339844 18.35253906 C-115.15301614 20.96018641 -117.49125871 23.21743986 -121 24.59375 C-117.36433437 31.27787752 -113.70775764 37.94931707 -110 44.59375 C-109.22398438 44.43777344 -108.44796875 44.28179687 -107.6484375 44.12109375 C-96.00659963 42.02334015 -85.70448179 42.7921962 -74.3125 45.65625 C-63.40252709 48.38222339 -55.25193494 48.68540711 -45 43.59375 C-44.37818848 43.29291504 -43.75637695 42.99208008 -43.11572266 42.68212891 C-32.82080525 37.66490858 -23.76007418 32.01558413 -15 24.59375 C-14.01942627 23.76327148 -14.01942627 23.76327148 -13.01904297 22.91601562 C-5.32921831 16.4528391 -5.32921831 16.4528391 2 9.59375 C1.67958603 6.99094432 1.67958603 6.99094432 1 4.59375 C-6.03638404 3.9399267 -9.14100147 5.40988385 -14.5 9.84375 C-24.39757654 17.78264823 -24.39757654 17.78264823 -30 19.59375 C-31.485 19.09875 -31.485 19.09875 -33 18.59375 C-32 15.59375 -32 15.59375 -30.20703125 14.55859375 C-29.02173828 14.05005859 -29.02173828 14.05005859 -27.8125 13.53125 C-23.71893584 11.63380395 -20.33809604 9.41479467 -16.79711914 6.66870117 C-11.45914684 2.54756321 -7.06733615 -0.83692139 0 0 Z " fill="#121212" transform="translate(181,123.40625)"/>
<path d="M0 0 C1.70751953 2.26904297 1.70751953 2.26904297 3.3828125 5.2421875 C3.99253906 6.30824219 4.60226563 7.37429687 5.23046875 8.47265625 C5.85566406 9.59542969 6.48085938 10.71820313 7.125 11.875 C8.37717612 14.08097219 9.62976185 16.28671194 10.8828125 18.4921875 C11.43340332 19.47558105 11.98399414 20.45897461 12.55126953 21.47216797 C13.63117717 23.35645576 14.79529883 25.19294824 16 27 C16.125 29.375 16.125 29.375 15 32 C11.87231303 34.73490767 8.8848718 37.05418958 4.61376953 36.93139648 C0.80222288 35.57318142 -0.04385935 33.39436688 -2.0234375 29.91796875 C-2.37387115 29.30738113 -2.72430481 28.69679352 -3.08535767 28.06770325 C-3.82100419 26.77683724 -4.54841211 25.48124592 -5.26806641 24.18139648 C-6.37190797 22.1930696 -7.50571295 20.22431788 -8.64453125 18.25585938 C-14.05364819 8.69632258 -14.05364819 8.69632258 -13.82202148 5.68994141 C-12.62734071 3.23387359 -11.06462273 2.47527025 -8.6875 1.1875 C-7.51767578 0.52814453 -7.51767578 0.52814453 -6.32421875 -0.14453125 C-3.55102991 -1.16525118 -2.69804977 -1.15056855 0 0 Z " fill="#F6F6F6" transform="translate(55,147)"/>
<path d="M0 0 C-4.91165375 13.98802774 -4.91165375 13.98802774 -12 18 C-14.80395075 18.92153892 -17.30965526 19.11150575 -20.25 19.0625 C-22.10625 19.0315625 -22.10625 19.0315625 -24 19 C-24 17.68 -24 16.36 -24 15 C-19.47942608 10.71519297 -14.02050053 8.28095756 -8 7 C-8 6.01 -8 5.02 -8 4 C-15.47480426 6.81550961 -21.90574012 9.78403052 -28 15 C-27.6298852 8.83142002 -26.24224897 6.24224897 -22 2 C-18.41255784 -0.38060678 -14.61983258 -0.46567908 -10.4375 -0.6875 C-9.76525391 -0.73455078 -9.09300781 -0.78160156 -8.40039062 -0.83007812 C-5.25457613 -1.02063888 -3.02005632 -1.00668544 0 0 Z " fill="#EDEDED" transform="translate(164,74)"/>
<path d="M0 0 C0.66 0 1.32 0 2 0 C10.50942374 10.25231775 10.50942374 10.25231775 10.6875 16.4375 C9.54689596 22.34790276 7.82708576 24.37968568 3 28 C3 22.39 3 16.78 3 11 C1.68 11 0.36 11 -1 11 C-1 16.28 -1 21.56 -1 27 C-5.60241139 24.69879431 -6.23097156 23.68792537 -8 19 C-8.7583897 15.05637355 -8.51434061 12.8703219 -6.46484375 9.40234375 C-4.70113336 6.88534433 -2.86296334 4.44374328 -1 2 C-0.67 1.34 -0.34 0.68 0 0 Z " fill="#F5F5F5" transform="translate(128,45)"/>
<path d="M0 0 C2.22990727 0.06034932 4.4590536 0.1492275 6.6875 0.25 C7.92886719 0.29640625 9.17023438 0.3428125 10.44921875 0.390625 C14.46017402 1.07897376 16.16863213 2.12637291 19 5 C19.8125 7.75 19.8125 7.75 20 10 C19.484375 9.731875 18.96875 9.46375 18.4375 9.1875 C15.33598585 7.67650593 12.17737194 6.34427274 9 5 C9 5.99 9 6.98 9 8 C9.7425 8.268125 10.485 8.53625 11.25 8.8125 C13.89061949 9.95276751 15.85552844 11.09380306 18 13 C18 13.66 18 14.32 18 15 C14.02283961 15.31817283 11.50341745 15.24164038 7.875 13.5 C4.38257138 10.46310555 1.95046763 7.20299882 0 3 C0 2.01 0 1.02 0 0 Z " fill="#EAEAEA" transform="translate(102,83)"/>
<path d="M0 0 C0.99 0 1.98 0 3 0 C6 4.22222222 6 4.22222222 6 7 C4.68 7 3.36 7 2 7 C0.5393715 4.35261084 0 3.10551666 0 0 Z " fill="#151515" transform="translate(59,171)"/>
</svg>
