<?xml version="1.0" encoding="UTF-8"?>
<svg version="1.1" xmlns="http://www.w3.org/2000/svg" width="223" height="223">
<path d="M0 0 C0.64388672 0.3103418 1.28777344 0.62068359 1.95117188 0.94042969 C27.92348462 13.77455301 48.27856995 37.15794834 57.8125 64.5 C58.56971536 66.99164783 59.30000269 69.4916763 60 72 C60.3196875 73.07507813 60.639375 74.15015625 60.96875 75.2578125 C68.07845953 103.63081996 62.59857575 134.17258498 48.0300293 159.14477539 C45.04504458 164.09097785 41.75100981 168.61445106 38 173 C37.34644531 173.78632813 36.69289062 174.57265625 36.01953125 175.3828125 C17.79740688 196.55897889 -7.96287341 210.5907215 -36 213 C-66.73774061 214.43359602 -96.32229959 209.00076294 -120 188 C-120.95390625 187.18917969 -121.9078125 186.37835938 -122.890625 185.54296875 C-139.78055118 170.92773424 -151.08386409 152.53009462 -157 131 C-157.31839844 129.9275 -157.63679687 128.855 -157.96484375 127.75 C-162.30602092 110.46531301 -162.21123415 89.06924996 -157 72 C-156.70198486 71.00516602 -156.70198486 71.00516602 -156.39794922 69.99023438 C-147.55780738 41.09257221 -128.96086655 17.27006371 -102.1796875 2.94140625 C-94.36076342 -1.15118741 -86.56329388 -4.74190849 -78 -7 C-76.89527344 -7.29777344 -75.79054688 -7.59554688 -74.65234375 -7.90234375 C-49.99040974 -13.52972512 -22.79475593 -11.05896165 0 0 Z " fill="#0F74AE" transform="translate(160,10)"/>
<path d="M0 0 C0.64388672 0.3103418 1.28777344 0.62068359 1.95117188 0.94042969 C27.92348462 13.77455301 48.27856995 37.15794834 57.8125 64.5 C62.2642399 79.01327367 63.41293085 91.93567068 63 107 C62.67 106.34 62.34 105.68 62 105 C61.4225 104.731875 60.845 104.46375 60.25 104.1875 C57.26448583 102.61181196 55.35541792 100.4114993 53 98 C52.01 97.195625 51.02 96.39125 50 95.5625 C47.44649621 93.38138218 45.48065426 91.19865535 43.3984375 88.5859375 C41.80912998 86.78353846 40.08806554 85.29746229 38.25 83.75 C34.15390233 80.27334999 30.67824197 76.39795914 27.17578125 72.33203125 C24.9448014 69.94083741 22.55556233 68.03301923 20 66 C18.82003688 64.71809622 17.67186005 63.4059696 16.5625 62.0625 C14.45311975 59.588648 12.51625157 57.59687631 10 55.5 C7.44002796 53.36668997 5.55013711 51.35405263 3.4375 48.8125 C-0.28378723 44.48864109 -2.71539233 43.20769161 -8.4375 42.6875 C-12.35070453 43.03076356 -14.70693787 43.88303149 -18 46 C-20.38187939 53.14563817 -21.35401234 62.32007688 -18.7265625 69.4609375 C-17.12469871 72.35398799 -17.12469871 72.35398799 -15.34765625 74.8984375 C-14 77 -14 77 -14 80 C-21.63901489 83.27185748 -26.99111376 85.20172931 -35.046875 82.25 C-36.72118355 81.55348764 -38.36464208 80.783609 -40 80 C-39.01101978 77.51871926 -38.01663235 75.04041141 -37 72.5703125 C-35.03309238 67.76060872 -33.31182235 63.02865236 -32 58 C-32.66 58 -33.32 58 -34 58 C-33.96519531 56.83082031 -33.93039063 55.66164063 -33.89453125 54.45703125 C-33.86638284 52.90886859 -33.83908381 51.36069032 -33.8125 49.8125 C-33.78736328 49.04357422 -33.76222656 48.27464844 -33.73632812 47.48242188 C-33.67652486 42.83770161 -33.88772887 39.71374375 -37 36 C-40.47284594 33.40127174 -44.219323 33.66680552 -48.4375 33.625 C-50.38462891 33.58246094 -50.38462891 33.58246094 -52.37109375 33.5390625 C-56.52091807 34.06616613 -58.12268474 35.02049971 -61 38 C-62.25013864 41.75041593 -62.06853995 45.22507684 -62 49.125 C-61.95423845 51.75628931 -61.95288277 54.36732488 -62 57 C-62.33 57.33 -62.66 57.66 -63 58 C-62.8482158 64.98207321 -59.41909409 70.07780254 -56 76 C-55.32179557 77.32750178 -54.65028107 78.65859896 -54 80 C-55.88842514 80.87042243 -57.78611902 81.72075474 -59.6875 82.5625 C-60.74324219 83.03816406 -61.79898438 83.51382813 -62.88671875 84.00390625 C-68.43597621 85.77939013 -72.55697304 83.5078591 -77.8125 81.4375 C-78.97394531 80.98246094 -80.13539062 80.52742188 -81.33203125 80.05859375 C-82.65267578 79.53458984 -82.65267578 79.53458984 -84 79 C-83.19024636 77.18627137 -82.37711979 75.37404826 -81.5625 73.5625 C-81.11003906 72.55316406 -80.65757813 71.54382813 -80.19140625 70.50390625 C-79 68 -79 68 -78 67 C-77.8525511 63.89512326 -78.05334464 60.79126385 -78.1875 57.6875 C-78.20619141 56.81931641 -78.22488281 55.95113281 -78.24414062 55.05664062 C-78.41092902 51.24391646 -78.5616274 48.70118336 -80.609375 45.42578125 C-83.87185 43.4800241 -86.28185351 43.46819645 -90.0625 43.5 C-91.29097656 43.4896875 -92.51945312 43.479375 -93.78515625 43.46875 C-96.96962656 43.72543523 -96.96962656 43.72543523 -98.8671875 45.49609375 C-100.51658346 49.14182757 -100.83039608 52.59299073 -101.0625 56.5625 C-101.13585571 57.76434937 -101.13585571 57.76434937 -101.21069336 58.99047852 C-101.39625312 65.36436003 -99.99930479 69.61832401 -96.34765625 74.93359375 C-95 77 -95 77 -95 80 C-96.25103516 80.45439453 -96.25103516 80.45439453 -97.52734375 80.91796875 C-110.39925989 84.98454038 -110.39925989 84.98454038 -119.5625 94.0625 C-120.91272616 97.0930076 -121 98.49533056 -121 102 C-120.01 102.66 -119.02 103.32 -118 104 C-117.71125 104.598125 -117.4225 105.19625 -117.125 105.8125 C-115.04454522 109.85782874 -111.55668969 112.54991046 -108.0625 115.375 C-107.03489718 116.24203988 -106.01436147 117.11750552 -105 118 C-104.13375 118.73476563 -104.13375 118.73476563 -103.25 119.484375 C-100.43323772 122.22289389 -99.0592415 123.87441143 -98.84765625 127.89453125 C-99.0978717 130.63985289 -99.46238936 133.2972847 -100 136 C-104.03810445 134.65396518 -105.47295076 132.34663277 -108 129 C-108 128.34 -108 127.68 -108 127 C-110.86941475 126.7993102 -110.86941475 126.7993102 -114 128 C-115.95592912 130.71436648 -117.09439959 133.71078871 -118.3125 136.8125 C-118.83166992 138.04323242 -118.83166992 138.04323242 -119.36132812 139.29882812 C-120.83288107 142.83571853 -122.14124744 146.2608153 -123 150 C-122.34 150 -121.68 150 -121 150 C-119.66796875 151.390625 -119.66796875 151.390625 -118.1875 153.25 C-115.70629405 156.26768291 -113.0625711 158.56795824 -110 161 C-110 161.66 -110 162.32 -110 163 C-109.443125 163.226875 -108.88625 163.45375 -108.3125 163.6875 C-104.18072514 166.03256141 -101.28648696 169.61123948 -98.3125 173.25 C-96.2957678 176.01742194 -96.2957678 176.01742194 -94 177 C-94 177.66 -94 178.32 -94 179 C-93.1646875 179.3403125 -93.1646875 179.3403125 -92.3125 179.6875 C-88.18072514 182.03256141 -85.28648696 185.61123948 -82.3125 189.25 C-80.2957678 192.01742194 -80.2957678 192.01742194 -78 193 C-78 193.66 -78 194.32 -78 195 C-77.1646875 195.3403125 -77.1646875 195.3403125 -76.3125 195.6875 C-71.3966167 198.47759592 -67.97215951 203.1312326 -64.4296875 207.44921875 C-62.88518193 209.24681775 -62.88518193 209.24681775 -60 211 C-60.33 211.66 -60.66 212.32 -61 213 C-82.90488489 209.87464721 -103.20808869 202.89346273 -120 188 C-120.95390625 187.18917969 -121.9078125 186.37835938 -122.890625 185.54296875 C-139.78055118 170.92773424 -151.08386409 152.53009462 -157 131 C-157.31839844 129.9275 -157.63679687 128.855 -157.96484375 127.75 C-162.30602092 110.46531301 -162.21123415 89.06924996 -157 72 C-156.70198486 71.00516602 -156.70198486 71.00516602 -156.39794922 69.99023438 C-147.55780738 41.09257221 -128.96086655 17.27006371 -102.1796875 2.94140625 C-94.36076342 -1.15118741 -86.56329388 -4.74190849 -78 -7 C-76.89527344 -7.29777344 -75.79054688 -7.59554688 -74.65234375 -7.90234375 C-49.99040974 -13.52972512 -22.79475593 -11.05896165 0 0 Z " fill="#169AE8" transform="translate(160,10)"/>
<path d="M0 0 C1.28648438 -0.01933594 2.57296875 -0.03867187 3.8984375 -0.05859375 C8.20703018 0.514982 10.31479307 1.65946498 13.625 4.4375 C16.07036019 7.74469201 15.86327333 10.91255964 15.8125 14.9375 C15.80605469 16.0615625 15.79960938 17.185625 15.79296875 18.34375 C15.6545553 20.89313254 15.36834614 23.0112182 14.625 25.4375 C15.285 25.4375 15.945 25.4375 16.625 25.4375 C16.95889335 30.22330469 16.23529935 32.4737121 13.625 36.4375 C11.96402532 40.07886757 10.5281775 43.54361208 9.625 47.4375 C19.19545418 51.35872775 25.2371246 50.29323454 34.625 46.4375 C34.10808594 45.69628906 33.59117187 44.95507812 33.05859375 44.19140625 C28.84964157 37.46202477 26.94424045 32.45209188 27.5 24.4375 C27.57432251 23.36157593 27.57432251 23.36157593 27.65014648 22.26391602 C28.09722348 17.98676211 29.03104474 14.87674914 31.625 11.4375 C35.5564032 9.14418147 39.14264479 9.04431095 43.625 9.4375 C47.60566095 11.01474302 49.23167274 11.84750911 51.625 15.4375 C53.53345728 24.66853587 53.97363255 34.62994709 48.75390625 42.72265625 C48.38136719 43.28855469 48.00882812 43.85445312 47.625 44.4375 C47.625 45.0975 47.625 45.7575 47.625 46.4375 C48.63820313 46.82421875 49.65140625 47.2109375 50.6953125 47.609375 C52.04702167 48.13503968 53.398576 48.66110263 54.75 49.1875 C55.74773437 49.56648438 55.74773437 49.56648438 56.765625 49.953125 C63.67144411 52.66128936 69.04377242 55.67295902 72.625 62.4375 C73.375 66.3125 73.375 66.3125 73.625 69.4375 C65.2420156 75.11629589 56.54218632 75.99298933 46.625 76.4375 C46.37105469 75.73882812 46.11710937 75.04015625 45.85546875 74.3203125 C45.51128906 73.41023438 45.16710937 72.50015625 44.8125 71.5625 C44.47605469 70.65757813 44.13960938 69.75265625 43.79296875 68.8203125 C42.72850976 66.14324151 42.72850976 66.14324151 39.625 64.4375 C40.264375 65.283125 40.90375 66.12875 41.5625 67 C43.98703757 70.20664647 44.18154902 73.51179188 44.625 77.4375 C42.23313687 78.38626214 39.83715934 79.32131207 37.4375 80.25 C36.78330078 80.51103516 36.12910156 80.77207031 35.45507812 81.04101562 C24.30951997 85.31964222 13.41095904 86.99831919 1.5 86.9375 C0.23897461 86.93395508 -1.02205078 86.93041016 -2.32128906 86.92675781 C-16.22692357 86.68192781 -28.95654227 83.76388412 -41.375 77.4375 C-40.90828373 72.02359132 -40.13202189 68.23232068 -37.375 63.4375 C-40.62649768 67.71578642 -42.96332253 71.17579306 -44.375 76.4375 C-50.96911278 77.15080547 -56.56929612 76.04210413 -62.8125 74.0625 C-63.85954102 73.73052612 -63.85954102 73.73052612 -64.92773438 73.3918457 C-68.07872567 72.3467567 -70.59647612 71.28984925 -73.375 69.4375 C-73.0889616 64.76553941 -72.35980595 61.04116972 -69.42578125 57.20703125 C-63.20176982 51.83659853 -54.08964626 48.88186242 -46.375 46.4375 C-46.89191406 45.70789063 -47.40882812 44.97828125 -47.94140625 44.2265625 C-52.2865236 37.3389988 -54.05107173 32.14852197 -53.5625 23.9375 C-53.52133057 23.17260254 -53.48016113 22.40770508 -53.43774414 21.61962891 C-52.99275892 16.86787857 -52.1609332 13.65930408 -48.375 10.4375 C-45.09765625 9.7734375 -45.09765625 9.7734375 -41.4375 9.8125 C-40.23222656 9.79960938 -39.02695313 9.78671875 -37.78515625 9.7734375 C-33.3383729 10.63936324 -31.94845529 11.71026309 -29.375 15.4375 C-28.61016829 18.66930682 -28.49490368 21.81305697 -28.4375 25.125 C-28.39560547 25.99189453 -28.35371094 26.85878906 -28.31054688 27.75195312 C-28.14685562 32.42624771 -28.14685562 32.42624771 -28.375 34.4375 C-29.035 35.0975 -29.695 35.7575 -30.375 36.4375 C-31.26502753 38.33314205 -31.26502753 38.33314205 -32 40.4375 C-32.26039062 41.13875 -32.52078125 41.84 -32.7890625 42.5625 C-33.474425 44.42825658 -33.474425 44.42825658 -33.375 46.4375 C-31.31909546 47.30742154 -29.25494664 48.15787689 -27.1875 49 C-25.46466797 49.71349609 -25.46466797 49.71349609 -23.70703125 50.44140625 C-20.22106635 51.48351768 -18.77686319 51.51177259 -15.375 50.4375 C-14.56417969 50.18871094 -13.75335938 49.93992188 -12.91796875 49.68359375 C-12.14066406 49.41675781 -11.36335938 49.14992187 -10.5625 48.875 C-9.77230469 48.60558594 -8.98210937 48.33617187 -8.16796875 48.05859375 C-7.57628906 47.85363281 -6.98460938 47.64867187 -6.375 47.4375 C-7.53968268 45.03166557 -8.78675748 42.70807441 -10.1015625 40.37890625 C-10.72804687 39.26386719 -11.35453125 38.14882812 -12 37 C-12.63164063 35.88753906 -13.26328125 34.77507812 -13.9140625 33.62890625 C-15.63522971 29.86903029 -15.92107286 27.49157407 -14.8671875 23.52734375 C-13.95220819 19.64231257 -14.47659918 15.59396796 -14.6328125 11.62890625 C-14.27315519 7.17678471 -12.706423 4.81410704 -9.6484375 1.65234375 C-6.38706913 -0.09041495 -3.67711463 0.00366978 0 0 Z " fill="#CADA3A" transform="translate(111.375,42.5625)"/>
<path d="M0 0 C1.216875 0.268125 2.43375 0.53625 3.6875 0.8125 C4.51797852 0.99312988 5.34845703 1.17375977 6.20410156 1.35986328 C8.09444922 1.79266904 9.97697964 2.26089607 11.85058594 2.76123047 C20.19347173 4.9165865 27.97008119 5.42597621 36.5625 5.3125 C38.39844727 5.31733398 38.39844727 5.31733398 40.27148438 5.32226562 C48.03116248 5.27683909 55.39353278 4.5321686 63 3 C63 3.66 63 4.32 63 5 C61.02 5.99 59.04 6.98 57 8 C57 9.32 57 10.64 57 12 C59.64 12.33 62.28 12.66 65 13 C65 14.65 65 16.3 65 18 C63.02 18 61.04 18 59 18 C59 23.94 59 29.88 59 36 C57.02 36 55.04 36 53 36 C53 30.39 53 24.78 53 19 C51.02 19 49.04 19 47 19 C47 17.02 47 15.04 47 13 C48.65 13 50.3 13 52 13 C51.505 11.515 51.505 11.515 51 10 C51.33 9.67 51.66 9.34 52 9 C49.47524538 7.73762269 47.68799534 7.90143596 44.875 7.9375 C43.50988281 7.95103516 43.50988281 7.95103516 42.1171875 7.96484375 C41.06917969 7.98224609 41.06917969 7.98224609 40 8 C40 8.99 40 9.98 40 11 C41.32 11 42.64 11 44 11 C44 11.66 44 12.32 44 13 C44.66 13 45.32 13 46 13 C46.05413245 15.89608593 46.09373641 18.79115195 46.125 21.6875 C46.14175781 22.50412109 46.15851563 23.32074219 46.17578125 24.16210938 C46.21134587 28.55433977 46.11710219 32.02455255 44 36 C42.27904777 37.72095223 40.02836086 37.17199761 37.6875 37.1875 C36.72199219 37.20167969 35.75648437 37.21585938 34.76171875 37.23046875 C31.98480842 36.99873224 30.36526859 36.42140844 28 35 C28 34.01 28 33.02 28 32 C24.59687262 33.05875074 21.98646769 34.00902154 19 36 C14.23178561 36.69502786 10.23443842 36.69437161 6 34.3125 C3.13646727 31.00154028 2.24316064 28.39817368 1.5 24.125 C2.21934499 19.6290938 4.73972695 17.06600808 8 14 C10.95664519 12.5216774 13.74229737 12.93967217 17 13 C17 12.01 17 11.02 17 10 C17.71027344 9.93941406 18.42054687 9.87882813 19.15234375 9.81640625 C20.07144531 9.73261719 20.99054688 9.64882812 21.9375 9.5625 C22.85402344 9.48128906 23.77054688 9.40007812 24.71484375 9.31640625 C26.96159732 9.23955024 26.96159732 9.23955024 28 8 C24.54375231 7.30171869 21.08474638 6.61821633 17.625 5.9375 C16.64015625 5.73833984 15.6553125 5.53917969 14.640625 5.33398438 C13.69960937 5.15029297 12.75859375 4.96660156 11.7890625 4.77734375 C10.91975098 4.60452881 10.05043945 4.43171387 9.15478516 4.25366211 C6.95331224 3.79471184 6.95331224 3.79471184 5 5 C4.67 4.34 4.34 3.68 4 3 C3.34 3 2.68 3 2 3 C2 2.34 2 1.68 2 1 C1.34 0.67 0.68 0.34 0 0 Z " fill="#1570A0" transform="translate(76,123)"/>
<path d="M0 0 C0 3 0 3 -1.5 6.375 C-2.86976637 9.68526872 -3.31747077 11.50782153 -3 15 C-0.525 15.99 -0.525 15.99 2 17 C2 17.66 2 18.32 2 19 C2.66 19 3.32 19 4 19 C4 19.66 4 20.32 4 21 C4.99 20.67 5.98 20.34 7 20 C7.495 20.99 7.495 20.99 8 22 C8.66 21.67 9.32 21.34 10 21 C13.39144107 21.36765891 16.72143984 22.13135781 20.0625 22.8125 C20.99900391 22.99103516 21.93550781 23.16957031 22.90039062 23.35351562 C23.79048828 23.53205078 24.68058594 23.71058594 25.59765625 23.89453125 C26.41758057 24.05800049 27.23750488 24.22146973 28.08227539 24.38989258 C28.71512451 24.59122803 29.34797363 24.79256348 30 25 C30.495 25.99 30.495 25.99 31 27 C28.47524538 28.26237731 26.68799534 28.09856404 23.875 28.0625 C22.96492188 28.05347656 22.05484375 28.04445312 21.1171875 28.03515625 C20.06917969 28.01775391 20.06917969 28.01775391 19 28 C19 28.99 19 29.98 19 31 C18.40832031 31.07476562 17.81664062 31.14953125 17.20703125 31.2265625 C12.42793442 32.02177926 8.74978788 32.90028708 5.703125 37.0234375 C4.4713754 40.4860225 5.44659698 43.82265218 6.2890625 47.31640625 C5.95013997 50.46288976 5.50944153 50.86645027 3.14453125 52.8203125 C-1.42402901 55.71774151 -5.67578132 55.57258495 -10.9375 55.3125 C-11.81212891 55.28994141 -12.68675781 55.26738281 -13.58789062 55.24414062 C-15.72601121 55.18572203 -17.86323956 55.09605816 -20 55 C-20 54.67 -20 54.34 -20 54 C-18.35 54 -16.7 54 -15 54 C-17.97 46.74 -20.94 39.48 -24 32 C-23.34 32 -22.68 32 -22 32 C-21.87625 32.928125 -21.87625 32.928125 -21.75 33.875 C-21.18741541 36.18437567 -21.18741541 36.18437567 -18.9375 37.25 C-18.298125 37.4975 -17.65875 37.745 -17 38 C-17 38.66 -17 39.32 -17 40 C-16.34 40 -15.68 40 -15 40 C-14.34141514 36.6418693 -13.85305229 33.42703061 -14 30 C-16.27127334 26.97590636 -16.27127334 26.97590636 -19 25 C-19 24.34 -19 23.68 -19 23 C-19.8353125 22.690625 -19.8353125 22.690625 -20.6875 22.375 C-23.85990745 20.48870368 -25.67742698 17.84515195 -28 15 C-28.763125 14.443125 -29.52625 13.88625 -30.3125 13.3125 C-30.869375 12.879375 -31.42625 12.44625 -32 12 C-32 11.01 -32 10.02 -32 9 C-31.05253906 9.29003906 -31.05253906 9.29003906 -30.0859375 9.5859375 C-22.46456316 11.8042626 -14.86981571 13.02345353 -7 14 C-6.89816406 13.10023437 -6.79632813 12.20046875 -6.69140625 11.2734375 C-5.97306118 7.87245916 -5.09576942 6.28839631 -2.9375 3.625 C-2.38964844 2.93664062 -1.84179688 2.24828125 -1.27734375 1.5390625 C-0.64505859 0.77722656 -0.64505859 0.77722656 0 0 Z " fill="#1073AC" transform="translate(74,105)"/>
<path d="M0 0 C0.66 0 1.32 0 2 0 C5 4.38461538 5 4.38461538 5 7 C5.99 7.33 6.98 7.66 8 8 C8 8.66 8 9.32 8 10 C8.639375 10.268125 9.27875 10.53625 9.9375 10.8125 C12 12 12 12 13 15 C13.66 15 14.32 15 15 15 C14.93039063 15.88300781 14.86078125 16.76601563 14.7890625 17.67578125 C14.42254074 25.80034697 15.24447588 30.93302179 19.6875 37.79296875 C21 40 21 40 21 43 C13.36098511 46.27185748 8.00888624 48.20172931 -0.046875 45.25 C-1.72118355 44.55348764 -3.36464208 43.783609 -5 43 C-4.01101978 40.51871926 -3.01663235 38.04041141 -2 35.5703125 C-0.03309238 30.76060872 1.68817765 26.02865236 3 21 C2.34 21 1.68 21 1 21 C1.01160156 19.81921875 1.02320312 18.6384375 1.03515625 17.421875 C1.04453752 15.86458492 1.05363736 14.30729312 1.0625 12.75 C1.07087891 11.97269531 1.07925781 11.19539063 1.08789062 10.39453125 C1.09111328 9.64042969 1.09433594 8.88632812 1.09765625 8.109375 C1.10289307 7.41811523 1.10812988 6.72685547 1.11352539 6.01464844 C0.99437971 3.90026102 0.57618237 2.03358485 0 0 Z " fill="#1273A8" transform="translate(125,47)"/>
<path d="M0 0 C1.15224028 0.92961422 2.29659176 1.8690125 3.4375 2.8125 C4.39462891 3.59560547 4.39462891 3.59560547 5.37109375 4.39453125 C7 6 7 6 8 9 C9.88370471 10.3169667 9.88370471 10.3169667 12 11 C12.66 10.67 13.32 10.34 14 10 C14.20625 10.928125 14.4125 11.85625 14.625 12.8125 C15.91294541 17.3856395 18.23406013 21.33370129 20.5625 25.44921875 C21.77813327 27.60630713 22.91602962 29.77473388 24 32 C22.11157486 32.87042243 20.21388098 33.72075474 18.3125 34.5625 C17.25675781 35.03816406 16.20101562 35.51382813 15.11328125 36.00390625 C9.56402379 37.77939013 5.44302696 35.5078591 0.1875 33.4375 C-0.97394531 32.98246094 -2.13539062 32.52742188 -3.33203125 32.05859375 C-4.21246094 31.70925781 -5.09289062 31.35992187 -6 31 C-5.19024636 29.18627137 -4.37711979 27.37404826 -3.5625 25.5625 C-3.11003906 24.55316406 -2.65757813 23.54382813 -2.19140625 22.50390625 C-1 20 -1 20 0 19 C0.08651611 17.58429877 0.10704904 16.164405 0.09765625 14.74609375 C0.09443359 13.89208984 0.09121094 13.03808594 0.08789062 12.15820312 C0.07951172 11.26037109 0.07113281 10.36253906 0.0625 9.4375 C0.05798828 8.53580078 0.05347656 7.63410156 0.04882812 6.70507812 C0.03700225 4.46998686 0.0205222 2.23502563 0 0 Z " fill="#1074AE" transform="translate(82,58)"/>
<path d="M0 0 C3.51732742 1.28517733 5.4770624 2.37247488 7.875 5.25 C9.33017877 8.80710366 9.46888682 11.18192158 9 15 C6.97333762 18.70390021 5.51955484 20.65363011 2 23 C-2.76821439 23.69502786 -6.76556158 23.69437161 -11 21.3125 C-13.86353273 18.00154028 -14.75683936 15.39817368 -15.5 11.125 C-14.78065501 6.6290938 -12.26027305 4.06600808 -9 1 C-5.92805092 -0.53597454 -3.39755707 -0.2265038 0 0 Z " fill="#C0D23E" transform="translate(93,136)"/>
<path d="M0 0 C2.10353495 -0.0810206 4.20795952 -0.13919907 6.3125 -0.1875 C7.48425781 -0.22230469 8.65601562 -0.25710937 9.86328125 -0.29296875 C13 0 13 0 14.8984375 1.35546875 C16.46008226 3.6868604 16.34353852 5.25169184 16 8 C15.01 9.485 15.01 9.485 14 11 C14.66 11 15.32 11 16 11 C16.8125 14.25 16.8125 14.25 17 18 C15.25 20.4375 15.25 20.4375 12 22 C8.30318691 22.36758085 4.69664282 22.37834767 1 22 C0 21 0 21 -0.11352539 18.95874023 C-0.10828857 18.08419189 -0.10305176 17.20964355 -0.09765625 16.30859375 C-0.09443359 15.36435547 -0.09121094 14.42011719 -0.08789062 13.44726562 C-0.07951172 12.45404297 -0.07113281 11.46082031 -0.0625 10.4375 C-0.05798828 9.44041016 -0.05347656 8.44332031 -0.04882812 7.41601562 C-0.03700007 4.94395151 -0.02051849 2.47200482 0 0 Z " fill="#C2D53E" transform="translate(60,137)"/>
<path d="M0 0 C3.79864328 1.56769405 4.40148 3.79250247 5.99023438 7.45703125 C6.49973633 8.71193359 6.49973633 8.71193359 7.01953125 9.9921875 C7.37853516 10.82105469 7.73753906 11.64992187 8.10742188 12.50390625 C10.70703125 18.63403274 10.70703125 18.63403274 10.70703125 22.1171875 C9.05703125 22.1171875 7.40703125 22.1171875 5.70703125 22.1171875 C5.04703125 20.7971875 4.38703125 19.4771875 3.70703125 18.1171875 C1.06703125 18.1171875 -1.57296875 18.1171875 -4.29296875 18.1171875 C-4.95296875 19.4371875 -5.61296875 20.7571875 -6.29296875 22.1171875 C-7.94296875 22.1171875 -9.59296875 22.1171875 -11.29296875 22.1171875 C-10.61420131 17.32810612 -8.75203111 13.24164 -6.79296875 8.8671875 C-6.31150391 7.76890625 -6.31150391 7.76890625 -5.8203125 6.6484375 C-2.94436401 0.15047857 -2.94436401 0.15047857 0 0 Z " fill="#BDD140" transform="translate(48.29296875,136.8828125)"/>
<path d="M0 0 C1.65 0 3.3 0 5 0 C5.33 5.28 5.66 10.56 6 16 C7.98 16.33 9.96 16.66 12 17 C12.33 11.39 12.66 5.78 13 0 C14.65 0 16.3 0 18 0 C18.08132187 2.56314499 18.14064175 5.12368418 18.1875 7.6875 C18.21263672 8.40873047 18.23777344 9.12996094 18.26367188 9.87304688 C18.32652697 14.46146874 17.86703752 17.36934474 15 21 C12.71273777 22.14363112 11.17147573 22.26501932 8.625 22.375 C7.46871094 22.44847656 7.46871094 22.44847656 6.2890625 22.5234375 C4 22 4 22 1.7265625 20.02734375 C-0.60040263 15.94725783 -0.45056657 12.78895994 -0.25 8.1875 C-0.23195312 7.39923828 -0.21390625 6.61097656 -0.1953125 5.79882812 C-0.14844048 3.86535739 -0.0767041 1.93251715 0 0 Z " fill="#C3D53D" transform="translate(151,137)"/>
<path d="M0 0 C1.65 0 3.3 0 5 0 C5.33 5.28 5.66 10.56 6 16 C7.98 16.33 9.96 16.66 12 17 C12.33 11.39 12.66 5.78 13 0 C14.65 0 16.3 0 18 0 C18.13548815 2.73083902 18.23429855 5.45491807 18.3125 8.1875 C18.35439453 8.95642578 18.39628906 9.72535156 18.43945312 10.51757812 C18.53106741 14.78680402 18.38613155 16.4875948 15.73046875 20.01171875 C12.05705828 22.68663424 12.05705828 22.68663424 9 22.625 C8.360625 22.63789063 7.72125 22.65078125 7.0625 22.6640625 C3.62382893 21.55691462 2.1591539 19.86524554 0 17 C-0.588071 14.03143497 -0.47655857 11.19860569 -0.3125 8.1875 C-0.28994141 7.39923828 -0.26738281 6.61097656 -0.24414062 5.79882812 C-0.18554161 3.86506071 -0.09586827 1.93227833 0 0 Z " fill="#C5D63C" transform="translate(104,137)"/>
<path d="M0 0 C0.99 0.66 1.98 1.32 3 2 C2.34 3.32 1.68 4.64 1 6 C-1.31 5.67 -3.62 5.34 -6 5 C-5.67 5.99 -5.34 6.98 -5 8 C-2.68191636 9.03485877 -0.34824702 10.0355414 2 11 C3.54163175 14.0832635 3.29747535 16.60878099 3 20 C1.5 21.9375 1.5 21.9375 -1 23 C-5.2997237 23.53638404 -8.28958674 23.47360884 -12 21 C-11.34 19.68 -10.68 18.36 -10 17 C-7.69 17.33 -5.38 17.66 -3 18 C-3 17.01 -3 16.02 -3 15 C-4.11375 14.566875 -5.2275 14.13375 -6.375 13.6875 C-10 12 -10 12 -12 9 C-11.9375 6 -11.9375 6 -11 3 C-7.47150085 -0.02442784 -4.56481069 -0.49617508 0 0 Z " fill="#C4D53C" transform="translate(183,136)"/>
<path d="M0 0 C4.95 0.99 4.95 0.99 10 2 C10 2.99 10 3.98 10 5 C10.99 4.67 11.98 4.34 13 4 C14.89470816 3.9314505 16.7916834 3.91519628 18.6875 3.9375 C19.68136719 3.94652344 20.67523438 3.95554687 21.69921875 3.96484375 C22.83810547 3.98224609 22.83810547 3.98224609 24 4 C26.33928571 9.38392857 26.33928571 9.38392857 25 13 C24.01 12.67 23.02 12.34 22 12 C19.36195411 12.39397335 19.36195411 12.39397335 17 13 C17 13.66 17 14.32 17 15 C19.64 15 22.28 15 25 15 C25 15.66 25 16.32 25 17 C24.34 17 23.68 17 23 17 C23 17.66 23 18.32 23 19 C21.203125 19.67578125 21.203125 19.67578125 19 20 C17.296875 18.85546875 17.296875 18.85546875 15.75 17.1875 C14.96882813 16.37345703 14.96882813 16.37345703 14.171875 15.54296875 C13 14 13 14 13 12 C12.443125 11.79375 11.88625 11.5875 11.3125 11.375 C8.69802584 9.82044779 7.11355008 7.90001063 5.23828125 5.53125 C3.62988354 3.54231655 1.84086449 1.77268432 0 0 Z " fill="#0E75B1" transform="translate(42,116)"/>
<path d="M0 0 C11.625 -0.25 11.625 -0.25 15 2 C14.360625 2.20625 13.72125 2.4125 13.0625 2.625 C10.69289473 3.88742026 10.69289473 3.88742026 10.125 6.9375 C9.69212888 10.17537932 9.69212888 10.17537932 12 13 C14.30144109 14.07136051 16.6340213 15.07989717 19 16 C18.67 17.32 18.34 18.64 18 20 C15.69 19.67 13.38 19.34 11 19 C10.67 19.99 10.34 20.98 10 22 C10.66 22.66 11.32 23.32 12 24 C10.576875 23.690625 10.576875 23.690625 9.125 23.375 C7.578125 23.189375 7.578125 23.189375 6 23 C5.34 23.66 4.68 24.32 4 25 C1.1796875 25.1953125 1.1796875 25.1953125 -2.125 25.125 C-3.22070312 25.10695312 -4.31640625 25.08890625 -5.4453125 25.0703125 C-6.28835937 25.04710937 -7.13140625 25.02390625 -8 25 C-7.67 24.34 -7.34 23.68 -7 23 C-6.38511719 23.03480469 -5.77023438 23.06960937 -5.13671875 23.10546875 C-4.32847656 23.13253906 -3.52023438 23.15960938 -2.6875 23.1875 C-1.88699219 23.22230469 -1.08648437 23.25710937 -0.26171875 23.29296875 C2.51627459 22.93312505 3.29427215 22.16758647 5 20 C6.585869 16.828262 6.37866445 13.36486178 6.5625 9.875 C6.60568359 9.12089844 6.64886719 8.36679688 6.69335938 7.58984375 C6.7994832 5.72678112 6.90025001 3.86341476 7 2 C5.35 2 3.7 2 2 2 C2.01160156 3.05960938 2.02320313 4.11921875 2.03515625 5.2109375 C2.04453476 6.59895658 2.05363489 7.98697755 2.0625 9.375 C2.07087891 10.07367188 2.07925781 10.77234375 2.08789062 11.4921875 C2.11328125 16.7734375 2.11328125 16.7734375 1 19 C-0.98 19 -2.96 19 -5 19 C-5 18.67 -5 18.34 -5 18 C-3.35 18 -1.7 18 0 18 C0 12.06 0 6.12 0 0 Z " fill="#1C6D93" transform="translate(162,135)"/>
<path d="M0 0 C5.94 0 11.88 0 18 0 C18 1.32 18 2.64 18 4 C16.02 4 14.04 4 12 4 C12 9.94 12 15.88 12 22 C10.02 22 8.04 22 6 22 C6 16.39 6 10.78 6 5 C4.02 5 2.04 5 0 5 C0 3.35 0 1.7 0 0 Z " fill="#B7CC42" transform="translate(123,137)"/>
<path d="M0 0 C1.15224028 0.92961422 2.29659176 1.8690125 3.4375 2.8125 C4.07558594 3.33457031 4.71367188 3.85664062 5.37109375 4.39453125 C7 6 7 6 8 9 C9.88370471 10.3169667 9.88370471 10.3169667 12 11 C12.66 10.67 13.32 10.34 14 10 C14.309375 11.134375 14.61875 12.26875 14.9375 13.4375 C15.62924531 16.78775099 15.62924531 16.78775099 17 18 C17.23192865 19.51469448 17.41215238 21.03754562 17.5625 22.5625 C17.68818359 23.80193359 17.68818359 23.80193359 17.81640625 25.06640625 C17.87699219 25.70449219 17.93757813 26.34257813 18 27 C17.34 27.33 16.68 27.66 16 28 C15.9175 27.38125 15.835 26.7625 15.75 26.125 C15.18741541 23.81562433 15.18741541 23.81562433 12.9375 22.75 C12.298125 22.5025 11.65875 22.255 11 22 C11 21.01 11 20.02 11 19 C10.01 19 9.02 19 8 19 C7.67 17.68 7.34 16.36 7 15 C6.34 15 5.68 15 5 15 C4.896875 16.11375 4.79375 17.2275 4.6875 18.375 C4.460625 19.57125 4.23375 20.7675 4 22 C3.01 22.66 2.02 23.32 1 24 C1.33 19.05 1.66 14.1 2 9 C2.66 9 3.32 9 4 9 C4 8.34 4 7.68 4 7 C3.01 7 2.02 7 1 7 C0.67 4.69 0.34 2.38 0 0 Z " fill="#0F74AE" transform="translate(82,58)"/>
<path d="M0 0 C1.875 1 1.875 1 3 3 C3.46541727 5.75802827 3.50954515 8.2461661 3 11 C1.375 13.0625 1.375 13.0625 -1 14 C-4.67293796 13.77962372 -6.36966546 13.63033454 -9 11 C-9.55641422 3.98918083 -9.55641422 3.98918083 -7.875 1 C-5.10184376 -0.47901666 -3.08815875 -0.38601984 0 0 Z " fill="#1271AC" transform="translate(93,141)"/>
<path d="M0 0 C2.97 0 5.94 0 9 0 C8.01 0.495 8.01 0.495 7 1 C7.01160156 2.13179687 7.02320312 3.26359375 7.03515625 4.4296875 C7.04453454 5.91145669 7.0536347 7.39322765 7.0625 8.875 C7.07087891 9.62136719 7.07925781 10.36773437 7.08789062 11.13671875 C7.11328125 16.7734375 7.11328125 16.7734375 6 19 C4.02 19 2.04 19 0 19 C0 12.73 0 6.46 0 0 Z " fill="#0F70A6" transform="translate(110,135)"/>
<path d="M0 0 C0.66 0 1.32 0 2 0 C2.0825 0.61875 2.165 1.2375 2.25 1.875 C2.81258459 4.18437567 2.81258459 4.18437567 5.0625 5.25 C5.701875 5.4975 6.34125 5.745 7 6 C7 6.66 7 7.32 7 8 C7.99 8.33 8.98 8.66 10 9 C10.33 12.96 10.66 16.92 11 21 C12.7325 21.061875 14.465 21.12375 16.25 21.1875 C17.22453125 21.22230469 18.1990625 21.25710937 19.203125 21.29296875 C22.43179714 20.95476985 23.75781375 20.32679705 26 18 C26.33380814 14.37436186 26.33380814 14.37436186 26 11 C25.34 11 24.68 11 24 11 C24.33 10.01 24.66 9.02 25 8 C25.33 8.66 25.66 9.32 26 10 C26.66 10 27.32 10 28 10 C28.66 12.64 29.32 15.28 30 18 C24.27550024 22.9322352 20.50264195 23.68026367 13.0625 23.3125 C12.18787109 23.28994141 11.31324219 23.26738281 10.41210938 23.24414062 C8.27398879 23.18572203 6.13676044 23.09605816 4 23 C4 22.67 4 22.34 4 22 C5.65 22 7.3 22 9 22 C6.03 14.74 3.06 7.48 0 0 Z " fill="#1B6E91" transform="translate(50,137)"/>
<path d="M0 0 C0 0.66 0 1.32 0 2 C-1.98 2.99 -3.96 3.98 -6 5 C-6 6.32 -6 7.64 -6 9 C-3.36 9.33 -0.72 9.66 2 10 C2 10.33 2 10.66 2 11 C-3.94 11 -9.88 11 -16 11 C-16 10.67 -16 10.34 -16 10 C-14.35 10 -12.7 10 -11 10 C-11.33 9.01 -11.66 8.02 -12 7 C-11.67 6.67 -11.34 6.34 -11 6 C-13.23647631 4.88176185 -14.64891529 4.80603939 -17.1328125 4.68359375 C-17.93847656 4.64169922 -18.74414062 4.59980469 -19.57421875 4.55664062 C-20.41597656 4.51732422 -21.25773437 4.47800781 -22.125 4.4375 C-22.97449219 4.39431641 -23.82398437 4.35113281 -24.69921875 4.30664062 C-26.79928223 4.20045764 -28.89961948 4.09971503 -31 4 C-31 3.67 -31 3.34 -31 3 C-29.73285156 2.95101562 -28.46570313 2.90203125 -27.16015625 2.8515625 C-25.46091904 2.77645809 -23.76170124 2.70091368 -22.0625 2.625 C-20.81629883 2.57859375 -20.81629883 2.57859375 -19.54492188 2.53125 C-14.4979792 2.29559509 -9.80831516 1.65827859 -4.90795898 0.41552734 C-3 0 -3 0 0 0 Z " fill="#277792" transform="translate(139,126)"/>
<path d="M0 0 C0 3 0 3 -1.5 6.375 C-2.86522993 9.67430567 -3.59685931 11.51832067 -3 15 C-2.01 15.66 -1.02 16.32 0 17 C-1.98 17 -3.96 17 -6 17 C-6 16.34 -6 15.68 -6 15 C-13.92 15.495 -13.92 15.495 -22 16 C-22 15.01 -22 14.02 -22 13 C-23.093125 12.855625 -24.18625 12.71125 -25.3125 12.5625 C-29 12 -29 12 -32 11 C-32 10.34 -32 9.68 -32 9 C-31.05253906 9.29003906 -31.05253906 9.29003906 -30.0859375 9.5859375 C-22.46456316 11.8042626 -14.86981571 13.02345353 -7 14 C-6.89816406 13.10023437 -6.79632813 12.20046875 -6.69140625 11.2734375 C-5.97306118 7.87245916 -5.09576942 6.28839631 -2.9375 3.625 C-2.38964844 2.93664062 -1.84179688 2.24828125 -1.27734375 1.5390625 C-0.64505859 0.77722656 -0.64505859 0.77722656 0 0 Z " fill="#166D97" transform="translate(74,105)"/>
<path d="M0 0 C1.98 0 3.96 0 6 0 C6 0.33 6 0.66 6 1 C4.35 1 2.7 1 1 1 C1.06009392 3.75230148 1.14712621 6.4992444 1.25 9.25 C1.26417969 10.02730469 1.27835937 10.80460938 1.29296875 11.60546875 C1.45253007 15.33920359 1.58517194 17.41833891 3.796875 20.51953125 C7.20017036 22.80649746 10.04119709 22.70577019 14 22 C16.4595774 20.66169042 16.4595774 20.66169042 18 19 C17.125 22.875 17.125 22.875 16 24 C14.23252271 24.12562235 12.45939708 24.17576558 10.6875 24.1875 C9.72199219 24.20167969 8.75648437 24.21585938 7.76171875 24.23046875 C4.98480842 23.99873224 3.36526859 23.42140844 1 22 C1 21.01 1 20.02 1 19 C-0.32 19 -1.64 19 -3 19 C-2.01 12.73 -1.02 6.46 0 0 Z " fill="#226A89" transform="translate(103,136)"/>
<path d="M0 0 C1.76462683 3.08809695 2 4.23312136 2 8 C2.66 8 3.32 8 4 8 C3.74438677 10.3431213 3.40729228 12.67843403 3 15 C2.01 15.495 2.01 15.495 1 16 C0.67 13.03 0.34 10.06 0 7 C-2.31 6.34 -4.62 5.68 -7 5 C-7.33 3.68 -7.66 2.36 -8 1 C-6.865625 1.020625 -5.73125 1.04125 -4.5625 1.0625 C-1.18424326 1.41577477 -1.18424326 1.41577477 0 0 Z " fill="#18719B" transform="translate(185,140)"/>
<path d="M0 0 C0 0.33 0 0.66 0 1 C-1.65 1 -3.3 1 -5 1 C-5 1.99 -5 2.98 -5 4 C-5.99 4 -6.98 4 -8 4 C-8 5.32 -8 6.64 -8 8 C-6.68 8 -5.36 8 -4 8 C-4 8.66 -4 9.32 -4 10 C-4.66 10 -5.32 10 -6 10 C-6 10.66 -6 11.32 -6 12 C-4.35 12 -2.7 12 -1 12 C-0.34 10.02 0.32 8.04 1 6 C1.66 7.32 2.32 8.64 3 10 C1.375 12.0625 1.375 12.0625 -1 14 C-4.6985004 13.85205998 -6.35805573 13.64194427 -9 11 C-9.55641422 3.98918083 -9.55641422 3.98918083 -7.875 1 C-5.21065116 -0.42098605 -2.96508915 -0.19767261 0 0 Z " fill="#1E729B" transform="translate(93,141)"/>
<path d="M0 0 C2.02724618 2.39583639 3.01728003 4.0617144 3.875 7.125 C4.7241713 10.22117533 4.7241713 10.22117533 7.625 11.375 C8.40875 11.58125 9.1925 11.7875 10 12 C9.67 12.66 9.34 13.32 9 14 C4.71 12.35 0.42 10.7 -4 9 C-2.68 6.03 -1.36 3.06 0 0 Z " fill="#1F7297" transform="translate(161,80)"/>
<path d="M0 0 C2.97 0 5.94 0 9 0 C8.34 0.66 7.68 1.32 7 2 C6.35232207 4.57061311 6.35232207 4.57061311 6 7 C4.02 7.33 2.04 7.66 0 8 C0 5.36 0 2.72 0 0 Z " fill="#0D75B0" transform="translate(110,135)"/>
<path d="M0 0 C0.33 0 0.66 0 1 0 C1 1.65 1 3.3 1 5 C2.98 5 4.96 5 7 5 C7 10.28 7 15.56 7 21 C6.67 21 6.34 21 6 21 C6 16.05 6 11.1 6 6 C5.01 6 4.02 6 3 6 C2.03929566 8.88211302 1.89418117 10.69850044 1.9375 13.6875 C1.94652344 14.49574219 1.95554687 15.30398437 1.96484375 16.13671875 C1.97644531 16.75160156 1.98804687 17.36648437 2 18 C1.34 18 0.68 18 0 18 C0 12.06 0 6.12 0 0 Z " fill="#0D699E" transform="translate(122,137)"/>
<path d="M0 0 C0.66 0.99 1.32 1.98 2 3 C1.67 3.66 1.34 4.32 1 5 C1.99 5 2.98 5 4 5 C4 5.66 4 6.32 4 7 C3.34 7 2.68 7 2 7 C2.01160156 7.73605469 2.02320312 8.47210938 2.03515625 9.23046875 C2.04417969 10.20628906 2.05320312 11.18210937 2.0625 12.1875 C2.07410156 13.15042969 2.08570312 14.11335938 2.09765625 15.10546875 C2.00486622 17.85576513 1.62111685 20.32479591 1 23 C0.01 23 -0.98 23 -2 23 C-1.125 18.125 -1.125 18.125 0 17 C0.07325168 14.13732433 0.09238205 11.299281 0.0625 8.4375 C0.05798828 7.63119141 0.05347656 6.82488281 0.04882812 5.99414062 C0.03700518 3.99606244 0.01906914 1.99802217 0 0 Z " fill="#176C9C" transform="translate(82,60)"/>
<path d="M0 0 C0.33 0 0.66 0 1 0 C1.33 2.31 1.66 4.62 2 7 C3.32 6.67 4.64 6.34 6 6 C5.67 7.32 5.34 8.64 5 10 C4.34 10 3.68 10 3 10 C2.67 11.65 2.34 13.3 2 15 C2.66 15.33 3.32 15.66 4 16 C3.34 16.99 2.68 17.98 2 19 C2 18.34 2 17.68 2 17 C1.01 17.33 0.02 17.66 -1 18 C-0.835 16.88625 -0.67 15.7725 -0.5 14.625 C0.12094505 9.74489662 0.09057874 4.91138052 0 0 Z " fill="#176E98" transform="translate(163,62)"/>
<path d="M0 0 C0.66 0 1.32 0 2 0 C1.67 2.97 1.34 5.94 1 9 C1.99 9.66 2.98 10.32 4 11 C3.67 11.66 3.34 12.32 3 13 C1.35 12.67 -0.3 12.34 -2 12 C-3.26198237 7.70925993 -2.68038993 5.10761984 -1 1 C-0.67 0.67 -0.34 0.34 0 0 Z " fill="#1992D6" transform="translate(38,103)"/>
<path d="M0 0 C-0.33 0.66 -0.66 1.32 -1 2 C-1.99 2 -2.98 2 -4 2 C-4 3.65 -4 5.3 -4 7 C-4.61875 5.7934375 -4.61875 5.7934375 -5.25 4.5625 C-9.52154323 0.58219835 -14.35389564 1.09765275 -20 1 C-20 0.67 -20 0.34 -20 0 C-17.41703983 -0.19522373 -14.83395921 -0.38144403 -12.25 -0.5625 C-11.52039063 -0.61857422 -10.79078125 -0.67464844 -10.0390625 -0.73242188 C-6.45046349 -0.97709908 -3.44972775 -0.99666259 0 0 Z " fill="#247496" transform="translate(81,136)"/>
<path d="M0 0 C1.32 0.33 2.64 0.66 4 1 C3.2884375 1.6496875 3.2884375 1.6496875 2.5625 2.3125 C-0.83448387 5.98124258 -0.11564152 10.50695837 -0.0625 15.1875 C-0.05798828 15.93708984 -0.05347656 16.68667969 -0.04882812 17.45898438 C-0.03706354 19.30602383 -0.01912865 21.15302213 0 23 C-0.66 23.33 -1.32 23.66 -2 24 C-2.05425013 21.12474331 -2.09379277 18.25052354 -2.125 15.375 C-2.14175781 14.56675781 -2.15851563 13.75851563 -2.17578125 12.92578125 C-2.21420986 8.19906185 -1.82737094 4.44612298 0 0 Z " fill="#2690C4" transform="translate(98,44)"/>
<path d="M0 0 C0 3.10551666 -0.5393715 4.35261084 -2 7 C-3.051875 6.835 -4.10375 6.67 -5.1875 6.5 C-8.20468796 6.10430322 -10.97093972 5.90821029 -14 6 C-11.09091772 4.06061181 -8.59137621 3.03225043 -5.3125 1.875 C-4.31863281 1.52179688 -3.32476562 1.16859375 -2.30078125 0.8046875 C-1.54152344 0.53914063 -0.78226563 0.27359375 0 0 Z " fill="#207291" transform="translate(154,120)"/>
<path d="M0 0 C0.66 0.99 1.32 1.98 2 3 C2.70125 3.969375 3.4025 4.93875 4.125 5.9375 C6 9 6 9 6 13 C4.68 13.33 3.36 13.66 2 14 C2.33 12.35 2.66 10.7 3 9 C1.68 8.67 0.36 8.34 -1 8 C-0.67 7.01 -0.34 6.02 0 5 C0.03874921 3.33378384 0.0450286 1.66605828 0 0 Z " fill="#28748C" transform="translate(99,78)"/>
<path d="M0 0 C2.6875 0.875 2.6875 0.875 5 2 C4.67 3.32 4.34 4.64 4 6 C-0.75 5.125 -0.75 5.125 -3 4 C-3 3.34 -3 2.68 -3 2 C-2.01 1.34 -1.02 0.68 0 0 Z " fill="#287692" transform="translate(176,149)"/>
<path d="M0 0 C1.32 0.66 2.64 1.32 4 2 C4 2.99 4 3.98 4 5 C3.34 5 2.68 5 2 5 C1.67 7.31 1.34 9.62 1 12 C0.34 11.67 -0.32 11.34 -1 11 C-0.67 7.37 -0.34 3.74 0 0 Z " fill="#0B77B6" transform="translate(133,57)"/>
<path d="M0 0 C0.33 0 0.66 0 1 0 C1 4.95 1 9.9 1 15 C0.34 14.67 -0.32 14.34 -1 14 C-1 13.34 -1 12.68 -1 12 C-1.66 12 -2.32 12 -3 12 C-3.33 10.68 -3.66 9.36 -4 8 C-3.01 7.67 -2.02 7.34 -1 7 C-0.67 4.69 -0.34 2.38 0 0 Z " fill="#277492" transform="translate(150,137)"/>
<path d="M0 0 C0 3.87624922 -1.47244427 6.4560707 -3 10 C-3.69140522 12.77888613 -3.69140522 12.77888613 -4 15 C-4.99 14.34 -5.98 13.68 -7 13 C-5.74875245 7.31251115 -3.95897432 4.27152492 0 0 Z " fill="#31717F" transform="translate(74,105)"/>
<path d="M0 0 C-2.29576678 2.29576678 -3.90346249 3.0638375 -7 4 C-9.8125 3.625 -9.8125 3.625 -12 3 C-11.01 2.67 -10.02 2.34 -9 2 C-8.67 1.01 -8.34 0.02 -8 -1 C-4.37673261 -2.2077558 -3.35853631 -1.54311128 0 0 Z " fill="#18709A" transform="translate(101,91)"/>
<path d="M0 0 C-0.33 0.66 -0.66 1.32 -1 2 C1.31 2 3.62 2 6 2 C6.33 2.66 6.66 3.32 7 4 C1.06 4 -4.88 4 -11 4 C-11 3.34 -11 2.68 -11 2 C-9.73392393 1.46770674 -8.46189588 0.94955456 -7.1875 0.4375 C-6.47980469 0.14746094 -5.77210937 -0.14257812 -5.04296875 -0.44140625 C-3 -1 -3 -1 0 0 Z " fill="#3298C6" transform="translate(114,40)"/>
<path d="M0 0 C2.33944736 0.28730055 4.6739143 0.61936779 7 1 C3.99422513 3.00384991 1.15022736 4.26119742 -2.1875 5.625 C-3.27417969 6.07101563 -4.36085937 6.51703125 -5.48046875 6.9765625 C-6.72763672 7.48316406 -6.72763672 7.48316406 -8 8 C-8 7.34 -8 6.68 -8 6 C-6.68 5.67 -5.36 5.34 -4 5 C-4.33 4.01 -4.66 3.02 -5 2 C-4.360625 1.855625 -3.72125 1.71125 -3.0625 1.5625 C-1.02454854 1.18992819 -1.02454854 1.18992819 0 0 Z " fill="#2396CD" transform="translate(55,89)"/>
<path d="M0 0 C7.48291572 6.15034169 7.48291572 6.15034169 10 10 C9.01 10.495 9.01 10.495 8 11 C8 10.34 8 9.68 8 9 C7.236875 8.95875 6.47375 8.9175 5.6875 8.875 C3 8 3 8 1.1875 5.0625 C0 2 0 2 0 0 Z " fill="#0C78B6" transform="translate(163,58)"/>
<path d="M0 0 C0.66 0 1.32 0 2 0 C2.0825 0.61875 2.165 1.2375 2.25 1.875 C2.81258459 4.18437567 2.81258459 4.18437567 5.0625 5.25 C5.701875 5.4975 6.34125 5.745 7 6 C7 6.66 7 7.32 7 8 C7.99 8.33 8.98 8.66 10 9 C9.01 10.485 9.01 10.485 8 12 C1.48063781 4.88610478 1.48063781 4.88610478 0 0 Z " fill="#1479AB" transform="translate(50,137)"/>
<path d="M0 0 C1.32 1.65 2.64 3.3 4 5 C3.67 5.33 3.34 5.66 3 6 C4.32 6.66 5.64 7.32 7 8 C5 9 5 9 3.0546875 8.44140625 C2.33539063 8.15136719 1.61609375 7.86132812 0.875 7.5625 C0.15054688 7.27503906 -0.57390625 6.98757812 -1.3203125 6.69140625 C-1.87460938 6.46324219 -2.42890625 6.23507813 -3 6 C-2.01 4.02 -1.02 2.04 0 0 Z " fill="#217093" transform="translate(79,83)"/>
<path d="M0 0 C2.31 0 4.62 0 7 0 C6.67 1.32 6.34 2.64 6 4 C4.02 4 2.04 4 0 4 C0 2.68 0 1.36 0 0 Z " fill="#18719A" transform="translate(65,150)"/>
<path d="M0 0 C2.92879371 0.62759865 5.36095629 1.58622659 8 3 C7.67 4.65 7.34 6.3 7 8 C5.0625 7.3125 5.0625 7.3125 3 6 C2.375 3.4375 2.375 3.4375 2 1 C1.34 0.67 0.68 0.34 0 0 Z " fill="#1C95DC" transform="translate(118,39)"/>
<path d="M0 0 C1.32 0.33 2.64 0.66 4 1 C3.67 2.32 3.34 3.64 3 5 C1.68 5.33 0.36 5.66 -1 6 C-1.66 5.01 -2.32 4.02 -3 3 C-2.34 3 -1.68 3 -1 3 C-0.67 2.01 -0.34 1.02 0 0 Z " fill="#1496DB" transform="translate(51,200)"/>
<path d="M0 0 C4.07201308 2.8614146 6.09821252 5.39567242 8 10 C8 10.66 8 11.32 8 12 C7.01 12 6.02 12 5 12 C4.54625 10.7625 4.0925 9.525 3.625 8.25 C2.5615993 5.40754505 1.44807517 2.67336954 0 0 Z " fill="#316C7B" transform="translate(150,105)"/>
<path d="M0 0 C0.33 0.66 0.66 1.32 1 2 C1.99 2 2.98 2 4 2 C4.33 1.34 4.66 0.68 5 0 C5 0.99 5 1.98 5 3 C2.36 3.66 -0.28 4.32 -3 5 C-3 4.01 -3 3.02 -3 2 C-3.66 1.67 -4.32 1.34 -5 1 C-3 0 -3 0 0 0 Z " fill="#1B6D95" transform="translate(141,87)"/>
<path d="M0 0 C2.475 0.495 2.475 0.495 5 1 C4.67 4.3 4.34 7.6 4 11 C3.34 10.67 2.68 10.34 2 10 C1.61250787 7.67504723 1.28241883 5.3400417 1 3 C0.67 2.01 0.34 1.02 0 0 Z " fill="#1B7097" transform="translate(182,102)"/>
<path d="M0 0 C1.65 0 3.3 0 5 0 C5.33 1.32 5.66 2.64 6 4 C4.02 4 2.04 4 0 4 C0 2.68 0 1.36 0 0 Z " fill="#23718C" transform="translate(65,141)"/>
<path d="M0 0 C0.66 0.33 1.32 0.66 2 1 C2 1.66 2 2.32 2 3 C2.99 3.33 3.98 3.66 5 4 C1.37 4.66 -2.26 5.32 -6 6 C-6 5.34 -6 4.68 -6 4 C-4.68 3.67 -3.36 3.34 -2 3 C-2 2.34 -2 1.68 -2 1 C-1.34 0.67 -0.68 0.34 0 0 Z " fill="#1995DA" transform="translate(150,48)"/>
<path d="M0 0 C2.64 0 5.28 0 8 0 C8.66 1.65 9.32 3.3 10 5 C9.01 4.67 8.02 4.34 7 4 C7 3.34 7 2.68 7 2 C2.85906302 1.79029441 2.85906302 1.79029441 -1 3 C-0.67 2.01 -0.34 1.02 0 0 Z " fill="#216A8A" transform="translate(44,154)"/>
<path d="M0 0 C4.95 0.99 4.95 0.99 10 2 C10 2.99 10 3.98 10 5 C5.84585747 3.77263971 3.56311466 2.672336 0 0 Z " fill="#1796D5" transform="translate(59,210)"/>
<path d="M0 0 C1.32 0.33 2.64 0.66 4 1 C3.74438677 3.3431213 3.40729228 5.67843403 3 8 C2.01 8.495 2.01 8.495 1 9 C0.67 6.03 0.34 3.06 0 0 Z " fill="#1E7390" transform="translate(185,147)"/>
<path d="M0 0 C4.29 0 8.58 0 13 0 C13.33 1.65 13.66 3.3 14 5 C13.17242187 4.27876953 13.17242187 4.27876953 12.328125 3.54296875 C9.63856507 1.76045839 7.94178582 1.52248591 4.75 1.3125 C3.85796875 1.24675781 2.9659375 1.18101563 2.046875 1.11328125 C1.03367187 1.05720703 1.03367187 1.05720703 0 1 C0 0.67 0 0.34 0 0 Z " fill="#449BAE" transform="translate(67,52)"/>
<path d="M0 0 C1.32 0.66 2.64 1.32 4 2 C3.67 2.66 3.34 3.32 3 4 C4.65 4 6.3 4 8 4 C5.64561267 5.42944945 4.51967567 6.08661261 1.75 5.625 C1.1725 5.41875 0.595 5.2125 0 5 C0.33 4.34 0.66 3.68 1 3 C0.34 2.67 -0.32 2.34 -1 2 C-0.67 1.34 -0.34 0.68 0 0 Z " fill="#0F6DA3" transform="translate(128,216)"/>
<path d="M0 0 C2.64 0 5.28 0 8 0 C7.67 0.99 7.34 1.98 7 3 C6.01 3.33 5.02 3.66 4 4 C2.68 2.68 1.36 1.36 0 0 Z " fill="#0977B9" transform="translate(87,209)"/>
<path d="M0 0 C0.66 0.33 1.32 0.66 2 1 C0.02 5.455 0.02 5.455 -2 10 C-2.66 9.01 -3.32 8.02 -4 7 C-3.34 7 -2.68 7 -2 7 C-2.226875 6.401875 -2.45375 5.80375 -2.6875 5.1875 C-2.790625 4.465625 -2.89375 3.74375 -3 3 C-1.5625 1.25 -1.5625 1.25 0 0 Z " fill="#2294CD" transform="translate(44,137)"/>
<path d="M0 0 C2.50037734 2.17424117 3.43628586 3.73045798 4 7 C2.68 6.34 1.36 5.68 0 5 C0 4.34 0 3.68 0 3 C-0.99 3 -1.98 3 -3 3 C-3 2.34 -3 1.68 -3 1 C-2.01 0.67 -1.02 0.34 0 0 Z " fill="#2497CD" transform="translate(58,76)"/>
<path d="M0 0 C2.50298434 2.93828597 3.46930939 5.17902761 4 9 C2.68 8.67 1.36 8.34 0 8 C0 5.36 0 2.72 0 0 Z " fill="#1595D4" transform="translate(211,61)"/>
<path d="M0 0 C0 0.33 0 0.66 0 1 C-1.65 1 -3.3 1 -5 1 C-5 1.99 -5 2.98 -5 4 C-5.99 4 -6.98 4 -8 4 C-8.33 5.32 -8.66 6.64 -9 8 C-9.22223194 5.25913944 -9.34781139 3.56036279 -7.875 1.1875 C-5.22464043 -0.49106106 -3.06753576 -0.20450238 0 0 Z " fill="#196B95" transform="translate(93,141)"/>
<path d="M0 0 C2.31 0.66 4.62 1.32 7 2 C7 2.66 7 3.32 7 4 C7.66 4.33 8.32 4.66 9 5 C5.37471432 5.20140476 3.13498292 4.85776765 0 3 C0 2.01 0 1.02 0 0 Z " fill="#1F759B" transform="translate(113,132)"/>
<path d="M0 0 C0.33 0.66 0.66 1.32 1 2 C4.465 1.505 4.465 1.505 8 1 C6.35 2.98 4.7 4.96 3 7 C0 3.375 0 3.375 0 0 Z " fill="#1E95D5" transform="translate(38,96)"/>
<path d="M0 0 C0.66 0 1.32 0 2 0 C1.50168276 3.68754757 0.89932357 5.60490662 -2 8 C-1.125 1.125 -1.125 1.125 0 0 Z " fill="#1D729C" transform="translate(130,66)"/>
<path d="M0 0 C1.98 0.495 1.98 0.495 4 1 C4.33 2.65 4.66 4.3 5 6 C3 5 1 4 -1 3 C-0.67 2.01 -0.34 1.02 0 0 Z " fill="#1C97DF" transform="translate(82,55)"/>
<path d="M0 0 C0.66 0.33 1.32 0.66 2 1 C0.25 3 0.25 3 -2 5 C-3.32 5 -4.64 5 -6 5 C-6 4.34 -6 3.68 -6 3 C-4.03533587 1.93224776 -2.03144641 0.93446535 0 0 Z " fill="#1892D8" transform="translate(67,8)"/>
<path d="M0 0 C2.31 0 4.62 0 7 0 C7.33 0.66 7.66 1.32 8 2 C7.01 2.99 6.02 3.98 5 5 C4.34 4.34 3.68 3.68 3 3 C3.33 2.34 3.66 1.68 4 1 C2.68 0.67 1.36 0.34 0 0 Z " fill="#1F96DE" transform="translate(91,1)"/>
<path d="M0 0 C0.66 0 1.32 0 2 0 C1.45773019 3.79588866 -0.20127563 5.47211993 -3 8 C-2.45276317 4.62537285 -1.9451 2.91765 0 0 Z " fill="#186D9C" transform="translate(204,170)"/>
<path d="M0 0 C1.98 1.65 3.96 3.3 6 5 C3 7 3 7 1 7 C0.67 4.69 0.34 2.38 0 0 Z " fill="#0878BB" transform="translate(82,58)"/>
<path d="M0 0 C0.66 0 1.32 0 2 0 C2.66 1.32 3.32 2.64 4 4 C2.02 4.99 2.02 4.99 0 6 C-0.38218767 4.34385343 -0.71395102 2.67542976 -1 1 C-0.67 0.67 -0.34 0.34 0 0 Z " fill="#1894DB" transform="translate(9,152)"/>
<path d="M0 0 C1.32 0 2.64 0 4 0 C4 1.32 4 2.64 4 4 C2.68 4.33 1.36 4.66 0 5 C0 3.35 0 1.7 0 0 Z " fill="#126FA4" transform="translate(141,137)"/>
<path d="M0 0 C-0.33 0.99 -0.66 1.98 -1 3 C-1.99 3.33 -2.98 3.66 -4 4 C-6.1875 2.5625 -6.1875 2.5625 -8 1 C-2.25 -1.125 -2.25 -1.125 0 0 Z " fill="#1B7399" transform="translate(184,114)"/>
<path d="M0 0 C1.65 0 3.3 0 5 0 C5.33 1.65 5.66 3.3 6 5 C5.01 5.495 5.01 5.495 4 6 C0 1.125 0 1.125 0 0 Z " fill="#1995DF" transform="translate(129,51)"/>
<path d="M0 0 C0.99 0.33 1.98 0.66 3 1 C2.34 1 1.68 1 1 1 C0.67 1.99 0.34 2.98 0 4 C-1.65 4.33 -3.3 4.66 -5 5 C-3.35 3.35 -1.7 1.7 0 0 Z " fill="#1D94DE" transform="translate(38,27)"/>
<path d="M0 0 C1.32 0.66 2.64 1.32 4 2 C3.01 3.32 2.02 4.64 1 6 C-0.32 5.67 -1.64 5.34 -3 5 C-2.01 4.67 -1.02 4.34 0 4 C0 2.68 0 1.36 0 0 Z " fill="#1591D7" transform="translate(170,16)"/>
</svg>
