<?xml version="1.0" encoding="UTF-8"?>
<svg version="1.1" xmlns="http://www.w3.org/2000/svg" width="382" height="382">
<path d="M0 0 C0.79985321 -0.00067474 1.59970642 -0.00134949 2.42379761 -0.00204468 C15.05298986 0.01484835 27.30554015 0.5525486 39.6875 3.25 C40.47785645 3.42160645 41.26821289 3.59321289 42.08251953 3.77001953 C66.117075 9.19342497 89.716984 18.68158041 109.6875 33.25 C110.65558594 33.93449219 111.62367188 34.61898437 112.62109375 35.32421875 C120.54623099 41.06453272 127.64580111 47.48432031 134.6875 54.25 C135.20876465 54.7440332 135.7300293 55.23806641 136.26708984 55.74707031 C168.66886398 86.53332796 190.69166719 133.16165804 191.97805786 178.10061646 C192.0562586 182.27575783 192.07266366 186.44921063 192.0625 190.625 C192.06162384 191.50606415 192.06074768 192.3871283 192.05984497 193.29489136 C191.96378444 222.64919484 185.68499624 249.86267804 172.6875 276.25 C172.37200195 276.8987207 172.05650391 277.54744141 171.73144531 278.21582031 C149.9422981 322.53923584 109.19056954 357.22944533 62.625 373.1875 C14.33443061 388.76075983 -39.48017765 385.90101236 -85.125 363.25 C-103.03045075 353.99569787 -118.80198688 342.19173275 -133.3125 328.25 C-134.09439697 327.5089502 -134.09439697 327.5089502 -134.89208984 326.75292969 C-167.29386398 295.96667204 -189.31666719 249.33834196 -190.60305786 204.39938354 C-190.6812586 200.22424217 -190.69766366 196.05078937 -190.6875 191.875 C-190.68662384 190.99393585 -190.68574768 190.1128717 -190.68484497 189.20510864 C-190.58878444 159.85080516 -184.30999624 132.63732196 -171.3125 106.25 C-170.99700195 105.6012793 -170.68150391 104.95255859 -170.35644531 104.28417969 C-157.08571428 77.28889988 -136.06223406 52.37080917 -111.3125 35.25 C-110.40226074 34.60587158 -110.40226074 34.60587158 -109.47363281 33.94873047 C-77.0175918 11.15086017 -39.40558523 0.0299084 0 0 Z " fill="#FAA702" transform="translate(190.3125,-0.25)"/>
<path d="M0 0 C9.9457909 7.22768656 15.4780313 15.09616206 20.14453125 26.28515625 C20.52738281 27.19523437 20.91023438 28.1053125 21.3046875 29.04296875 C24.45456222 41.20295022 23.42092026 55.43687982 17.14453125 66.28515625 C16.38269531 67.80302734 16.38269531 67.80302734 15.60546875 69.3515625 C9.14668666 81.580394 -0.71463795 89.4051862 -13.55078125 94.31640625 C-28.09154088 98.69078519 -44.09857865 97.53828811 -57.85546875 91.28515625 C-67.80580715 85.35786572 -76.74003323 75.17651086 -80.85546875 64.28515625 C-81.15195313 63.5478125 -81.4484375 62.81046875 -81.75390625 62.05078125 C-85.61233725 50.65248049 -86.13923519 34.293003 -80.85546875 23.28515625 C-74.10950467 9.663498 -63.5483846 -0.72570205 -49.54296875 -6.65234375 C-32.71630059 -12.23054993 -14.64983308 -9.57539505 0 0 Z " fill="#C30214" transform="translate(254.85546875,147.71484375)"/>
<path d="M0 0 C1.00872665 -0.00637985 2.01745331 -0.0127597 3.05674744 -0.01933289 C4.15765213 -0.02044571 5.25855682 -0.02155853 6.39282227 -0.02270508 C8.08641624 -0.02769768 8.08641624 -0.02769768 9.81422424 -0.03279114 C12.21436149 -0.03786866 14.61450583 -0.04019921 17.01464844 -0.04003906 C20.66231245 -0.04220843 24.30966566 -0.06030782 27.95727539 -0.0793457 C30.28995665 -0.082283 32.62263935 -0.08426554 34.95532227 -0.08520508 C36.57935219 -0.09598335 36.57935219 -0.09598335 38.2361908 -0.10697937 C49.99515298 -0.07209546 59.27815637 1.76559279 68.70922852 9.02026367 C73.33268651 15.30816654 73.13089049 23.67852606 72.27172852 31.14526367 C70.19475024 37.73276129 66.9952147 42.32960621 61.27172852 46.14526367 C58.39672852 47.45776367 58.39672852 47.45776367 56.27172852 48.14526367 C56.27172852 48.80526367 56.27172852 49.46526367 56.27172852 50.14526367 C56.84020508 50.28061523 57.40868164 50.4159668 57.99438477 50.55541992 C64.16260596 52.27510763 68.54678829 54.83129078 72.27172852 60.14526367 C75.5395471 67.93945259 76.16480611 77.99198188 72.91625977 85.93823242 C69.83525279 91.95741824 67.24594932 95.74530061 61.27172852 99.14526367 C60.61172852 99.14526367 59.95172852 99.14526367 59.27172852 99.14526367 C59.27172852 99.80526367 59.27172852 100.46526367 59.27172852 101.14526367 C52.61260894 103.59405814 46.18876505 103.41758988 39.15454102 103.37573242 C37.90164276 103.3752742 36.64874451 103.37481598 35.35787964 103.37434387 C32.04728289 103.37056256 28.73688155 103.35759271 25.42633057 103.34088135 C22.71314492 103.33002958 20.00000971 103.33041361 17.28680611 103.3310194 C14.05520291 103.33068316 10.82363121 103.32185685 7.59204102 103.31323242 C6.37235626 103.3121196 5.15267151 103.31100677 3.89602661 103.30986023 C2.77751312 103.30348038 1.65899963 103.29710052 0.5065918 103.29052734 C-0.97730545 103.28480965 -0.97730545 103.28480965 -2.49118042 103.27897644 C-4.72827148 103.14526367 -4.72827148 103.14526367 -5.72827148 102.14526367 C-5.82895566 99.01502883 -5.86441309 95.90681447 -5.85766602 92.77612305 C-5.85941833 91.79247269 -5.86117065 90.80882233 -5.86297607 89.79536438 C-5.86739653 86.52656314 -5.86445592 83.25781551 -5.86108398 79.98901367 C-5.86175697 77.72839345 -5.86272695 75.4677733 -5.86398315 73.20715332 C-5.86546039 68.46239536 -5.86330474 63.71765618 -5.85864258 58.97290039 C-5.85294528 52.87587743 -5.85622415 46.77889848 -5.86221504 40.68187714 C-5.86581996 36.01177638 -5.86468239 31.34168615 -5.86208725 26.67158508 C-5.86141779 24.42279556 -5.86224707 22.1740051 -5.8645668 19.92521667 C-5.86709219 16.78825329 -5.86325433 13.65136226 -5.85766602 10.5144043 C-5.85969025 9.57514603 -5.86171448 8.63588776 -5.86380005 7.66816711 C-5.838437 0.02496651 -5.838437 0.02496651 0 0 Z " fill="#9E2BA9" transform="translate(26.728271484375,137.854736328125)"/>
<path d="M0 0 C1.1867287 1.4174815 2.36628438 2.84316504 3.47265625 4.32421875 C5.32137273 6.35260589 7.37076311 7.53582229 9.6875 9 C12.94050776 11.38446008 13.88204522 12.57946556 14.98828125 16.5234375 C15.45245251 20.0171235 15.73630387 23.48719086 16 27 C17.84679733 28.84679733 20.46802917 28.10336421 22.92944336 28.13720703 C43.6905538 28.55352055 60.29192182 36.62033164 76 50 C75.46968389 53.98186504 73.62243552 55.68498817 70.6875 58.3125 C69.90761719 59.03050781 69.12773437 59.74851563 68.32421875 60.48828125 C66 62 66 62 63.99609375 61.94921875 C61.48800348 60.75652612 59.52634121 59.25560955 57.375 57.5 C54.34636516 55.00268157 54.34636516 55.00268157 51 53 C51 52.34 51 51.68 51 51 C50.12988281 50.81824219 50.12988281 50.81824219 49.2421875 50.6328125 C45.6926157 49.8713532 42.29652763 49.10674995 38.875 47.875 C35.48144615 46.84217926 32.52720481 46.85891181 29 47 C29 49.31 29 51.62 29 54 C29.556875 54.10957031 30.11375 54.21914062 30.6875 54.33203125 C41.58815181 56.59686262 51.50752421 60.60332754 60 68 C59.44712232 71.7381133 58.02221638 73.26300232 55.1875 75.6875 C54.50042969 76.28949219 53.81335938 76.89148438 53.10546875 77.51171875 C50.96714767 79.02322215 49.59956056 79.75495946 47 80 C44.35301155 78.21482174 42.43989377 76.87978754 41 74 C38.97536745 73.34786708 38.97536745 73.34786708 37 73 C37 72.34 37 71.68 37 71 C35.906875 70.855625 34.81375 70.71125 33.6875 70.5625 C30 70 30 70 27 69 C14.45142632 67.90989686 4.5090057 68.48483895 -6 76 C-7.83806403 78.09167164 -7.83806403 78.09167164 -9 80 C-13.11339633 79.87535163 -14.92708852 78.3239356 -17.6875 75.5 C-18.55955078 74.55640625 -18.55955078 74.55640625 -19.44921875 73.59375 C-20.9284043 71.89864768 -20.9284043 71.89864768 -23 71 C-22.64347556 68.25053187 -22.15062528 67.14683597 -20.13671875 65.18359375 C-13.69078238 60.58816543 -7.77498708 58.40270386 0 57 C-0.66 54.36 -1.32 51.72 -2 49 C-10.07360482 50.1911876 -17.99559859 53.42502326 -23.5078125 59.72265625 C-25 61 -25 61 -27.38671875 61.4375 C-30.85744724 60.85645128 -32.28726889 59.41216106 -34.8125 57 C-35.60269531 56.2575 -36.39289063 55.515 -37.20703125 54.75 C-38.09455078 53.88375 -38.09455078 53.88375 -39 53 C-38.65987603 50.0322516 -38.02726521 49.02676857 -35.85546875 46.89453125 C-34.97503906 46.20746094 -34.09460938 45.52039063 -33.1875 44.8125 C-32.31480469 44.11769531 -31.44210938 43.42289063 -30.54296875 42.70703125 C-28.23833545 41.15998862 -26.70589549 40.42259906 -24 40 C-24.28875 38.96875 -24.5775 37.9375 -24.875 36.875 C-25.03742188 36.29492188 -25.19984375 35.71484375 -25.3671875 35.1171875 C-25.86692426 33.44522873 -26.44521524 31.79676029 -27.05078125 30.16015625 C-28.90501819 23.98699706 -29.19183346 16.26179664 -26.9375 10.125 C-23.96000856 5.32259444 -20.45416939 1.44733066 -15.5625 -1.4375 C-10.24947994 -2.6037727 -4.79251721 -2.84960483 0 0 Z " fill="#9D29AC" transform="translate(205,56)"/>
<path d="M0 0 C1.6406543 -0.00580078 1.6406543 -0.00580078 3.31445312 -0.01171875 C10.91109751 -0.00257168 18.2540445 0.07809121 25.5 2.625 C26.62728516 3.01171875 26.62728516 3.01171875 27.77734375 3.40625 C29.5625 4.125 29.5625 4.125 30.5625 5.125 C30.63575168 7.98767567 30.65488205 10.825719 30.625 13.6875 C30.62048828 14.49380859 30.61597656 15.30011719 30.61132812 16.13085938 C30.59950518 18.12893756 30.58156914 20.12697783 30.5625 22.125 C26.27049228 21.74178503 22.65111449 21.27899664 18.68359375 19.578125 C13.99444173 17.69651262 9.62108858 17.75323699 4.625 17.875 C3.78259766 17.88015625 2.94019531 17.8853125 2.07226562 17.890625 C-8.79118144 17.7852881 -8.79118144 17.7852881 -18.875 21.1875 C-22.28803381 23.125 -22.28803381 23.125 -24.4375 23.125 C-24.4375 23.785 -24.4375 24.445 -24.4375 25.125 C-25.55125 26.1459375 -25.55125 26.1459375 -26.6875 27.1875 C-31.6670063 32.05879441 -33.62871048 38.07421881 -33.96875 44.9375 C-33.97924618 46.9999996 -33.96851193 49.06270685 -33.9375 51.125 C-33.95296875 52.15367187 -33.9684375 53.18234375 -33.984375 54.2421875 C-33.94039105 62.88503462 -31.76713725 69.6351955 -26.4375 76.5 C-25.963125 77.12648438 -25.48875 77.75296875 -25 78.3984375 C-19.38044517 84.60804558 -11.40478508 85.77063799 -3.31640625 86.34765625 C1.23231307 86.39085983 5.06173984 86.02515203 9.5625 85.125 C9.8925 75.225 10.2225 65.325 10.5625 55.125 C13.676875 55.104375 16.79125 55.08375 20 55.0625 C20.98282959 55.053396 21.96565918 55.04429199 22.97827148 55.03491211 C23.74727783 55.03241455 24.51628418 55.02991699 25.30859375 55.02734375 C26.09935303 55.02210693 26.8901123 55.01687012 27.70483398 55.01147461 C29.5625 55.125 29.5625 55.125 30.5625 56.125 C30.67610293 59.20411659 30.72669105 62.25995466 30.73046875 65.33984375 C30.73546135 66.72895714 30.73546135 66.72895714 30.74055481 68.14613342 C30.74562808 70.10905458 30.74796301 72.0719844 30.74780273 74.03491211 C30.74998817 77.04620511 30.76813674 80.05713134 30.78710938 83.06835938 C30.79004336 84.97135291 30.79202812 86.87434819 30.79296875 88.77734375 C30.80015427 89.68258286 30.80733978 90.58782196 30.81474304 91.52049255 C30.81166641 92.35798538 30.80858978 93.19547821 30.80541992 94.05834961 C30.80684494 94.79701767 30.80826996 95.53568573 30.80973816 96.29673767 C30.5625 98.125 30.5625 98.125 28.5625 100.125 C26.20703125 100.94140625 26.20703125 100.94140625 23.375 101.6875 C22.45332031 101.93628906 21.53164063 102.18507813 20.58203125 102.44140625 C2.92021925 106.43987598 -18.99771847 106.34957887 -34.89453125 96.93359375 C-42.94927149 91.20495361 -48.475118 84.56473492 -51.625 75.1875 C-51.96917969 74.18847656 -52.31335938 73.18945312 -52.66796875 72.16015625 C-53.4375 69.125 -53.4375 69.125 -53.4375 63.125 C-47.4975 62.63 -47.4975 62.63 -41.4375 62.125 C-40.93076927 57.28549772 -40.93076927 57.28549772 -43.265625 54.73828125 C-44.06484375 53.97902344 -44.8640625 53.21976563 -45.6875 52.4375 C-46.87085938 51.28701172 -46.87085938 51.28701172 -48.078125 50.11328125 C-50.15992094 48.3589201 -51.9516885 47.19116227 -54.4375 46.125 C-55.20681328 32.98968805 -51.65599274 23.35189696 -43.125 13.4375 C-30.23171064 2.34327428 -16.62039144 -0.05855687 0 0 Z " fill="#9D2BAB" transform="translate(335.4375,137.875)"/>
<path d="M0 0 C6.27 0 12.54 0 19 0 C20.7772169 1.7772169 20.11988099 4.152472 20.12442017 6.51863098 C20.12082489 7.30984848 20.11722961 8.10106598 20.11352539 8.91625977 C20.11367142 9.74545929 20.11381744 10.57465881 20.1139679 11.4289856 C20.11326851 14.18315198 20.10547493 16.93725161 20.09765625 19.69140625 C20.09579216 21.59569766 20.09436822 23.49998955 20.09336853 25.40428162 C20.08954263 30.42667963 20.07971173 35.44904892 20.06866455 40.47143555 C20.05665775 46.49195512 20.05204853 52.51248428 20.04621124 58.53301239 C20.03650001 67.68869493 20.01734396 76.84431439 20 86 C33.2 86 46.4 86 60 86 C60 91.61 60 97.22 60 103 C40.2 103 20.4 103 0 103 C0 69.01 0 35.02 0 0 Z " fill="#9D2AAB" transform="translate(116,138)"/>
<path d="M0 0 C9.9457909 7.22768656 15.4780313 15.09616206 20.14453125 26.28515625 C20.52738281 27.19523437 20.91023438 28.1053125 21.3046875 29.04296875 C24.45456222 41.20295022 23.42092026 55.43687982 17.14453125 66.28515625 C16.38269531 67.80302734 16.38269531 67.80302734 15.60546875 69.3515625 C9.14668666 81.580394 -0.71463795 89.4051862 -13.55078125 94.31640625 C-28.09154088 98.69078519 -44.09857865 97.53828811 -57.85546875 91.28515625 C-67.80580715 85.35786572 -76.74003323 75.17651086 -80.85546875 64.28515625 C-81.15195313 63.5478125 -81.4484375 62.81046875 -81.75390625 62.05078125 C-85.61233725 50.65248049 -86.13923519 34.293003 -80.85546875 23.28515625 C-74.10950467 9.663498 -63.5483846 -0.72570205 -49.54296875 -6.65234375 C-32.71630059 -12.23054993 -14.64983308 -9.57539505 0 0 Z M-69.83984375 15.58984375 C-78.42421999 27.06895151 -78.82561762 39.5168257 -77.85546875 53.28515625 C-75.76099351 65.57185494 -67.85414849 76.0733025 -57.85546875 83.28515625 C-45.6424248 91.08735639 -33.2580985 91.9031018 -19.11328125 89.703125 C-7.19881707 86.51331124 2.73387574 79.36988952 9.55859375 69.1328125 C12.0274716 64.69977814 13.74770672 60.15431295 15.14453125 55.28515625 C15.33402344 54.68316406 15.52351563 54.08117187 15.71875 53.4609375 C18.15118317 41.03098086 16.07563855 28.81388832 9.7578125 17.88671875 C2.52021441 7.53596204 -7.89436022 0.7767619 -19.85546875 -2.71484375 C-20.84546875 -3.04484375 -21.83546875 -3.37484375 -22.85546875 -3.71484375 C-42.86128721 -5.16454074 -56.52159797 0.36233896 -69.83984375 15.58984375 Z " fill="#9E2BA0" transform="translate(254.85546875,147.71484375)"/>
<path d="M0 0 C4.58923823 0.91784765 6.70589756 1.8105736 10.5625 4.1875 C16.56700945 7.78873578 22.71021135 10.93240579 29 14 C35.43505392 17.17399339 41.82077289 20.34863853 48 24 C47 27 47 27 44.17578125 28.62109375 C42.89201556 29.23498702 41.60385306 29.83973201 40.3125 30.4375 C32.23539624 34.314922 24.38600459 38.55085859 16.5402832 42.87475586 C3.59517424 50 3.59517424 50 0 50 C0 33.5 0 17 0 0 Z " fill="#9B26AC" transform="translate(204,165)"/>
<path d="M0 0 C4.434375 -0.12375 8.86875 -0.2475 13.4375 -0.375 C14.81736084 -0.42962402 16.19722168 -0.48424805 17.61889648 -0.54052734 C24.78822914 -0.63692696 29.53378427 -0.02111041 35.34790039 4.31005859 C38.66551139 7.70366039 39.31035968 10.77693257 39.375 15.4375 C39.30523762 19.17477053 39.13927684 20.75626553 37.25 24.0625 C32.80987095 27.88594446 29.69562375 28.24340675 23.828125 28.1953125 C23.1457074 28.1924826 22.46328979 28.18965271 21.76019287 28.18673706 C19.58994693 28.17558098 17.42012029 28.15048557 15.25 28.125 C13.77474556 28.11496426 12.29948463 28.10583944 10.82421875 28.09765625 C7.21585603 28.07736175 3.60839496 28.03820653 0 28 C0 18.76 0 9.52 0 0 Z " fill="#E09502" transform="translate(41,196)"/>
<path d="M0 0 C4.46677866 -0.09204581 8.93024383 -0.17160663 13.3972168 -0.21972656 C14.9152341 -0.23979203 16.43317459 -0.26705134 17.95092773 -0.30175781 C20.13805122 -0.35050393 22.32414952 -0.37301805 24.51171875 -0.390625 C25.82615967 -0.41157227 27.14060059 -0.43251953 28.49487305 -0.45410156 C32.54481557 0.07058278 34.16256474 1.12184877 37 4 C38.04145513 7.09527445 37.72625669 9.8407834 37 13 C34.19915245 18.61155724 29.99654624 22.89556664 24 25 C19.83564443 25.46712169 15.74591187 25.37810122 11.5625 25.25 C7.746875 25.1675 3.93125 25.085 0 25 C0 16.75 0 8.5 0 0 Z " fill="#BA7B03" transform="translate(42,156)"/>
<path d="M0 0 C4.36741508 0.24287512 7.79649613 1.23925921 11.87109375 2.71875 C12.89686523 3.07646484 12.89686523 3.07646484 13.94335938 3.44140625 C15.61017472 4.02420882 17.27239691 4.62012051 18.93359375 5.21875 C18.93359375 5.87875 18.93359375 6.53875 18.93359375 7.21875 C19.95453125 7.528125 19.95453125 7.528125 20.99609375 7.84375 C24.37837291 9.4269445 26.54820515 11.47149612 29.1875 14.07421875 C30.85946122 15.41796681 30.85946122 15.41796681 32.890625 15.10546875 C35.37552349 14.02693728 37.04731952 12.65619104 39.05859375 10.84375 C39.74179687 10.23789063 40.425 9.63203125 41.12890625 9.0078125 C43.12542247 7.14808269 43.12542247 7.14808269 44.93359375 4.21875 C46.12109375 5.84375 46.12109375 5.84375 46.93359375 8.21875 C46.01313142 11.61738012 44.96087085 13.55296007 41.96875 15.4921875 C37.1278692 17.8257403 33.27276842 18.67314784 27.93359375 18.21875 C27.60359375 19.53875 27.27359375 20.85875 26.93359375 22.21875 C26.34191406 21.82042969 25.75023437 21.42210938 25.140625 21.01171875 C24.35042969 20.48191406 23.56023437 19.95210937 22.74609375 19.40625 C21.96878906 18.88417969 21.19148438 18.36210938 20.390625 17.82421875 C19.57980469 17.29441406 18.76898438 16.76460937 17.93359375 16.21875 C17.18078125 15.7134375 16.42796875 15.208125 15.65234375 14.6875 C12.10428802 12.77073426 8.47679785 11.67176658 4.62109375 10.53125 C3.51024414 10.19383789 3.51024414 10.19383789 2.37695312 9.84960938 C0.56431424 9.29997049 -1.25080514 8.7585233 -3.06640625 8.21875 C-3.44703846 5.8926643 -3.7791057 3.55819736 -4.06640625 1.21875 C-3.06640625 0.21875 -3.06640625 0.21875 0 0 Z " fill="#CC8709" transform="translate(237.06640625,101.78125)"/>
<path d="M0 0 C1.42006623 2.84013245 0.34520282 4.69060584 -0.453125 7.625 C-1.39107924 11.69840128 -1.6760301 15.83954446 -2 20 C-0.91138672 20.36158203 -0.91138672 20.36158203 0.19921875 20.73046875 C3.38482576 22.17443288 5.3281102 23.8610706 7.8125 26.3125 C8.60269531 27.07175781 9.39289063 27.83101562 10.20703125 28.61328125 C12 31 12 31 12.32421875 33.73046875 C12 36 12 36 11 37 C8.98035801 37.07244053 6.95832876 37.08377188 4.9375 37.0625 C3.28041016 37.04896484 3.28041016 37.04896484 1.58984375 37.03515625 C0.73519531 37.02355469 -0.11945313 37.01195312 -1 37 C-0.84402344 37.60328125 -0.68804687 38.2065625 -0.52734375 38.828125 C-0.23537109 40.02695313 -0.23537109 40.02695313 0.0625 41.25 C0.25972656 42.03890625 0.45695312 42.8278125 0.66015625 43.640625 C1.01497267 46.10394822 0.76877544 47.65604132 0 50 C-2.21854707 45.37802694 -3.38281159 42.23175837 -3 37 C-4.485 37.495 -4.485 37.495 -6 38 C-6.00410889 37.39639648 -6.00821777 36.79279297 -6.01245117 36.17089844 C-6.04883189 20.64921652 -6.04883189 20.64921652 -10.94140625 6.14453125 C-12 4 -12 4 -12 1 C-10 1 -10 1 -8.375 2.375 C-7 4 -7 4 -7 6 C-5.68 6 -4.36 6 -3 6 C-2.01 4.02 -1.02 2.04 0 0 Z " fill="#B97C1C" transform="translate(283,164)"/>
<path d="M0 0 C0.99 0.495 0.99 0.495 2 1 C1.57291748 1.39678955 1.14583496 1.7935791 0.70581055 2.20239258 C-3.53198772 6.14443791 -7.75369265 10.10302314 -11.96142578 14.07714844 C-13.18589279 15.23210678 -14.4126854 16.3846174 -15.64404297 17.53222656 C-37.15051595 37.62236647 -52.01613153 64.72341132 -61.375 92.375 C-61.70918945 93.36145508 -62.04337891 94.34791016 -62.38769531 95.36425781 C-65.47337939 104.83104757 -67.19223066 114.11941355 -67.5625 124.0625 C-67.87535344 131.75070688 -67.87535344 131.75070688 -69 134 C-69.09903212 135.36225387 -69.13826946 136.72913981 -69.14526367 138.0949707 C-69.15164352 138.93957352 -69.15802338 139.78417633 -69.16459656 140.65437317 C-69.16570938 141.56893784 -69.1668222 142.4835025 -69.16796875 143.42578125 C-69.17129715 144.36552292 -69.17462555 145.30526459 -69.17805481 146.27348328 C-69.18312391 148.26491811 -69.18546314 150.25636146 -69.18530273 152.24780273 C-69.18748365 155.28969422 -69.20562415 158.33121986 -69.22460938 161.37304688 C-69.22754443 163.30729043 -69.22952848 165.2415357 -69.23046875 167.17578125 C-69.23765427 168.08427322 -69.24483978 168.9927652 -69.25224304 169.92878723 C-69.23590245 174.464865 -68.98357317 177.83677742 -67 182 C-66.8046875 185.33203125 -66.8046875 185.33203125 -66.875 188.8125 C-66.89304687 189.97394531 -66.91109375 191.13539063 -66.9296875 192.33203125 C-66.96449219 193.65267578 -66.96449219 193.65267578 -67 195 C-67.33 195 -67.66 195 -68 195 C-77.87506254 151.62026099 -72.63812883 105.86903468 -53 66 C-52.68450195 65.3512793 -52.36900391 64.70255859 -52.04394531 64.03417969 C-39.90587111 39.34294688 -21.41780706 17.21494069 0 0 Z " fill="#AA3E97" transform="translate(72,40)"/>
<path d="M0 0 C0 0.33 0 0.66 0 1 C-0.75925781 0.91621094 -1.51851563 0.83242187 -2.30078125 0.74609375 C-3.29464844 0.64425781 -4.28851563 0.54242188 -5.3125 0.4375 C-6.29863281 0.33308594 -7.28476562 0.22867188 -8.30078125 0.12109375 C-11.09930347 -0.16602527 -11.09930347 -0.16602527 -14 1 C-14.66 0.34 -15.32 -0.32 -16 -1 C-18.50416447 -1.19939483 -20.87312191 -1.27843043 -23.375 -1.25 C-24.04789062 -1.25773438 -24.72078125 -1.26546875 -25.4140625 -1.2734375 C-29.17949822 -1.25861295 -31.74740427 -0.87135645 -35 1 C-35.99 1 -36.98 1 -38 1 C-41.83603413 1.49179925 -44.11186797 2.41064024 -47 5 C-47.99 6.485 -47.99 6.485 -49 8 C-49.825 8.804375 -50.65 9.60875 -51.5 10.4375 C-54.4411077 13.34244295 -54.4411077 13.34244295 -56 17 C-55.2086563 20.20898563 -55.2086563 20.20898563 -54 23 C-55.32 23 -56.64 23 -58 23 C-58.26932521 27.65052872 -58.26932521 27.65052872 -57 32 C-56.82017877 33.74683476 -56.67978837 35.49785537 -56.5625 37.25 C-56.2205296 41.44741093 -55.59482304 45.06610317 -54 49 C-50.41672247 50.00217064 -50.41672247 50.00217064 -47 49 C-47.185625 50.0725 -47.37125 51.145 -47.5625 52.25 C-47.9304568 55.40391546 -48.04465343 57.09818492 -47 60 C-50.7338863 58.51960455 -52.37005309 56.52811665 -54.625 53.25 C-55.21539062 52.40953125 -55.80578125 51.5690625 -56.4140625 50.703125 C-60.34495455 44.00318091 -60.36571862 37.77502787 -60.375 30.1875 C-60.39949219 29.14529297 -60.42398437 28.10308594 -60.44921875 27.02929688 C-60.48315631 18.01887498 -58.40574148 10.6192662 -52 4 C-51.34 4 -50.68 4 -50 4 C-50 3.34 -50 2.68 -50 2 C-37.00391295 -6.91160255 -13.78334634 -7.08135225 0 0 Z " fill="#965A24" transform="translate(361,159)"/>
<path d="M0 0 C1.078125 1.8359375 1.078125 1.8359375 2 4 C0.64520503 6.84506944 -0.77431099 8.77431099 -3 11 C-3.64767793 13.57061311 -3.64767793 13.57061311 -4 16 C-4.721875 16.04125 -5.44375 16.0825 -6.1875 16.125 C-10.10660527 17.34427719 -11.49715654 19.83851352 -14 23 C-14.99 23.33 -15.98 23.66 -17 24 C-18.00642948 25.32848691 -19.00692179 26.66150329 -20 28 C-20.66 28 -21.32 28 -22 28 C-22 27.01 -22 26.02 -22 25 C-22.68835938 25.54140625 -22.68835938 25.54140625 -23.390625 26.09375 C-24.00421875 26.5578125 -24.6178125 27.021875 -25.25 27.5 C-25.85328125 27.9640625 -26.4565625 28.428125 -27.078125 28.90625 C-29 30 -29 30 -33 30 C-33.66 30.66 -34.32 31.32 -35 32 C-35 31.34 -35 30.68 -35 30 C-41.01326751 30.57914667 -47.00892722 31.22337945 -53 32 C-52.67 31.01 -52.34 30.02 -52 29 C-55.0745356 29.7763932 -55.0745356 29.7763932 -57 32 C-58.32 31.34 -59.64 30.68 -61 30 C-61 29.34 -61 28.68 -61 28 C-63.31 28 -65.62 28 -68 28 C-68.33 27.01 -68.66 26.02 -69 25 C-69.66 25 -70.32 25 -71 25 C-71 24.34 -71 23.68 -71 23 C-69.22888156 23.47811177 -67.45811517 23.9575278 -65.6875 24.4375 C-64.70136719 24.70433594 -63.71523437 24.97117188 -62.69921875 25.24609375 C-60.78482474 25.78079425 -58.88566385 26.37144538 -57 27 C-38.85929069 28.54309423 -24.03509718 25.27584812 -9.625 13.6875 C-5.37784182 9.79575255 -2.68203281 5.04912994 0 0 Z " fill="#DE930F" transform="translate(270,216)"/>
<path d="M0 0 C1.25664978 2.90600261 2 4.79604584 2 8 C-0.61003953 9.52252306 -2.67978555 10.13826147 -5.6875 10.75 C-10.85882768 11.93813932 -14.78191856 14.89502339 -19 18 C-19.33 17.01 -19.66 16.02 -20 15 C-22.64 14.67 -25.28 14.34 -28 14 C-28 13.34 -28 12.68 -28 12 C-27.175 11.79375 -26.35 11.5875 -25.5 11.375 C-22.42099248 10.1653899 -20.67021447 9.11690697 -18.125 7.125 C-12.49182168 2.73886116 -7.39808171 -0.73980817 0 0 Z " fill="#E19717" transform="translate(203,105)"/>
<path d="M0 0 C1.98 1.65 3.96 3.3 6 5 C5.50822266 5.67740234 5.01644531 6.35480469 4.50976562 7.05273438 C2.63966306 10.70342618 2.71623534 13.06950955 2.84375 17.15625 C2.87359703 18.58849169 2.90083711 20.02078953 2.92578125 21.453125 C2.94141113 22.19820312 2.95704102 22.94328125 2.97314453 23.7109375 C3.01793847 27.52900976 2.89974285 31.34029672 2.78125 35.15625 C2.75885254 35.92291992 2.73645508 36.68958984 2.71337891 37.47949219 C2.64431792 39.8197289 2.57240037 42.15986443 2.5 44.5 C2.42774759 46.87802577 2.35621212 49.25606805 2.28601074 51.63415527 C2.24277838 53.09456164 2.19836248 54.55493372 2.15246582 56.01525879 C1.89780288 64.51854161 2.2244001 72.46840108 3 81 C14.88 81.33 26.76 81.66 39 82 C39 82.33 39 82.66 39 83 C26.13 83 13.26 83 0 83 C0 55.61 0 28.22 0 0 Z " fill="#C9841D" transform="translate(136,141)"/>
<path d="M0 0 C0.84409424 0.00128906 1.68818848 0.00257812 2.55786133 0.00390625 C8.68044921 0.0982178 14.14212873 0.8635993 19.8125 3.3125 C19.8125 3.9725 19.8125 4.6325 19.8125 5.3125 C22.2875 5.8075 22.2875 5.8075 24.8125 6.3125 C24.8125 6.9725 24.8125 7.6325 24.8125 8.3125 C25.4725 8.6425 26.1325 8.9725 26.8125 9.3125 C24.5025 8.9825 22.1925 8.6525 19.8125 8.3125 C19.8125 7.6525 19.8125 6.9925 19.8125 6.3125 C15.67156302 6.10279441 15.67156302 6.10279441 11.8125 7.3125 C10.13830562 6.3251546 8.47198148 5.32437895 6.8125 4.3125 C5.8225 4.3125 4.8325 4.3125 3.8125 4.3125 C3.1525 4.9725 2.4925 5.6325 1.8125 6.3125 C-0.8125 6.4375 -0.8125 6.4375 -3.1875 6.3125 C-2.8575 5.6525 -2.5275 4.9925 -2.1875 4.3125 C-2.909375 4.456875 -3.63125 4.60125 -4.375 4.75 C-6.11816143 5.09863229 -7.8679886 5.41719055 -9.625 5.6875 C-14.32161457 6.83301575 -17.48508862 8.25888293 -20.1875 12.3125 C-27.19711538 14.90865385 -27.19711538 14.90865385 -31.1875 13.3125 C-30.8575 12.6525 -30.5275 11.9925 -30.1875 11.3125 C-28.2075 11.8075 -28.2075 11.8075 -26.1875 12.3125 C-25.95675781 11.71695313 -25.72601563 11.12140625 -25.48828125 10.5078125 C-23.84616019 7.73642501 -22.15735298 6.78099151 -19.375 5.1875 C-18.52292969 4.68992188 -17.67085937 4.19234375 -16.79296875 3.6796875 C-10.95105357 0.61421477 -6.53421382 -0.04088275 0 0 Z " fill="#D68A1D" transform="translate(222.1875,123.6875)"/>
<path d="M0 0 C4.5767266 1.83069064 6.43814882 2.98291633 9.8125 6.3125 C10.60269531 7.07175781 11.39289063 7.83101562 12.20703125 8.61328125 C14 11 14 11 14.32421875 13.73046875 C14 16 14 16 13 17 C8.26748847 17.15775038 4.70215739 16.94043148 0 16 C0 10.72 0 5.44 0 0 Z " fill="#E5DFE4" transform="translate(281,184)"/>
<path d="M0 0 C0 0.66 0 1.32 0 2 C-0.66 2 -1.32 2 -2 2 C-2 2.66 -2 3.32 -2 4 C-6.86163794 6.80479112 -12.06321043 7.10001386 -17.578125 7.31640625 C-19.17829468 7.37973145 -19.17829468 7.37973145 -20.81079102 7.44433594 C-31.7262749 7.81936924 -42.64076722 8.13875729 -53.5625 8.25 C-55.23844238 8.28202515 -55.23844238 8.28202515 -56.94824219 8.31469727 C-58.4917334 8.32134399 -58.4917334 8.32134399 -60.06640625 8.328125 C-60.97334229 8.3374707 -61.88027832 8.34681641 -62.81469727 8.35644531 C-63.53584717 8.23881836 -64.25699707 8.12119141 -65 8 C-65.66 7.01 -66.32 6.02 -67 5 C-66.31397202 4.98969254 -65.62794403 4.97938507 -64.92112732 4.96876526 C-57.76690717 4.86040218 -50.61280541 4.7458293 -43.45874023 4.62768555 C-40.79046812 4.58393674 -38.12219145 4.54275062 -35.45385742 4.50268555 C-31.61369 4.44475045 -27.77365214 4.38112308 -23.93359375 4.31640625 C-22.15038979 4.29133751 -22.15038979 4.29133751 -20.3311615 4.26576233 C-14.79807909 4.1672836 -9.45204703 3.97271442 -4 3 C-4 2.34 -4 1.68 -4 1 C-2 0 -2 0 0 0 Z " fill="#D98929" transform="translate(90,236)"/>
<path d="M0 0 C4.5375 -0.061875 9.075 -0.12375 13.75 -0.1875 C15.88807129 -0.22846802 15.88807129 -0.22846802 18.06933594 -0.27026367 C19.19629883 -0.27775635 20.32326172 -0.28524902 21.484375 -0.29296875 C22.63647461 -0.3086792 23.78857422 -0.32438965 24.97558594 -0.34057617 C28.26758786 0.0301328 29.60695077 0.77384798 32 3 C31.15703369 2.99476318 30.31406738 2.98952637 29.44555664 2.98413086 C26.32772064 2.96712174 23.20990823 2.95456594 20.09204102 2.94506836 C18.74079614 2.94002943 17.38955674 2.93319823 16.03833008 2.92456055 C14.09979566 2.91247581 12.161222 2.90730172 10.22265625 2.90234375 C9.05484619 2.89710693 7.88703613 2.89187012 6.68383789 2.88647461 C4.08108449 2.69338505 4.08108449 2.69338505 3 4 C2.84259395 5.70563778 2.74906608 7.41727244 2.68359375 9.12890625 C2.64548584 10.06033447 2.60737793 10.9917627 2.56811523 11.95141602 C2.52501221 13.14307373 2.48190918 14.33473145 2.4375 15.5625 C2.293125 19.336875 2.14875 23.11125 2 27 C11.57 27 21.14 27 31 27 C31 27.33 31 27.66 31 28 C20.77 28 10.54 28 0 28 C0 18.76 0 9.52 0 0 Z " fill="#BC7230" transform="translate(41,196)"/>
<path d="M0 0 C0.33 0 0.66 0 1 0 C1.02693575 2.12493141 1.04636628 4.24995912 1.0625 6.375 C1.07410156 7.55835938 1.08570313 8.74171875 1.09765625 9.9609375 C1 13 1 13 0 15 C-0.09903212 16.36225387 -0.13826946 17.72913981 -0.14526367 19.0949707 C-0.15164352 19.93957352 -0.15802338 20.78417633 -0.16459656 21.65437317 C-0.16570938 22.56893784 -0.1668222 23.4835025 -0.16796875 24.42578125 C-0.17129715 25.36552292 -0.17462555 26.30526459 -0.17805481 27.27348328 C-0.18312391 29.26491811 -0.18546314 31.25636146 -0.18530273 33.24780273 C-0.18748365 36.28969422 -0.20562415 39.33121986 -0.22460938 42.37304688 C-0.22754443 44.30729043 -0.22952848 46.2415357 -0.23046875 48.17578125 C-0.23765427 49.08427322 -0.24483978 49.9927652 -0.25224304 50.92878723 C-0.23590245 55.464865 0.01642683 58.83677742 2 63 C2.1953125 66.33203125 2.1953125 66.33203125 2.125 69.8125 C2.10695313 70.97394531 2.08890625 72.13539063 2.0703125 73.33203125 C2.03550781 74.65267578 2.03550781 74.65267578 2 76 C1.67 76 1.34 76 1 76 C-3.84692908 54.70813296 -3.41855344 33.70038626 -3 12 C-2.34 12 -1.68 12 -1 12 C-0.67 8.04 -0.34 4.08 0 0 Z " fill="#BE5E6A" transform="translate(3,159)"/>
<path d="M0 0 C0.66 0.33 1.32 0.66 2 1 C2.625 3.5625 2.625 3.5625 3 6 C1.68 6 0.36 6 -1 6 C-1.26932521 10.65052872 -1.26932521 10.65052872 0 15 C0.17982123 16.74683476 0.32021163 18.49785537 0.4375 20.25 C0.7794704 24.44741093 1.40517696 28.06610317 3 32 C6.58327753 33.00217064 6.58327753 33.00217064 10 32 C9.814375 33.0725 9.62875 34.145 9.4375 35.25 C9.0695432 38.40391546 8.95534657 40.09818492 10 43 C6.2661137 41.51960455 4.62994691 39.52811665 2.375 36.25 C1.78460938 35.40953125 1.19421875 34.5690625 0.5859375 33.703125 C-3.47497421 26.78157105 -3.24483208 20.45095629 -3.125 12.625 C-3.11597656 11.50738281 -3.10695313 10.38976562 -3.09765625 9.23828125 C-3.07418346 6.49196538 -3.04134728 3.74609528 -3 1 C-2.01 0.67 -1.02 0.34 0 0 Z " fill="#A96A28" transform="translate(304,176)"/>
<path d="M0 0 C1.65 0.99 3.3 1.98 5 3 C4.9397287 6.04370043 4.85260043 9.08267412 4.75 12.125 C4.72873047 13.40890625 4.72873047 13.40890625 4.70703125 14.71875 C4.38145475 23.18373895 0.87891071 27.12108929 -5 33 C-6.29519995 35.16620544 -6.29519995 35.16620544 -7 37 C-6.34 37 -5.68 37 -5 37 C-4.34 38.65 -3.68 40.3 -3 42 C-6.63 40.35 -10.26 38.7 -14 37 C-14 36.34 -14 35.68 -14 35 C-12.6403039 34.06983753 -11.23508116 33.20580596 -9.8125 32.375 C-4.12061445 28.72681509 -1.12229728 24.36689183 1 18 C1.09523918 15.87672644 1.12986362 13.75040289 1.125 11.625 C1.12757812 10.50351563 1.13015625 9.38203125 1.1328125 8.2265625 C1.01470948 5.35735378 0.65782328 2.78791771 0 0 Z " fill="#DD8F1F" transform="translate(97,151)"/>
<path d="M0 0 C19.8 0 39.6 0 60 0 C60 0.33 60 0.66 60 1 C59.21463867 1.01981934 58.42927734 1.03963867 57.62011719 1.06005859 C53.99645801 1.15642684 50.37328963 1.26564518 46.75 1.375 C44.89761719 1.42140625 44.89761719 1.42140625 43.0078125 1.46875 C36.06392877 1.68803054 29.47251655 2.34367963 22.64355469 3.59912109 C19.02826189 4.14735814 15.88758711 3.98875871 12.25 3.625 C11.05890625 3.51414063 9.8678125 3.40328125 8.640625 3.2890625 C7.76921875 3.19367188 6.8978125 3.09828125 6 3 C5.67 3.66 5.34 4.32 5 5 C3.35 3.35 1.7 1.7 0 0 Z " fill="#D27E34" transform="translate(116,241)"/>
<path d="M0 0 C0.99 1.32 1.98 2.64 3 4 C1.91728925 7.17595153 0.89793408 9.40854641 -1.95703125 11.2890625 C-6.81350139 13.58906029 -10.65651233 14.45476491 -16 14 C-16.33 15.32 -16.66 16.64 -17 18 C-19.5 16.1875 -19.5 16.1875 -22 14 C-22 13.01 -22 12.02 -22 11 C-22.99 11 -23.98 11 -25 11 C-25 10.34 -25 9.68 -25 9 C-22.08517222 8.19032562 -20.53886783 7.78154007 -17.6875 8.9375 C-17.130625 9.288125 -16.57375 9.63875 -16 10 C-16 10.66 -16 11.32 -16 12 C-9.56035274 10.79256614 -5.41533066 7.83532553 -1 3 C-0.67 2.01 -0.34 1.02 0 0 Z " fill="#DC8F17" transform="translate(281,106)"/>
<path d="M0 0 C4.36741508 0.24287512 7.79649613 1.23925921 11.87109375 2.71875 C12.89686523 3.07646484 12.89686523 3.07646484 13.94335938 3.44140625 C15.61017472 4.02420882 17.27239691 4.62012051 18.93359375 5.21875 C18.93359375 5.54875 18.93359375 5.87875 18.93359375 6.21875 C13.65359375 6.21875 8.37359375 6.21875 2.93359375 6.21875 C4.55725841 9.46607932 7.68747214 9.92030136 10.93359375 11.21875 C8.93359375 12.21875 8.93359375 12.21875 6.11328125 11.44140625 C5.02273437 11.05855469 3.9321875 10.67570312 2.80859375 10.28125 C1.71289062 9.90097656 0.6171875 9.52070312 -0.51171875 9.12890625 C-1.35476562 8.82855469 -2.1978125 8.52820313 -3.06640625 8.21875 C-3.44703846 5.8926643 -3.7791057 3.55819736 -4.06640625 1.21875 C-3.06640625 0.21875 -3.06640625 0.21875 0 0 Z " fill="#BE7A1F" transform="translate(237.06640625,101.78125)"/>
<path d="M0 0 C1.25664978 2.90600261 2 4.79604584 2 8 C-0.35438733 9.42944945 -1.48032433 10.08661261 -4.25 9.625 C-4.8275 9.41875 -5.405 9.2125 -6 9 C-4.68 8.01 -3.36 7.02 -2 6 C-5.27185553 4.92689142 -7.42947592 5.10736898 -10.75 5.9375 C-11.54921875 6.13214844 -12.3484375 6.32679687 -13.171875 6.52734375 C-13.77515625 6.68332031 -14.3784375 6.83929688 -15 7 C-13.68 7.66 -12.36 8.32 -11 9 C-11 9.66 -11 10.32 -11 11 C-11.99 10.67 -12.98 10.34 -14 10 C-18.33917411 10.79939129 -18.33917411 10.79939129 -22 13 C-23.66617115 13.04063832 -25.33388095 13.042721 -27 13 C-26.42765625 12.73960938 -25.8553125 12.47921875 -25.265625 12.2109375 C-22.82565942 10.90681797 -20.88388721 9.3827704 -18.75 7.625 C-12.90675853 3.02908429 -7.72435193 -0.77243519 0 0 Z " fill="#C77D23" transform="translate(203,105)"/>
<path d="M0 0 C1.77111844 0.47811177 3.54188483 0.9575278 5.3125 1.4375 C6.29863281 1.70433594 7.28476563 1.97117188 8.30078125 2.24609375 C10.21517526 2.78079425 12.11433615 3.37144538 14 4 C15.77313851 4.08209792 17.54920775 4.10746294 19.32421875 4.09765625 C20.86625977 4.09282227 20.86625977 4.09282227 22.43945312 4.08789062 C23.51130859 4.07951172 24.58316406 4.07113281 25.6875 4.0625 C26.77095703 4.05798828 27.85441406 4.05347656 28.97070312 4.04882812 C31.64719085 4.03703743 34.32356777 4.02058063 37 4 C33.82993855 7.17006145 30.36690762 7.97210393 25.9375 8.0625 C24.968125 8.041875 23.99875 8.02125 23 8 C21.32546201 8.291224 19.65449105 8.61070799 18 9 C18.33 8.01 18.66 7.02 19 6 C15.9254644 6.7763932 15.9254644 6.7763932 14 9 C12.68 8.34 11.36 7.68 10 7 C10 6.34 10 5.68 10 5 C7.69 5 5.38 5 3 5 C2.67 4.01 2.34 3.02 2 2 C1.34 2 0.68 2 0 2 C0 1.34 0 0.68 0 0 Z " fill="#BC7424" transform="translate(199,239)"/>
<path d="M0 0 C1.55460937 0.14501953 1.55460937 0.14501953 3.140625 0.29296875 C8.52898851 0.83592885 13.65328033 1.5024483 18.75 3.375 C19.245 4.365 19.245 4.365 19.75 5.375 C21.39142963 6.4159066 23.05712215 7.42004326 24.75 8.375 C21.43441858 8.375 19.39770542 7.61381306 16.3125 6.4375 C9.46032497 3.8364703 3.92838956 3.16580106 -3.375 3.125 C-4.27476562 3.104375 -5.17453125 3.08375 -6.1015625 3.0625 C-12.62125615 3.0250305 -18.1205325 4.17654885 -24.25 6.375 C-23.25 3.375 -23.25 3.375 -21.17675781 2.18505859 C-13.74823368 -0.64225527 -7.83950533 -0.92054797 0 0 Z " fill="#E28B31" transform="translate(227.25,136.625)"/>
<path d="M0 0 C20.72340426 -0.57446809 20.72340426 -0.57446809 29 3 C29 3.66 29 4.32 29 5 C31.475 5.495 31.475 5.495 34 6 C34 6.66 34 7.32 34 8 C34.66 8.33 35.32 8.66 36 9 C33.69 8.67 31.38 8.34 29 8 C29 7.34 29 6.68 29 6 C24.85906302 5.79029441 24.85906302 5.79029441 21 7 C18.375 5.6875 18.375 5.6875 16 4 C16 3.34 16 2.68 16 2 C10.39 2 4.78 2 -1 2 C-0.67 1.34 -0.34 0.68 0 0 Z " fill="#C47E24" transform="translate(213,124)"/>
<path d="M0 0 C0.33 0 0.66 0 1 0 C1 9.57 1 19.14 1 29 C-8.1440562 32.04801873 -15.77691823 31.41916899 -25 29 C-25 28.67 -25 28.34 -25 28 C-21.7 28 -18.4 28 -15 28 C-15 27.34 -15 26.68 -15 26 C-14.34 26 -13.68 26 -13 26 C-13 26.66 -13 27.32 -13 28 C-11.18706911 27.85962479 -9.3746557 27.71255111 -7.5625 27.5625 C-6.55316406 27.48128906 -5.54382813 27.40007812 -4.50390625 27.31640625 C-2.06359221 27.26788532 -2.06359221 27.26788532 -1 26 C-0.84193469 24.07521187 -0.748865 22.1450079 -0.68359375 20.21484375 C-0.64169922 19.04501953 -0.59980469 17.87519531 -0.55664062 16.66992188 C-0.51732422 15.43822266 -0.47800781 14.20652344 -0.4375 12.9375 C-0.37272461 11.08415039 -0.37272461 11.08415039 -0.30664062 9.19335938 C-0.20015802 6.12902665 -0.09814576 3.06460927 0 0 Z " fill="#DB9020" transform="translate(345,194)"/>
<path d="M0 0 C0.88816406 0.2165625 1.77632813 0.433125 2.69140625 0.65625 C11.1418506 2.49812283 19.21871716 3.30127357 27.875 3.3125 C28.8244751 3.31765625 29.7739502 3.3228125 30.75219727 3.328125 C36.25981504 3.27438746 41.37897485 2.70608751 46.75195312 1.48754883 C50.14573235 0.75151743 53.55039287 0.38328968 57 0 C49.21288997 4.26261236 39.77682415 5.60475229 31 6 C30.34725098 6.03254883 29.69450195 6.06509766 29.02197266 6.09863281 C18.51900455 6.562309 9.88706939 5.91290379 0 2 C0 1.34 0 0.68 0 0 Z " fill="#E39424" transform="translate(307,238)"/>
<path d="M0 0 C1.98 1.65 3.96 3.3 6 5 C5.50628906 5.67675781 5.01257813 6.35351562 4.50390625 7.05078125 C2.6307455 10.72412246 2.76594445 13.08271962 2.9375 17.1875 C3.18545118 26.24199297 2.16243385 35.03265312 1 44 C0.67 44 0.34 44 0 44 C0 29.48 0 14.96 0 0 Z " fill="#A9701B" transform="translate(136,141)"/>
<path d="M0 0 C0.99 0.66 1.98 1.32 3 2 C1.87464844 1.93425781 1.87464844 1.93425781 0.7265625 1.8671875 C-4.41812053 1.8801464 -7.79485452 2.06425873 -11.953125 5.29296875 C-13.69614327 7.09969382 -15.39478967 8.95062303 -17.0390625 10.84765625 C-18.00972656 11.91306641 -18.00972656 11.91306641 -19 13 C-19.66 13 -20.32 13 -21 13 C-21.33 18.28 -21.66 23.56 -22 29 C-22.33 29 -22.66 29 -23 29 C-23.6345823 13.37047303 -23.6345823 13.37047303 -18.41796875 7.09765625 C-12.69981944 1.00577169 -8.26713036 -0.53336325 0 0 Z " fill="#B94F7A" transform="translate(200,54)"/>
<path d="M0 0 C0.89299805 -0.00128906 1.78599609 -0.00257813 2.70605469 -0.00390625 C9.53565286 0.10524824 15.30429682 1.22399653 21.4375 4.375 C21.4375 4.705 21.4375 5.035 21.4375 5.375 C20.67824219 5.29121094 19.91898437 5.20742187 19.13671875 5.12109375 C18.14285156 5.01925781 17.14898437 4.91742188 16.125 4.8125 C15.13886719 4.70808594 14.15273438 4.60367188 13.13671875 4.49609375 C10.33819653 4.20897473 10.33819653 4.20897473 7.4375 5.375 C6.7775 4.715 6.1175 4.055 5.4375 3.375 C2.93333553 3.17560517 0.56437809 3.09656957 -1.9375 3.125 C-2.61039062 3.11726562 -3.28328125 3.10953125 -3.9765625 3.1015625 C-7.6700836 3.11610392 -10.42603401 3.34836044 -13.5625 5.375 C-13.5625 4.385 -13.5625 3.395 -13.5625 2.375 C-9.06252946 -0.17695614 -5.06983074 -0.00745838 0 0 Z " fill="#AE6929" transform="translate(339.5625,154.625)"/>
<path d="M0 0 C2.91748047 -0.38818359 2.91748047 -0.38818359 6.6171875 -0.3984375 C7.27075226 -0.40130768 7.92431702 -0.40417786 8.59768677 -0.40713501 C9.9813117 -0.40917731 11.36496539 -0.40363573 12.74853516 -0.39111328 C14.86036373 -0.37511091 16.97026371 -0.39092699 19.08203125 -0.41015625 C20.42708754 -0.40817283 21.77214264 -0.40432712 23.1171875 -0.3984375 C24.95192627 -0.39336182 24.95192627 -0.39336182 26.82373047 -0.38818359 C30 0 30 0 34 3 C22.12 3 10.24 3 -2 3 C-1.34 2.01 -0.68 1.02 0 0 Z " fill="#E99B21" transform="translate(319,136)"/>
<path d="M0 0 C4.98012761 1.50912958 8.24259942 4.55661849 12 8 C11.01 8.33 10.02 8.66 9 9 C9 8.34 9 7.68 9 7 C6.03 6.67 3.06 6.34 0 6 C0 6.66 0 7.32 0 8 C0.99 8 1.98 8 3 8 C3 8.66 3 9.32 3 10 C-0.77545388 8.90931332 -3.47043472 8.0916909 -6 5 C-4.02 4.34 -2.04 3.68 0 3 C0 2.01 0 1.02 0 0 Z " fill="#CF891F" transform="translate(256,109)"/>
<path d="M0 0 C0.99 0.495 0.99 0.495 2 1 C2.625 3.5625 2.625 3.5625 3 6 C6.58327753 7.00217064 6.58327753 7.00217064 10 6 C9.814375 7.0725 9.62875 8.145 9.4375 9.25 C9.0695432 12.40391546 8.95534657 14.09818492 10 17 C4.86066025 14.89957419 2.46605496 10.81122488 0 6 C-0.375 2.4375 -0.375 2.4375 0 0 Z " fill="#CC8711" transform="translate(304,202)"/>
<path d="M0 0 C-0.21484375 1.859375 -0.21484375 1.859375 -1 4 C-3.06640625 5.265625 -3.06640625 5.265625 -5.5625 6.25 C-6.38878906 6.58515625 -7.21507812 6.9203125 -8.06640625 7.265625 C-8.70449219 7.50796875 -9.34257812 7.7503125 -10 8 C-10.33 7.01 -10.66 6.02 -11 5 C-13.00016466 3.79117904 -13.00016466 3.79117904 -15 3 C-14.05125 2.690625 -13.1025 2.38125 -12.125 2.0625 C-7.63552763 0.53607939 -4.85778229 -0.08995893 0 0 Z " fill="#D78C09" transform="translate(202,109)"/>
<path d="M0 0 C1 2 1 2 0.5390625 4.1796875 C-2.25102254 12.40686133 -6.55402319 18.33216941 -12 25 C-12.33 24.01 -12.66 23.02 -13 22 C-11.1875 18.8125 -11.1875 18.8125 -9 16 C-8.34 16 -7.68 16 -7 16 C-7 14.35 -7 12.7 -7 11 C-6.34 11 -5.68 11 -5 11 C-4.731875 10.113125 -4.46375 9.22625 -4.1875 8.3125 C-3.08289181 5.23122452 -1.77150856 2.73778595 0 0 Z " fill="#AE0C1C" transform="translate(269,201)"/>
<path d="M0 0 C6.27 0 12.54 0 19 0 C15 3 15 3 11.5625 2.6875 C10.386875 2.460625 9.21125 2.23375 8 2 C5.24934768 1.83142517 5.24934768 1.83142517 3 2 C1.60515242 3.16353446 1.60515242 3.16353446 1.9375 6.38671875 C1.96153734 8.53605783 1.99995218 10.68487225 2.0390625 12.83398438 C2.08538429 17.01452609 1.83083454 20.87828176 1 25 C0.67 25 0.34 25 0 25 C0 16.75 0 8.5 0 0 Z " fill="#9A6511" transform="translate(42,156)"/>
<path d="M0 0 C2.39256506 1.19628253 2.79843378 2.12565265 4.0625 4.4375 C4.40410156 5.05496094 4.74570313 5.67242187 5.09765625 6.30859375 C5.74921553 7.52991482 6.38094352 8.76188703 7 10 C5.68 10 4.36 10 3 10 C2.95101562 10.99902344 2.90203125 11.99804688 2.8515625 13.02734375 C2.77679688 14.31769531 2.70203125 15.60804688 2.625 16.9375 C2.52058594 18.86916016 2.52058594 18.86916016 2.4140625 20.83984375 C2.27742187 21.88269531 2.14078125 22.92554688 2 24 C1.34 24.33 0.68 24.66 0 25 C0 19.39 0 13.78 0 8 C0.66 8 1.32 8 2 8 C1.34 5.36 0.68 2.72 0 0 Z " fill="#E18E2E" transform="translate(176,216)"/>
<path d="M0 0 C-1.25842768 3.77528304 -2.62493429 4.10667045 -6 6 C-6.66 6.66 -7.32 7.32 -8 8 C-12.52568564 9.93830937 -17.0277599 11.48118453 -22 11 C-18.27712675 8.5180845 -14.38614329 6.47220474 -10.4375 4.375 C-9.26670898 3.74464844 -9.26670898 3.74464844 -8.07226562 3.1015625 C-6.95174805 2.50601563 -6.95174805 2.50601563 -5.80859375 1.8984375 C-5.12595459 1.53411621 -4.44331543 1.16979492 -3.73999023 0.79443359 C-2 0 -2 0 0 0 Z " fill="#9A0D35" transform="translate(226,205)"/>
<path d="M0 0 C0.95139197 3.10684065 1.01111621 5.54505121 0.66015625 8.765625 C0.56669922 9.65507812 0.47324219 10.54453125 0.37695312 11.4609375 C0.22129883 12.84152344 0.22129883 12.84152344 0.0625 14.25 C-0.03740234 15.18585938 -0.13730469 16.12171875 -0.24023438 17.0859375 C-0.48724564 19.39137599 -0.74071115 21.69591548 -1 24 C-0.34 24 0.32 24 1 24 C1 27.3 1 30.6 1 34 C-2.59177526 28.61233711 -2.18293771 23.478896 -2.1875 17.1875 C-2.19974609 16.31029297 -2.21199219 15.43308594 -2.22460938 14.52929688 C-2.23637768 9.28455412 -1.71297458 4.96288683 0 0 Z " fill="#B11024" transform="translate(179,174)"/>
<path d="M0 0 C1.22178955 0.00628418 1.22178955 0.00628418 2.46826172 0.01269531 C8.24662566 0.12148085 13.13595038 0.7413853 18.375 3.3125 C19.13683594 3.67214844 19.89867187 4.03179687 20.68359375 4.40234375 C22.59925643 5.33527479 24.49019852 6.31869558 26.375 7.3125 C23.82797384 8.58601308 22.9467055 8.11441925 20.25 7.375 C19.52554688 7.18035156 18.80109375 6.98570312 18.0546875 6.78515625 C17.50039062 6.62917969 16.94609375 6.47320312 16.375 6.3125 C16.375 5.3225 16.375 4.3325 16.375 3.3125 C9.973406 2.49211409 3.76197499 2.18495487 -2.6875 2.25 C-3.9859082 2.25676758 -3.9859082 2.25676758 -5.31054688 2.26367188 C-7.41539539 2.27530087 -9.52020758 2.29322927 -11.625 2.3125 C-7.75538468 -0.26724355 -4.4889716 -0.03082711 0 0 Z " fill="#AA1433" transform="translate(222.625,143.6875)"/>
<path d="M0 0 C2.47035712 2.47035712 2.35042281 3.3960007 2.4375 6.8125 C2.3579759 10.7319022 2.11725039 11.82914944 -0.1875 15.1875 C-3 17 -3 17 -5.8125 16.8125 C-6.534375 16.544375 -7.25625 16.27625 -8 16 C-7 14 -7 14 -3.9375 12.875 C-2.4834375 12.441875 -2.4834375 12.441875 -1 12 C-1.01160156 11.21753906 -1.02320312 10.43507812 -1.03515625 9.62890625 C-1.04417969 8.61699219 -1.05320312 7.60507813 -1.0625 6.5625 C-1.07410156 5.55316406 -1.08570312 4.54382813 -1.09765625 3.50390625 C-1 1 -1 1 0 0 Z " fill="#EB9B0E" transform="translate(77,206)"/>
<path d="M0 0 C0.73605469 0.01353516 1.47210938 0.02707031 2.23046875 0.04101562 C4.02896743 0.07605131 5.82708422 0.12984712 7.625 0.1875 C3.96875 4.15625 3.96875 4.15625 0.875 4.4375 C0.1325 4.355 -0.61 4.2725 -1.375 4.1875 C-1.045 3.5275 -0.715 2.8675 -0.375 2.1875 C-1.096875 2.331875 -1.81875 2.47625 -2.5625 2.625 C-3.490625 2.810625 -4.41875 2.99625 -5.375 3.1875 C-6.6434375 3.496875 -6.6434375 3.496875 -7.9375 3.8125 C-10.45155067 4.19927703 -11.98512187 3.98412604 -14.375 3.1875 C-9.35513301 0.17082915 -5.66176196 -0.19964622 0 0 Z " fill="#D08804" transform="translate(220.375,125.8125)"/>
<path d="M0 0 C0.66 0.33 1.32 0.66 2 1 C1.38125 1.0825 0.7625 1.165 0.125 1.25 C-2.67505419 2.23825442 -2.74113932 3.40359985 -4 6 C-6.6205332 7.69066658 -7.82629722 8 -11 8 C-11.66 8.66 -12.32 9.32 -13 10 C-13 9.34 -13 8.68 -13 8 C-13.99 7.67 -14.98 7.34 -16 7 C-14.68 6.67 -13.36 6.34 -12 6 C-12 5.34 -12 4.68 -12 4 C-8 2.66666667 -4 1.33333333 0 0 Z " fill="#CF7F20" transform="translate(248,238)"/>
<path d="M0 0 C1.65 0.99 3.3 1.98 5 3 C4.7161296 5.54275398 4.42316578 8.08391554 4.125 10.625 C4.04636719 11.33785156 3.96773438 12.05070313 3.88671875 12.78515625 C3.37424854 17.08202185 2.53115573 20.921207 1 25 C0.34 25 -0.32 25 -1 25 C-0.67 24.113125 -0.34 23.22625 0 22.3125 C2.03958848 15.23903355 1.65363731 7.11725497 0 0 Z " fill="#CB7D36" transform="translate(97,151)"/>
<path d="M0 0 C0.33 0 0.66 0 1 0 C1 5.61 1 11.22 1 17 C2.65 17 4.3 17 6 17 C4.68 17.33 3.36 17.66 2 18 C2.15597656 18.60328125 2.31195313 19.2065625 2.47265625 19.828125 C2.76462891 21.02695313 2.76462891 21.02695313 3.0625 22.25 C3.25972656 23.03890625 3.45695312 23.8278125 3.66015625 24.640625 C4.01497267 27.10394822 3.76877544 28.65604132 3 31 C-0.51890979 24.56251935 -0.35468741 18.78585359 -0.1875 11.5625 C-0.17396484 10.44939453 -0.16042969 9.33628906 -0.14648438 8.18945312 C-0.11132997 5.45912788 -0.06212106 2.72982256 0 0 Z " fill="#CE944E" transform="translate(280,183)"/>
<path d="M0 0 C2.475 0.495 2.475 0.495 5 1 C5.33 2.98 5.66 4.96 6 7 C6.99 7 7.98 7 9 7 C9.33 8.32 9.66 9.64 10 11 C11.65 11.33 13.3 11.66 15 12 C15.33 12.99 15.66 13.98 16 15 C9.38634603 13.13990982 3.73376866 7.63543966 0 2 C0 1.34 0 0.68 0 0 Z " fill="#B30E26" transform="translate(185,217)"/>
<path d="M0 0 C1.25664978 2.90600261 2 4.79604584 2 8 C-0.35438733 9.42944945 -1.48032433 10.08661261 -4.25 9.625 C-4.8275 9.41875 -5.405 9.2125 -6 9 C-4.02 8.34 -2.04 7.68 0 7 C0 5.68 0 4.36 0 3 C-5.94 3.495 -5.94 3.495 -12 4 C-7.94410147 -0.05589853 -5.52514139 -0.12278092 0 0 Z " fill="#AF5F4C" transform="translate(203,105)"/>
<path d="M0 0 C-0.3125 1.9375 -0.3125 1.9375 -1 4 C-1.99 4.33 -2.98 4.66 -4 5 C-4.33 5.66 -4.66 6.32 -5 7 C-8.62561178 9.06000669 -11.87202695 10.39294514 -16 11 C-12.20918993 6.84233734 -5.90642573 0 0 0 Z " fill="#D78440" transform="translate(90,29)"/>
<path d="M0 0 C1.53760842 3.07521683 0.36599236 5.34675118 -0.4375 8.625 C-0.72496094 9.81351563 -1.01242187 11.00203125 -1.30859375 12.2265625 C-1.65083984 13.59941406 -1.65083984 13.59941406 -2 15 C-2.99 15 -3.98 15 -5 15 C-5.66 14.01 -6.32 13.02 -7 12 C-6.67 11.01 -6.34 10.02 -6 9 C-6 8.01 -6 7.02 -6 6 C-5.01 6 -4.02 6 -3 6 C-2.01 4.02 -1.02 2.04 0 0 Z " fill="#D48D10" transform="translate(283,164)"/>
<path d="M0 0 C0 0.33 0 0.66 0 1 C-1.10794922 1.03867188 -1.10794922 1.03867188 -2.23828125 1.078125 C-9.01352535 1.45691883 -14.55959843 2.62649789 -20.8203125 5.2578125 C-21.53960937 5.50273437 -22.25890625 5.74765625 -23 6 C-23.66 5.67 -24.32 5.34 -25 5 C-23.28077264 1.56154529 -19.75649733 0.99286896 -16.27734375 -0.24609375 C-10.78085224 -1.51048333 -5.52983515 -0.80881532 0 0 Z " fill="#E9971A" transform="translate(228,137)"/>
<path d="M0 0 C2.67550292 2.67550292 2.83209389 4.94879894 3.625 8.625 C4.01558594 10.40777344 4.01558594 10.40777344 4.4140625 12.2265625 C4.70410156 13.59941406 4.70410156 13.59941406 5 15 C5.66 15 6.32 15 7 15 C7.36552803 16.41377782 7.71695495 17.83120576 8.0625 19.25 C8.25972656 20.03890625 8.45695313 20.8278125 8.66015625 21.640625 C9.01847417 24.12825747 8.67152083 25.61334893 8 28 C6.84405132 24.64923484 5.70210028 21.29385699 4.5625 17.9375 C4.07426758 16.52307617 4.07426758 16.52307617 3.57617188 15.08007812 C1.87037165 10.03301972 0.52258875 5.30685192 0 0 Z " fill="#C66C5E" transform="translate(5,235)"/>
<path d="M0 0 C2.06132142 -0.10864945 4.12431321 -0.18588321 6.1875 -0.25 C7.33605469 -0.29640625 8.48460938 -0.3428125 9.66796875 -0.390625 C13.68579343 0.08039782 15.26530782 1.05221492 18 4 C18.59375 6.25390625 18.59375 6.25390625 18.5 8.5625 C18.4896875 9.32691406 18.479375 10.09132812 18.46875 10.87890625 C17.90678419 13.42180154 16.97297779 14.35760094 15 16 C15.09539062 15.22914063 15.19078125 14.45828125 15.2890625 13.6640625 C15.45535156 12.15972656 15.45535156 12.15972656 15.625 10.625 C15.74101563 9.62726563 15.85703125 8.62953125 15.9765625 7.6015625 C15.98816406 6.31378906 15.98816406 6.31378906 16 5 C13.18515955 2.18515955 10.7833753 2.37242958 6.875 1.875 C5.59367187 1.70742187 4.31234375 1.53984375 2.9921875 1.3671875 C1.51105469 1.18542969 1.51105469 1.18542969 0 1 C0 0.67 0 0.34 0 0 Z " fill="#B4722E" transform="translate(61,156)"/>
<path d="M0 0 C0.93423645 3.01031744 1.04449911 3.86650268 0 7 C-0.14995343 8.76889504 -0.27204761 10.54024818 -0.375 12.3125 C-0.75108029 16.96109902 -1.54943265 20.05778296 -4 24 C-5.43737319 20.12198641 -4.58506211 17.08107945 -3.6875 13.125 C-3.42324219 11.93132812 -3.15898438 10.73765625 -2.88671875 9.5078125 C-2.06870493 6.27179306 -1.10260806 3.14893307 0 0 Z " fill="#DB8B37" transform="translate(9,135)"/>
<path d="M0 0 C5.59554553 -0.29105568 9.77000574 0.62367726 14.9375 2.5 C15.62134766 2.73847656 16.30519531 2.97695312 17.00976562 3.22265625 C18.67658097 3.80545882 20.33880316 4.40137051 22 5 C22 5.33 22 5.66 22 6 C19.89521396 5.88590318 17.79115423 5.75834639 15.6875 5.625 C14.51574219 5.55539063 13.34398437 5.48578125 12.13671875 5.4140625 C9 5 9 5 6 3 C6 2.34 6 1.68 6 1 C4.02 1 2.04 1 0 1 C0 0.67 0 0.34 0 0 Z " fill="#AC6832" transform="translate(234,102)"/>
<path d="M0 0 C2.475 0.99 2.475 0.99 5 2 C4.01 2.495 4.01 2.495 3 3 C2.53101037 5.8159849 2.53101037 5.8159849 2.375 9.0625 C2.30023438 10.16722656 2.22546875 11.27195313 2.1484375 12.41015625 C2.09945313 13.26480469 2.05046875 14.11945313 2 15 C2.66 15.33 3.32 15.66 4 16 C2.68 16 1.36 16 0 16 C0 10.72 0 5.44 0 0 Z " fill="#E9D6BC" transform="translate(281,184)"/>
<path d="M0 0 C0.66 0.33 1.32 0.66 2 1 C1.69255859 1.73476562 1.69255859 1.73476562 1.37890625 2.484375 C-1.93162066 11.67148318 -1.74559867 21.34399374 -2 31 C-2.33 31 -2.66 31 -3 31 C-4.51708428 11.03189066 -4.51708428 11.03189066 -2 2 C-1.34 2 -0.68 2 0 2 C0 1.34 0 0.68 0 0 Z " fill="#E99320" transform="translate(173,170)"/>
<path d="M0 0 C2.84114155 5.47934441 4.2516558 9.5430378 4.125 15.8125 C4.10695313 16.97394531 4.08890625 18.13539063 4.0703125 19.33203125 C4.04710937 20.21246094 4.02390625 21.09289062 4 22 C3.67 22 3.34 22 3 22 C2.49311395 19.45953542 1.99433126 16.91791124 1.5 14.375 C1.35691406 13.66214844 1.21382813 12.94929687 1.06640625 12.21484375 C0.26950574 8.07855065 -0.16034056 4.23566321 0 0 Z " fill="#C35F72" transform="translate(1,213)"/>
<path d="M0 0 C0.66 0.33 1.32 0.66 2 1 C2.484375 4.08984375 2.484375 4.08984375 2.75 7.9375 C2.84796875 9.20464844 2.9459375 10.47179687 3.046875 11.77734375 C3 15 3 15 1 17 C0.01 16.67 -0.98 16.34 -2 16 C-1.34 16 -0.68 16 0 16 C0 10.72 0 5.44 0 0 Z " fill="#C5841A" transform="translate(366,144)"/>
<path d="M0 0 C0.66 0.33 1.32 0.66 2 1 C1.34 2.32 0.68 3.64 0 5 C-0.66 5 -1.32 5 -2 5 C-2 5.66 -2 6.32 -2 7 C-2.66 7 -3.32 7 -4 7 C-4.33 7.66 -4.66 8.32 -5 9 C-5.33 8.67 -5.66 8.34 -6 8 C-7.66617115 7.95936168 -9.33388095 7.957279 -11 8 C-7.76955928 5.23105081 -4.94366606 3.53364791 -1 2 C-0.67 1.34 -0.34 0.68 0 0 Z " fill="#9D0F35" transform="translate(252,189)"/>
<path d="M0 0 C1.1161656 3.71429898 1.3124195 7.39161508 1.5625 11.25 C1.64628906 12.51328125 1.73007813 13.7765625 1.81640625 15.078125 C1.87699219 16.04234375 1.93757812 17.0065625 2 18 C1.01 18 0.02 18 -1 18 C-1.02698422 15.56242587 -1.04683099 13.12515085 -1.0625 10.6875 C-1.07087891 9.99720703 -1.07925781 9.30691406 -1.08789062 8.59570312 C-1.10307906 5.4516975 -1.00193327 3.00579981 0 0 Z " fill="#D28C13" transform="translate(137,205)"/>
<path d="M0 0 C0.83583327 2.37607949 1.1842383 3.54449627 0.22265625 5.921875 C-0.8515625 7.61458333 -1.92578125 9.30729167 -3 11 C-3.66 11 -4.32 11 -5 11 C-5.33 12.65 -5.66 14.3 -6 16 C-6.66 16 -7.32 16 -8 16 C-6.42986223 10.03347646 -3.24970218 5.17090975 0 0 Z " fill="#DE9332" transform="translate(30,89)"/>
<path d="M0 0 C2.97 0.33 5.94 0.66 9 1 C9.33 2.32 9.66 3.64 10 5 C11.32 5.33 12.64 5.66 14 6 C13.67 6.99 13.34 7.98 13 9 C11.58235006 8.06398754 10.16592432 7.1261208 8.75 6.1875 C7.56664062 5.40439453 7.56664062 5.40439453 6.359375 4.60546875 C4.18907519 3.12865878 2.08586232 1.59310127 0 0 Z " fill="#E3922F" transform="translate(262,93)"/>
<path d="M0 0 C-0.33 0.99 -0.66 1.98 -1 3 C-1.99 3.33 -2.98 3.66 -4 4 C-5.00642948 5.32848691 -6.00692179 6.66150329 -7 8 C-7.66 8 -8.32 8 -9 8 C-9 7.01 -9 6.02 -9 5 C-9.66 4.67 -10.32 4.34 -11 4 C-9.5437455 3.32880451 -8.08492133 2.66318193 -6.625 2 C-5.81289062 1.62875 -5.00078125 1.2575 -4.1640625 0.875 C-2 0 -2 0 0 0 Z " fill="#E0950B" transform="translate(257,236)"/>
<path d="M0 0 C1.98 0 3.96 0 6 0 C6.33 0.99 6.66 1.98 7 3 C5 5 5 5 2.375 5.125 C1.59125 5.08375 0.8075 5.0425 0 5 C-0.33 4.01 -0.66 3.02 -1 2 C-0.67 1.34 -0.34 0.68 0 0 Z " fill="#D49003" transform="translate(250,109)"/>
<path d="M0 0 C6.6 0.33 13.2 0.66 20 1 C20 1.33 20 1.66 20 2 C19.00097656 2.04898438 18.00195312 2.09796875 16.97265625 2.1484375 C15.68230469 2.22320312 14.39195312 2.29796875 13.0625 2.375 C11.77472656 2.44460937 10.48695312 2.51421875 9.16015625 2.5859375 C8.11730469 2.72257813 7.07445313 2.85921875 6 3 C5.67 3.66 5.34 4.32 5 5 C3.35 3.35 1.7 1.7 0 0 Z " fill="#D38E11" transform="translate(116,241)"/>
<path d="M0 0 C0.99 0.66 1.98 1.32 3 2 C0.19842552 2.93385816 -1.65447803 3.16354595 -4.5625 3.1875 C-5.74005859 3.20876953 -5.74005859 3.20876953 -6.94140625 3.23046875 C-9 3 -9 3 -11 1 C-6.89479526 -0.62298792 -4.25435455 -1.37979067 0 0 Z " fill="#BD0A22" transform="translate(221,235)"/>
<path d="M0 0 C0.66 0.33 1.32 0.66 2 1 C0.92492371 2.29854721 -0.16043736 3.58858361 -1.25 4.875 C-1.85328125 5.59429687 -2.4565625 6.31359375 -3.078125 7.0546875 C-4.97087634 8.97052118 -6.53657727 9.96449045 -9 11 C-7.44095325 7.17324889 -4.96833913 4.81992217 -2 2 C-1.34 1.34 -0.68 0.68 0 0 Z " fill="#AC458F" transform="translate(297,147)"/>
<path d="M0 0 C0.66 0.66 1.32 1.32 2 2 C1 4.875 1 4.875 -1 8 C-3.68906013 9.14563509 -6.08196704 9.52163394 -9 10 C-7.6875 8 -7.6875 8 -6 6 C-5.01 6 -4.02 6 -3 6 C-2.690625 5.38125 -2.38125 4.7625 -2.0625 4.125 C-1.375 2.75 -0.6875 1.375 0 0 Z " fill="#E09605" transform="translate(282,108)"/>
<path d="M0 0 C2.31 0 4.62 0 7 0 C7 0.99 7 1.98 7 3 C5.35 3.33 3.7 3.66 2 4 C2.33 4.99 2.66 5.98 3 7 C2.34 7 1.68 7 1 7 C0.67 4.69 0.34 2.38 0 0 Z " fill="#B2711C" transform="translate(233,103)"/>
<path d="M0 0 C0.33 0 0.66 0 1 0 C1.05447047 1.41623216 1.09300508 2.83308191 1.125 4.25 C1.14820313 5.03890625 1.17140625 5.8278125 1.1953125 6.640625 C0.9828378 9.20731941 0.28654105 10.7916067 -1 13 C-1.99 13 -2.98 13 -4 13 C-3.79503906 12.39671875 -3.59007812 11.7934375 -3.37890625 11.171875 C-2.97478516 9.97304687 -2.97478516 9.97304687 -2.5625 8.75 C-2.29566406 7.96109375 -2.02882813 7.1721875 -1.75390625 6.359375 C-1.08045292 4.25178012 -0.50849405 2.15246027 0 0 Z " fill="#D07D2E" transform="translate(275,203)"/>
<path d="M0 0 C2 0 2 0 3.54296875 1.42578125 C4.08566406 2.04839844 4.62835938 2.67101562 5.1875 3.3125 C5.73792969 3.92738281 6.28835938 4.54226562 6.85546875 5.17578125 C7.42201172 6.07876953 7.42201172 6.07876953 8 7 C7.67 7.99 7.34 8.98 7 10 C3.45418941 8.1337839 1.3289144 6.8659328 0 3 C0 2.01 0 1.02 0 0 Z " fill="#CE850F" transform="translate(271,165)"/>
<path d="M0 0 C0.66 0 1.32 0 2 0 C2.33 0.66 2.66 1.32 3 2 C3.99 2.33 4.98 2.66 6 3 C7.0625 4.9375 7.0625 4.9375 8 7 C8.66 7.66 9.32 8.32 10 9 C9.67 9.99 9.34 10.98 9 12 C7.49405319 10.38050958 5.99539332 8.75424026 4.5 7.125 C3.6646875 6.22007812 2.829375 5.31515625 1.96875 4.3828125 C0 2 0 2 0 0 Z " fill="#E79E0E" transform="translate(136,139)"/>
<path d="M0 0 C3.3 1.65 6.6 3.3 10 5 C9.01 5.33 8.02 5.66 7 6 C7 6.66 7 7.32 7 8 C6.01 8 5.02 8 4 8 C4 6.68 4 5.36 4 4 C3.01 4 2.02 4 1 4 C0.67 2.68 0.34 1.36 0 0 Z " fill="#E99B1B" transform="translate(297,232)"/>
<path d="M0 0 C3.04854904 2.48741501 3.60648591 4.61274286 4.25 8.4375 C4.50523438 9.85869141 4.50523438 9.85869141 4.765625 11.30859375 C4.98916046 13.87552599 4.80225346 15.57604847 4 18 C3.32451422 15.94037148 2.65995688 13.87715678 2 11.8125 C1.62875 10.66394531 1.2575 9.51539063 0.875 8.33203125 C0.09369447 5.35679188 -0.18363306 3.04716104 0 0 Z " fill="#E89A21" transform="translate(5,230)"/>
<path d="M0 0 C0.66 0.33 1.32 0.66 2 1 C0.88200014 2.33920838 -0.24461897 3.67122556 -1.375 5 C-2.00148437 5.7425 -2.62796875 6.485 -3.2734375 7.25 C-4.12808594 8.11625 -4.12808594 8.11625 -5 9 C-5.66 9 -6.32 9 -7 9 C-7 9.66 -7 10.32 -7 11 C-7.66 10.67 -8.32 10.34 -9 10 C-7.8758824 8.70756532 -6.75067408 7.41607925 -5.625 6.125 C-4.99851563 5.40570313 -4.37203125 4.68640625 -3.7265625 3.9453125 C-2.52573166 2.5923402 -1.2791655 1.2791655 0 0 Z " fill="#AB418F" transform="translate(190,150)"/>
<path d="M0 0 C1.32 0 2.64 0 4 0 C6.125 6.5 6.125 6.5 5 11 C3.35 7.37 1.7 3.74 0 0 Z " fill="#E79526" transform="translate(19,275)"/>
<path d="M0 0 C4.95476478 4.79493366 4.95476478 4.79493366 5.09765625 8.6015625 C5.08605469 9.59929687 5.07445313 10.59703125 5.0625 11.625 C5.05347656 12.62789062 5.04445313 13.63078125 5.03515625 14.6640625 C5.02355469 15.43492187 5.01195313 16.20578125 5 17 C4.67 17 4.34 17 4 17 C3.96261719 16.39671875 3.92523438 15.7934375 3.88671875 15.171875 C3.49933456 10.46249855 3.13475784 7.67993312 0 4 C0 2.68 0 1.36 0 0 Z " fill="#CB7B40" transform="translate(75,200)"/>
<path d="M0 0 C0.66 0.33 1.32 0.66 2 1 C2.625 3.5625 2.625 3.5625 3 6 C1.68 6 0.36 6 -1 6 C-1 7.65 -1 9.3 -1 11 C-1.33 11 -1.66 11 -2 11 C-2 7.7 -2 4.4 -2 1 C-1.34 0.67 -0.68 0.34 0 0 Z " fill="#A46F06" transform="translate(304,176)"/>
<path d="M0 0 C4.29 0 8.58 0 13 0 C11 2 11 2 7.6875 2.0625 C5.8621875 2.0315625 5.8621875 2.0315625 4 2 C2.32442621 2.28520405 0.65182755 2.59955696 -1 3 C-0.67 2.01 -0.34 1.02 0 0 Z " fill="#CA840E" transform="translate(218,245)"/>
<path d="M0 0 C0.33 0.99 0.66 1.98 1 3 C-1.77079887 6.80984844 -5.62868145 7.06840752 -10 8 C-7.92141021 5.81907964 -5.78143382 4.03609531 -3.3125 2.3125 C-2.68988281 1.87550781 -2.06726563 1.43851563 -1.42578125 0.98828125 C-0.95527344 0.66214844 -0.48476563 0.33601562 0 0 Z " fill="#D17F2B" transform="translate(260,230)"/>
<path d="M0 0 C5.73842251 -0.20413361 10.60539047 -0.27141454 16 2 C16 2.33 16 2.66 16 3 C15.24074219 2.91621094 14.48148437 2.83242187 13.69921875 2.74609375 C12.70535156 2.64425781 11.71148437 2.54242188 10.6875 2.4375 C9.70136719 2.33308594 8.71523438 2.22867188 7.69921875 2.12109375 C4.90069653 1.83397473 4.90069653 1.83397473 2 3 C1.34 2.01 0.68 1.02 0 0 Z " fill="#C68112" transform="translate(345,157)"/>
<path d="M0 0 C0.6875 2.125 0.6875 2.125 1 4 C0.484375 3.71125 -0.03125 3.4225 -0.5625 3.125 C-3.62356725 1.71219973 -6.74944918 0.8751483 -10 0 C-10 -0.33 -10 -0.66 -10 -1 C-3.375 -2.25 -3.375 -2.25 0 0 Z " fill="#E89C1D" transform="translate(366,140)"/>
<path d="M0 0 C2.69254991 0.70670728 2.69254991 0.70670728 5 1 C5 1.66 5 2.32 5 3 C2.87308203 2.55065113 0.74849961 2.09023527 -1.375 1.625 C-2.55835938 1.36976562 -3.74171875 1.11453125 -4.9609375 0.8515625 C-8 0 -8 0 -10 -2 C-5.47637005 -3.42171227 -3.87248908 -2.5171179 0 0 Z " fill="#E3942D" transform="translate(251,87)"/>
<path d="M0 0 C-2.97689695 2.97689695 -6.85995067 4.33225011 -11 5 C-12.34040982 4.69637126 -13.67533821 4.36627862 -15 4 C-12.87875034 3.13656176 -10.75286928 2.28449352 -8.625 1.4375 C-6.84996094 0.72400391 -6.84996094 0.72400391 -5.0390625 -0.00390625 C-2 -1 -2 -1 0 0 Z " fill="#E99E20" transform="translate(129,11)"/>
<path d="M0 0 C2.31 0 4.62 0 7 0 C6.01 0.495 6.01 0.495 5 1 C5.7734375 2.175625 5.7734375 2.175625 6.5625 3.375 C7.036875 4.24125 7.51125 5.1075 8 6 C7.67 6.66 7.34 7.32 7 8 C1.125 3.375 1.125 3.375 0 0 Z " fill="#E49802" transform="translate(202,244)"/>
<path d="M0 0 C1.0625 1.8125 1.0625 1.8125 2 4 C1 7 1 7 -2.0625 8.6875 C-3.031875 9.120625 -4.00125 9.55375 -5 10 C-3.66511872 6.40608886 -2.03977277 3.24509304 0 0 Z " fill="#CC7F2C" transform="translate(270,216)"/>
<path d="M0 0 C0.66 0 1.32 0 2 0 C3.99785435 4.1205746 4.17835515 7.45194365 4 12 C1.57869669 9.57869669 1.47159496 8.19888623 0.875 4.875 C0.70742187 3.96492188 0.53984375 3.05484375 0.3671875 2.1171875 C0.24601563 1.41851562 0.12484375 0.71984375 0 0 Z " fill="#E38E2F" transform="translate(13,258)"/>
<path d="M0 0 C0.66 0 1.32 0 2 0 C1.8125 2.3125 1.8125 2.3125 1 5 C-1.3125 6.6875 -1.3125 6.6875 -4 8 C-4.763125 8.391875 -5.52625 8.78375 -6.3125 9.1875 C-6.869375 9.455625 -7.42625 9.72375 -8 10 C-3.25 4.125 -3.25 4.125 -1 3 C-0.67 2.01 -0.34 1.02 0 0 Z " fill="#D7862E" transform="translate(265,124)"/>
<path d="M0 0 C0.33 0.66 0.66 1.32 1 2 C1.66 2.33 2.32 2.66 3 3 C1.54263913 3.19491452 0.08405407 3.38069358 -1.375 3.5625 C-2.18710938 3.66691406 -2.99921875 3.77132812 -3.8359375 3.87890625 C-6 4 -6 4 -8 3 C-5.4345406 0.4345406 -3.52313332 0.45953913 0 0 Z " fill="#E29808" transform="translate(189,114)"/>
<path d="M0 0 C0.66 0.33 1.32 0.66 2 1 C-3.96583144 8.66742597 -3.96583144 8.66742597 -9 10 C-8.06409496 8.8944811 -7.12620142 7.79064547 -6.1875 6.6875 C-5.66542969 6.07261719 -5.14335938 5.45773438 -4.60546875 4.82421875 C-3.12827531 3.14575321 -1.59960869 1.56117966 0 0 Z " fill="#EC9F1C" transform="translate(67,46)"/>
<path d="M0 0 C0 1.98 0 3.96 0 6 C-1.32 6.33 -2.64 6.66 -4 7 C-4 5.02 -4 3.04 -4 1 C-2 0 -2 0 0 0 Z " fill="#DF9309" transform="translate(280,201)"/>
<path d="M0 0 C0.33 0 0.66 0 1 0 C1.33 3.3 1.66 6.6 2 10 C1.01 10.33 0.02 10.66 -1 11 C-1.14285714 3.57142857 -1.14285714 3.57142857 0 0 Z " fill="#CD8B16" transform="translate(278,191)"/>
<path d="M0 0 C0.66 0.33 1.32 0.66 2 1 C1.608125 1.7425 1.21625 2.485 0.8125 3.25 C0.4103125 4.61125 0.4103125 4.61125 0 6 C1.26352052 8.32511472 1.26352052 8.32511472 3 10 C0.53199953 8.84826645 -1.04783565 7.95216435 -3 6 C-2.63318342 3.06546739 -2.13562754 2.13562754 0 0 Z " fill="#B5527E" transform="translate(169,103)"/>
<path d="M0 0 C1 2 1 2 0.3125 4.5 C-1.15567038 7.29651501 -2.09303901 7.93411431 -5 9 C-3.7508258 5.54074837 -2.32472205 2.85306797 0 0 Z " fill="#E79726" transform="translate(38,78)"/>
<path d="M0 0 C2.64 0 5.28 0 8 0 C3.5 4 3.5 4 -1 4 C-0.67 2.68 -0.34 1.36 0 0 Z " fill="#9E6027" transform="translate(321,156)"/>
<path d="M0 0 C1.485 0.99 1.485 0.99 3 2 C2.67 4.31 2.34 6.62 2 9 C1.34 8.67 0.68 8.34 0 8 C0 5.36 0 2.72 0 0 Z " fill="#DD8F04" transform="translate(368,146)"/>
<path d="M0 0 C-4.455 2.97 -4.455 2.97 -9 6 C-9 5.01 -9 4.02 -9 3 C-8.34 3 -7.68 3 -7 3 C-6.67 2.01 -6.34 1.02 -6 0 C-3 -1 -3 -1 0 0 Z " fill="#EF9D21" transform="translate(196,147)"/>
<path d="M0 0 C0.99 0 1.98 0 3 0 C2.67 0.99 2.34 1.98 2 3 C1.34 3 0.68 3 0 3 C-0.33 4.32 -0.66 5.64 -1 7 C-1.99 5.68 -2.98 4.36 -4 3 C-3.01 3 -2.02 3 -1 3 C-0.67 2.01 -0.34 1.02 0 0 Z " fill="#EA9719" transform="translate(98,190)"/>
<path d="M0 0 C1.32 0 2.64 0 4 0 C4 0.66 4 1.32 4 2 C5.65 2.33 7.3 2.66 9 3 C9.33 3.99 9.66 4.98 10 6 C6.40992874 4.66654496 3.20429093 3.1056769 0 1 C0 0.67 0 0.34 0 0 Z " fill="#B20F36" transform="translate(211,167)"/>
<path d="M0 0 C1.32 0.33 2.64 0.66 4 1 C2.02 3.31 0.04 5.62 -2 8 C-2.33 7.01 -2.66 6.02 -3 5 C-2.67 4.34 -2.34 3.68 -2 3 C-1.34 3 -0.68 3 0 3 C0 2.01 0 1.02 0 0 Z " fill="#EEA01E" transform="translate(182,154)"/>
<path d="M0 0 C0.515625 0.2475 1.03125 0.495 1.5625 0.75 C-4.8375 4.81153846 -4.8375 4.81153846 -7.875 4.5 C-8.390625 4.2525 -8.90625 4.005 -9.4375 3.75 C-3.0375 -0.31153846 -3.0375 -0.31153846 0 0 Z " fill="#B66D39" transform="translate(210.4375,126.25)"/>
<path d="M0 0 C1.134375 0.020625 2.26875 0.04125 3.4375 0.0625 C3.4375 1.0525 3.4375 2.0425 3.4375 3.0625 C1.1275 3.3925 -1.1825 3.7225 -3.5625 4.0625 C-3.8925 3.0725 -4.2225 2.0825 -4.5625 1.0625 C-3.5625 0.0625 -3.5625 0.0625 0 0 Z " fill="#D18A03" transform="translate(198.5625,108.9375)"/>
<path d="M0 0 C2.6855594 2.6855594 3.06049974 5.37621328 4 9 C2.35 8.67 0.7 8.34 -1 8 C-0.67 5.36 -0.34 2.72 0 0 Z " fill="#E48A30" transform="translate(172,206)"/>
<path d="M0 0 C0.66 0.33 1.32 0.66 2 1 C1.67 1.66 1.34 2.32 1 3 C0.34 3 -0.32 3 -1 3 C-1 3.99 -1 4.98 -1 6 C-2.32 5.67 -3.64 5.34 -5 5 C-5 4.34 -5 3.68 -5 3 C-2.625 1.3125 -2.625 1.3125 0 0 Z " fill="#CB7F3E" transform="translate(88,183)"/>
<path d="M0 0 C0 3.15081975 -0.27898465 4.41847698 -2 7 C-4.125 7.75 -4.125 7.75 -6 8 C-4.55746343 4.63408134 -2.66735273 2.48952921 0 0 Z " fill="#B40F24" transform="translate(192,156)"/>
<path d="M0 0 C-2.85306797 2.32472205 -5.54074837 3.7508258 -9 5 C-9 4.01 -9 3.02 -9 2 C-5.86501708 0.14223235 -3.62528568 -0.20140476 0 0 Z " fill="#CF8D17" transform="translate(201,112)"/>
<path d="M0 0 C4.67692308 1.47692308 4.67692308 1.47692308 6.3125 4.125 C6.539375 4.74375 6.76625 5.3625 7 6 C4.625 5.8125 4.625 5.8125 2 5 C0.6875 2.4375 0.6875 2.4375 0 0 Z " fill="#F0A40C" transform="translate(23,242)"/>
<path d="M0 0 C0.99 0.33 1.98 0.66 3 1 C3 1.66 3 2.32 3 3 C3.66 3 4.32 3 5 3 C5.33 3.99 5.66 4.98 6 6 C3.83125748 5.49396008 2.00032373 5.00016187 0 4 C0 2.68 0 1.36 0 0 Z " fill="#ED9D0E" transform="translate(196,238)"/>
<path d="M0 0 C0.66 0.33 1.32 0.66 2 1 C2 3.64 2 6.28 2 9 C1.01 8.67 0.02 8.34 -1 8 C-1.125 2.25 -1.125 2.25 0 0 Z " fill="#BF851F" transform="translate(278,187)"/>
<path d="M0 0 C0.33 0.66 0.66 1.32 1 2 C0.06421005 4.35981813 -0.93347808 6.69631264 -2 9 C-3.32 8.34 -4.64 7.68 -6 7 C-5.01 6.67 -4.02 6.34 -3 6 C-1.29144978 2.99992729 -1.29144978 2.99992729 0 0 Z " fill="#E89D1A" transform="translate(283,164)"/>
<path d="M0 0 C2 2 2 2 2.125 4.625 C2.08375 5.40875 2.0425 6.1925 2 7 C0.02 5.68 -1.96 4.36 -4 3 C-3.34 2.67 -2.68 2.34 -2 2 C-1.34 2.33 -0.68 2.66 0 3 C0 2.01 0 1.02 0 0 Z " fill="#E18F29" transform="translate(263,117)"/>
<path d="M0 0 C0.33 1.32 0.66 2.64 1 4 C0.01 4 -0.98 4 -2 4 C-2.28875 4.639375 -2.5775 5.27875 -2.875 5.9375 C-4 8 -4 8 -6 9 C-4.47291037 5.56404834 -2.40072955 2.88087546 0 0 Z " fill="#E1952C" transform="translate(45,69)"/>
<path d="M0 0 C1.32 0.33 2.64 0.66 4 1 C4 1.66 4 2.32 4 3 C4.99 3 5.98 3 7 3 C7 3.99 7 4.98 7 6 C3.63279613 4.60667426 2.0140476 3.0210714 0 0 Z " fill="#F5AA0B" transform="translate(60,330)"/>
<path d="M0 0 C1.65 0 3.3 0 5 0 C5 0.66 5 1.32 5 2 C6.32 2.66 7.64 3.32 9 4 C3.46153846 3.38461538 3.46153846 3.38461538 1.125 1.4375 C0.75375 0.963125 0.3825 0.48875 0 0 Z " fill="#AF102B" transform="translate(201,232)"/>
<path d="M0 0 C0 0.66 0 1.32 0 2 C-0.66 2 -1.32 2 -2 2 C-2.33 2.66 -2.66 3.32 -3 4 C-3.33 3.67 -3.66 3.34 -4 3 C-5.66617115 2.95936168 -7.33388095 2.957279 -9 3 C-6.15236477 0.15236477 -3.96383452 0 0 0 Z " fill="#A30A21" transform="translate(250,194)"/>
<path d="M0 0 C0.99 0.33 1.98 0.66 3 1 C0.6875 3.0625 0.6875 3.0625 -2 5 C-2.99 4.67 -3.98 4.34 -5 4 C-2.6875 1.9375 -2.6875 1.9375 0 0 Z " fill="#C5851C" transform="translate(73,173)"/>
<path d="M0 0 C1.32 0.66 2.64 1.32 4 2 C1.36 3.65 -1.28 5.3 -4 7 C-3.67 5.68 -3.34 4.36 -3 3 C-2.01 3 -1.02 3 0 3 C0 2.01 0 1.02 0 0 Z " fill="#E99E1E" transform="translate(298,143)"/>
<path d="M0 0 C3.26460973 1.80412643 4.88929795 2.83394693 7 6 C6.01 6 5.02 6 4 6 C4 5.34 4 4.68 4 4 C2.68 3.67 1.36 3.34 0 3 C0 2.01 0 1.02 0 0 Z " fill="#D49216" transform="translate(261,112)"/>
<path d="M0 0 C0.99 0.33 1.98 0.66 3 1 C0.03 3.475 0.03 3.475 -3 6 C-3.66 5.67 -4.32 5.34 -5 5 C-3.35 3.35 -1.7 1.7 0 0 Z " fill="#F0A01A" transform="translate(74,40)"/>
</svg>
