<?xml version="1.0" encoding="UTF-8"?>
<svg version="1.1" xmlns="http://www.w3.org/2000/svg" width="225" height="225">
<path d="M0 0 C74.25 0 148.5 0 225 0 C225 74.25 225 148.5 225 225 C150.75 225 76.5 225 0 225 C0 150.75 0 76.5 0 0 Z " fill="#FEFEFE" transform="translate(0,0)"/>
<path d="M0 0 C4.70588235 0.70588235 4.70588235 0.70588235 6 2 C6.52191841 4.98992619 6.62388565 7.08422836 4.87036133 9.65814209 C3.1988047 11.49620195 1.45645888 13.2173627 -0.34375 14.9296875 C-0.9874353 15.56488312 -1.63112061 16.20007874 -2.29431152 16.85452271 C-4.34920303 18.87588415 -6.42397778 20.87536924 -8.5 22.875 C-9.89849904 24.24339943 -11.29565171 25.61317631 -12.69140625 26.984375 C-16.11219853 30.3390878 -19.5509726 33.67433289 -23 37 C-22.03505615 37.68562012 -21.0701123 38.37124023 -20.07592773 39.07763672 C-18.79927684 39.98659808 -17.52266771 40.8956181 -16.24609375 41.8046875 C-15.61135132 42.25545654 -14.97660889 42.70622559 -14.32263184 43.1706543 C-7.56851145 47.98403654 -1.85454687 52.92003162 3.51953125 59.265625 C5.03731592 61.08980537 5.03731592 61.08980537 7 63 C6.43181818 68.56818182 6.43181818 68.56818182 5 70 C2.875 70.49609375 2.875 70.49609375 0 70 C-2.60355086 67.94835758 -4.76469083 65.50207118 -7 63.0625 C-13.2564451 56.53242239 -19.7436047 49.95571028 -28 46 C-30.78549097 46.16453129 -30.78549097 46.16453129 -33 47 C-33 47.66 -33 48.32 -33 49 C-31.14524869 50.21120421 -29.23765357 51.34164335 -27.3125 52.4375 C-16.71090178 58.71296454 -5.62936526 66.74126949 0 78 C0.46870678 84.92807206 -2.01472602 89.1035798 -6.30859375 94.34765625 C-8 96 -8 96 -10 96 C-10 96.66 -10 97.32 -10 98 C-28.72693394 115.38093556 -52.39737131 123.84279107 -77.89453125 123.265625 C-83.49512716 123.00206755 -88.90433791 121.91381991 -94.37890625 120.75390625 C-95.57386719 120.50511719 -96.76882812 120.25632812 -98 120 C-99.55134644 119.45581421 -99.55134644 119.45581421 -101.1340332 118.90063477 C-106.5215376 119.03910741 -108.23913231 121.37356861 -111.91592407 125.1121521 C-112.76093475 126.01100128 -113.60594543 126.90985046 -114.4765625 127.8359375 C-115.36483734 128.74501862 -116.25311218 129.65409973 -117.16830444 130.59072876 C-119.52527781 133.00691333 -121.86452771 135.43773535 -124.19525146 137.87908936 C-127.4801088 141.3159546 -130.78580202 144.73231829 -134.1031189 148.1378479 C-135.86728265 149.95104014 -137.62064351 151.77481849 -139.36196899 153.60995483 C-140.15984833 154.43395782 -140.95772766 155.25796082 -141.77978516 156.10693359 C-142.47592926 156.83608978 -143.17207336 157.56524597 -143.88931274 158.3164978 C-146.31225528 160.24905748 -147.92973755 160.75686175 -151 161 C-152.875 159.875 -152.875 159.875 -154 158 C-153.42409525 151.24723449 -148.13278411 146.81370424 -143.3125 142.484375 C-141.88548385 141.31005962 -140.44310634 140.15448508 -139 139 C-136.31279024 136.44387364 -133.90251536 133.8800189 -131.5625 131 C-128.93248768 127.92096119 -126.1374966 125.54921599 -123 123 C-121.31384218 121.35305515 -119.64429829 119.68873879 -118 118 C-117.401875 117.443125 -116.80375 116.88625 -116.1875 116.3125 C-114.77636223 115.04781729 -114.77636223 115.04781729 -115 113 C-116.91531378 111.68259203 -116.91531378 111.68259203 -119.375 110.375 C-128.57630769 105.02056671 -141.96427807 96.34153746 -146 86 C-146.65206204 81.57588287 -146.53356622 78.13989148 -144.625 74.0625 C-143.78970914 73.00892756 -142.90617582 71.99326285 -142 71 C-141.32839844 70.24976562 -140.65679687 69.49953125 -139.96484375 68.7265625 C-123.38121018 51.19914491 -100.46832965 40.49133718 -76.27661133 39.71777344 C-67.22241495 39.58252222 -58.83495469 41.10959395 -50 43 C-48.00198459 43.34502975 -46.00260068 43.68266482 -44 44 C-43.34 42.68 -42.68 41.36 -42 40 C-70.38193054 31.87429391 -94.99860492 33.66721065 -121.0234375 47.62109375 C-129.55537857 52.71825625 -137.48502112 59.53364511 -143.68359375 67.30859375 C-146 70 -146 70 -148.6875 70.5 C-151 70 -151 70 -153 68 C-153.03877515 63.47992519 -152.17149713 60.79119417 -149.19140625 57.5 C-147.99965326 56.31507225 -146.78897303 55.14895294 -145.5625 54 C-144.9243335 53.38624512 -144.28616699 52.77249023 -143.62866211 52.14013672 C-124.06560584 33.64245629 -99.56175395 24.59164463 -72.8125 24.625 C-71.5339917 24.62588623 -70.2554834 24.62677246 -68.93823242 24.62768555 C-59.31956179 24.74801819 -51.09639081 25.90877828 -42 29 C-40.00124359 29.5875803 -38.00138944 30.17145174 -36 30.75 C-34.66542283 31.16266531 -33.33149811 31.57750541 -32 32 C-31.47212891 31.34644531 -31.47212891 31.34644531 -30.93359375 30.6796875 C-27.76548245 26.85810154 -24.47547877 23.56809006 -20.66015625 20.3984375 C-17.31873332 17.58378006 -14.42279973 14.5256429 -11.6875 11.125 C-8.55821349 7.27587762 -4.77065434 4.19800824 -1 1 C-0.67 0.67 -0.34 0.34 0 0 Z " fill="#1B3C79" transform="translate(186,32)"/>
<path d="M0 0 C-0.75023437 0.55171875 -1.50046875 1.1034375 -2.2734375 1.671875 C-8.18845847 6.72252328 -13.58285108 15.22483162 -15 23 C-16.15559801 31.85693005 -16.15559801 31.85693005 -13.58203125 39.71875 C-12.79892578 40.35296875 -12.79892578 40.35296875 -12 41 C-10.81439002 43.27851795 -9.9485712 45.60598697 -9 48 C-6.69 47.01 -4.38 46.02 -2 45 C-2.61875 45.185625 -3.2375 45.37125 -3.875 45.5625 C-6 46 -6 46 -8 45 C-8.33 44.01 -8.66 43.02 -9 42 C-9.99 41.505 -9.99 41.505 -11 41 C-11 37.04 -11 33.08 -11 29 C-10.67 29 -10.34 29 -10 29 C-9.85304687 28.3709375 -9.70609375 27.741875 -9.5546875 27.09375 C-7.38460496 18.81251549 -4.13106537 12.77113581 3.1875 8.0625 C7.78024299 5.39019392 11.50301828 4.8178528 16.8125 4.75 C18.01519531 4.72421875 19.21789062 4.6984375 20.45703125 4.671875 C24.28988045 5.0268467 26.69715027 6.07797413 30 8 C28.79618552 10.49361571 27.54571278 12.68143083 26 15 C26.99 16.485 26.99 16.485 28 18 C29.32 17.67 30.64 17.34 32 17 C32 17.66 32 18.32 32 19 C31.01 19 30.02 19 29 19 C28.67 20.32 28.34 21.64 28 23 C28.721875 22.4225 29.44375 21.845 30.1875 21.25 C32.79166667 19.16666667 35.39583333 17.08333333 38 15 C42.55044799 21.45870038 43.68878382 26.19795778 43 34 C41.54209542 40.87625859 38.70946645 47.19793728 33.00390625 51.5078125 C27.36316132 55.13030925 22.89360914 56.20136095 16.1875 56.25 C15.48818359 56.270625 14.78886719 56.29125 14.06835938 56.3125 C9.27693023 56.34835728 6.10147764 55.44672136 2 53 C2 53.99 2 54.98 2 56 C0.35 55.34 -1.3 54.68 -3 54 C-3 54.66 -3 55.32 -3 56 C-2.01 56.33 -1.02 56.66 0 57 C0 58.32 0 59.64 0 61 C0.66 61 1.32 61 2 61 C1.67 61.99 1.34 62.98 1 64 C-1.64 64 -4.28 64 -7 64 C-8.34110539 61.79112053 -9.06609767 60.54530581 -8.75 57.9375 C-8 56 -8 56 -6 53 C-6.928125 53.2475 -6.928125 53.2475 -7.875 53.5 C-10 54 -10 54 -12 54 C-13.37310707 55.29233607 -14.71034824 56.62437146 -16 58 C-18.97 57.01 -21.94 56.02 -25 55 C-25 54.34 -25 53.68 -25 53 C-29.32564205 51.41744803 -33.428721 50.54855348 -38 50 C-38 49.34 -38 48.68 -38 48 C-39.11375 47.566875 -39.11375 47.566875 -40.25 47.125 C-42.56739797 46.17697356 -44.77917115 45.15154089 -47 44 C-47 43.34 -47 42.68 -47 42 C-47.66 42 -48.32 42 -49 42 C-49.67595315 40.58774074 -50.34040059 39.16997095 -51 37.75 C-51.37125 36.96109375 -51.7425 36.1721875 -52.125 35.359375 C-53 33 -53 33 -53 29 C-52.175 28.67 -51.35 28.34 -50.5 28 C-47.57534982 26.54785351 -45.66519727 24.74931854 -43.4375 22.375 C-36.01756805 14.71662033 -27.0766998 9.33235223 -17.625 4.5625 C-16.97144531 4.2325 -16.31789062 3.9025 -15.64453125 3.5625 C-4.94169404 -1.64723135 -4.94169404 -1.64723135 0 0 Z " fill="#153E7C" transform="translate(96,83)"/>
<path d="M0 0 C-1 3 -1 3 -3 4 C-1.02 4.66 0.96 5.32 3 6 C3 6.66 3 7.32 3 8 C5.97 8.495 5.97 8.495 9 9 C9.33 8.34 9.66 7.68 10 7 C11 10 11 10 10.375 12.0625 C9 14 9 14 6.5 14.875 C3.66178062 15.81055406 3.66178062 15.81055406 2.6875 19.125 C2.460625 20.07375 2.23375 21.0225 2 22 C1.773125 21.38125 1.54625 20.7625 1.3125 20.125 C-0.44267821 17.2832829 -1.83424296 16.99856524 -5 16 C-13.87222827 14.97086485 -21.74403202 15.4513186 -29 21 C-34.72068318 26.91137261 -37.06673348 32.72459627 -37.75390625 40.81640625 C-37.99515102 42.9569749 -38.43426694 44.92419486 -39 47 C-39.2784375 48.11375 -39.2784375 48.11375 -39.5625 49.25 C-39.706875 49.8275 -39.85125 50.405 -40 51 C-39.01 51.33 -38.02 51.66 -37 52 C-37 52.99 -37 53.98 -37 55 C-33.39007621 54.34414811 -33.39007621 54.34414811 -30 53 C-30.625 54.875 -30.625 54.875 -32 57 C-35.125 58.25 -35.125 58.25 -38 59 C-38.67154933 57.71086513 -39.33708859 56.41859796 -40 55.125 C-40.37125 54.40570313 -40.7425 53.68640625 -41.125 52.9453125 C-42 51 -42 51 -42 49 C-42.99 48.67 -43.98 48.34 -45 48 C-45.72114899 32.97606266 -42.85592921 23.65711545 -33 12 C-32.01 11.34 -31.02 10.68 -30 10 C-47.34125776 13.52703548 -63.85258485 23.34333848 -75.4375 36.72265625 C-77.50969038 38.41667188 -79.3853517 38.64225251 -82 39 C-81.71125 39.68707031 -81.4225 40.37414062 -81.125 41.08203125 C-80.568125 42.43361328 -80.568125 42.43361328 -80 43.8125 C-79.62875 44.70582031 -79.2575 45.59914062 -78.875 46.51953125 C-78 49 -78 49 -78 52 C-77.34 52 -76.68 52 -76 52 C-76 52.66 -76 53.32 -76 54 C-75.443125 54.103125 -74.88625 54.20625 -74.3125 54.3125 C-71.5230899 55.14178408 -69.3860936 56.34299056 -67 58 C-67 58.66 -67 59.32 -67 60 C-66.34 59.7525 -65.68 59.505 -65 59.25 C-60.62016618 58.88501385 -57.72033219 60.84903871 -54 63 C-54 63.66 -54 64.32 -54 65 C-52.33333333 65.33333333 -50.66666667 65.66666667 -49 66 C-48.175 66.28875 -47.35 66.5775 -46.5 66.875 C-43.69574292 67.30420466 -43.69574292 67.30420466 -41.1875 64.5625 C-40.465625 63.716875 -39.74375 62.87125 -39 62 C-39 62.66 -39 63.32 -39 64 C-37.02 63.505 -37.02 63.505 -35 63 C-35.350625 63.53625 -35.70125 64.0725 -36.0625 64.625 C-37.28924249 67.73274763 -36.72856431 69.79431703 -36 73 C-33.36 73 -30.72 73 -28 73 C-27.67 72.34 -27.34 71.68 -27 71 C-27.66 71 -28.32 71 -29 71 C-29.1546875 70.1028125 -29.1546875 70.1028125 -29.3125 69.1875 C-30.08876455 66.71756736 -31.07088921 65.67748765 -33 64 C-28.31623789 64 -24.40244321 64.48031499 -20.3203125 67.0625 C-16.85833907 68.46127714 -13.42060428 68.20930717 -9.75 68.125 C-9.00492187 68.11597656 -8.25984375 68.10695313 -7.4921875 68.09765625 C-5.66131941 68.07418358 -3.83061762 68.03831525 -2 68 C-1.67 67.34 -1.34 66.68 -1 66 C1 65.33333333 3 64.66666667 5 64 C5.495 63.01 5.495 63.01 6 62 C7.98 62.495 7.98 62.495 10 63 C9 66 9 66 6 68 C5.505 69.485 5.505 69.485 5 71 C9.68033668 71.71394966 13.36949418 72.26286522 18 71 C18.33 71 18.66 71 19 71 C19.639375 70.505 20.27875 70.01 20.9375 69.5 C23 68 23 68 25 68 C25 68.66 25 69.32 25 70 C25.66 70.33 26.32 70.66 27 71 C26.505 72.485 26.505 72.485 26 74 C23.42789942 75.18782083 20.98461743 76.15961376 18.3125 77.0625 C17.54301025 77.32562988 16.77352051 77.58875977 15.98071289 77.85986328 C-0.3106829 83.21460157 -16.77053837 83.27277232 -33.37890625 79.75390625 C-34.57386719 79.50511719 -35.76882812 79.25632812 -37 79 C-38.55134644 78.45581421 -38.55134644 78.45581421 -40.1340332 77.90063477 C-45.5215376 78.03910741 -47.23913231 80.37356861 -50.91592407 84.1121521 C-51.76093475 85.01100128 -52.60594543 85.90985046 -53.4765625 86.8359375 C-54.36483734 87.74501862 -55.25311218 88.65409973 -56.16830444 89.59072876 C-58.52527781 92.00691333 -60.86452771 94.43773535 -63.19525146 96.87908936 C-66.4801088 100.3159546 -69.78580202 103.73231829 -73.1031189 107.1378479 C-74.86728265 108.95104014 -76.62064351 110.77481849 -78.36196899 112.60995483 C-79.15984833 113.43395782 -79.95772766 114.25796082 -80.77978516 115.10693359 C-81.47592926 115.83608978 -82.17207336 116.56524597 -82.88931274 117.3164978 C-85.31225528 119.24905748 -86.92973755 119.75686175 -90 120 C-91.875 118.875 -91.875 118.875 -93 117 C-92.42409525 110.24723449 -87.13278411 105.81370424 -82.3125 101.484375 C-80.88548385 100.31005962 -79.44310634 99.15448508 -78 98 C-75.31279024 95.44387364 -72.90251536 92.8800189 -70.5625 90 C-67.93248768 86.92096119 -65.1374966 84.54921599 -62 82 C-60.31384218 80.35305515 -58.64429829 78.68873879 -57 77 C-56.401875 76.443125 -55.80375 75.88625 -55.1875 75.3125 C-53.77636223 74.04781729 -53.77636223 74.04781729 -54 72 C-55.91531378 70.68259203 -55.91531378 70.68259203 -58.375 69.375 C-67.57630769 64.02056671 -80.96427807 55.34153746 -85 45 C-85.65206204 40.57588287 -85.53356622 37.13989148 -83.625 33.0625 C-82.78970914 32.00892756 -81.90617582 30.99326285 -81 30 C-80.32839844 29.24976562 -79.65679687 28.49953125 -78.96484375 27.7265625 C-59.85150182 7.52546941 -28.11260571 -6.77085879 0 0 Z M-8 6 C-8 6.33 -8 6.66 -8 7 C-6.02 7 -4.04 7 -2 7 C-2 6.67 -2 6.34 -2 6 C-3.98 6 -5.96 6 -8 6 Z " fill="#1C3F78" transform="translate(125,73)"/>
<path d="M0 0 C4.70588235 0.70588235 4.70588235 0.70588235 6 2 C6.52191841 4.98992619 6.62388565 7.08422836 4.87036133 9.65814209 C3.1988047 11.49620195 1.45645888 13.2173627 -0.34375 14.9296875 C-0.9874353 15.56488312 -1.63112061 16.20007874 -2.29431152 16.85452271 C-4.34920303 18.87588415 -6.42397778 20.87536924 -8.5 22.875 C-9.89849904 24.24339943 -11.29565171 25.61317631 -12.69140625 26.984375 C-16.11219853 30.3390878 -19.5509726 33.67433289 -23 37 C-22.03505615 37.68562012 -21.0701123 38.37124023 -20.07592773 39.07763672 C-18.79927684 39.98659808 -17.52266771 40.8956181 -16.24609375 41.8046875 C-15.61135132 42.25545654 -14.97660889 42.70622559 -14.32263184 43.1706543 C-7.56851145 47.98403654 -1.85454687 52.92003162 3.51953125 59.265625 C5.03731592 61.08980537 5.03731592 61.08980537 7 63 C6.43181818 68.56818182 6.43181818 68.56818182 5 70 C2.87890625 70.5 2.87890625 70.5 0 70 C-2.62383113 67.92684948 -4.80766355 65.46148384 -7.0625 63 C-13.21063611 56.54145187 -19.26103305 51.51079452 -27 47 C-26.67 45.68 -26.34 44.36 -26 43 C-28.39719432 42.32041397 -28.39719432 42.32041397 -31 42 C-31.99 42.99 -31.99 42.99 -33 44 C-33.66 44 -34.32 44 -35 44 C-35.33 45.32 -35.66 46.64 -36 48 C-36.66 48 -37.32 48 -38 48 C-38 47.01 -38 46.02 -38 45 C-38.495 45.99 -38.495 45.99 -39 47 C-40.32 46.34 -41.64 45.68 -43 45 C-41.68 44.34 -40.36 43.68 -39 43 C-40.485 42.01 -40.485 42.01 -42 41 C-43.485 40.01 -43.485 40.01 -45 39 C-70.11338701 31.22478188 -94.82224532 34.10328309 -118 46 C-127.80196759 51.25557694 -136.73666478 58.59497222 -143.68359375 67.30859375 C-146 70 -146 70 -148.6875 70.5 C-151 70 -151 70 -153 68 C-153.03877515 63.47992519 -152.17149713 60.79119417 -149.19140625 57.5 C-147.99965326 56.31507225 -146.78897303 55.14895294 -145.5625 54 C-144.9243335 53.38624512 -144.28616699 52.77249023 -143.62866211 52.14013672 C-124.06560584 33.64245629 -99.56175395 24.59164463 -72.8125 24.625 C-71.5339917 24.62588623 -70.2554834 24.62677246 -68.93823242 24.62768555 C-59.31956179 24.74801819 -51.09639081 25.90877828 -42 29 C-40.00124359 29.5875803 -38.00138944 30.17145174 -36 30.75 C-34.66542283 31.16266531 -33.33149811 31.57750541 -32 32 C-31.47212891 31.34644531 -31.47212891 31.34644531 -30.93359375 30.6796875 C-27.76548245 26.85810154 -24.47547877 23.56809006 -20.66015625 20.3984375 C-17.31873332 17.58378006 -14.42279973 14.5256429 -11.6875 11.125 C-8.55821349 7.27587762 -4.77065434 4.19800824 -1 1 C-0.67 0.67 -0.34 0.34 0 0 Z " fill="#1E3E78" transform="translate(186,32)"/>
<path d="M0 0 C-0.75023437 0.55171875 -1.50046875 1.1034375 -2.2734375 1.671875 C-8.19480998 6.72794663 -13.57051574 15.2215451 -15 23 C-15.6504198 31.31804483 -15.57897297 38.4125773 -12 46 C-11.25 48.00390625 -11.25 48.00390625 -11 50 C-12.36489377 52.33370072 -14.1419038 54.00594554 -16 56 C-24.17434825 54.2771553 -32.84614728 48.49077218 -39 43 C-39.71634846 41.35407561 -40.39319067 39.68937996 -41 38 C-42.90178785 37.39938767 -42.90178785 37.39938767 -45 37 C-47.56235537 35.00705693 -48.85638481 33.90704329 -49.37109375 30.65625 C-48.46880637 24.19777191 -40.90074417 19.50176136 -36.00390625 15.6328125 C-9.80872781 -3.26957594 -9.80872781 -3.26957594 0 0 Z " fill="#04A9DE" transform="translate(96,83)"/>
<path d="M0 0 C11.47859099 4.70694423 21.14244099 11.32187588 30 20 C31.11955078 21.03640625 31.11955078 21.03640625 32.26171875 22.09375 C34 24 34 24 34.25 26.75 C34.1675 27.4925 34.085 28.235 34 29 C33.34 29 32.68 29 32 29 C32 29.66 32 30.32 32 31 C31.34 31 30.68 31 30 31 C29.73960937 31.59296875 29.47921875 32.1859375 29.2109375 32.796875 C23.08470004 43.94267476 7.2888714 50.77281739 -4 55 C-5.28583984 55.59167969 -5.28583984 55.59167969 -6.59765625 56.1953125 C-9.24352015 57.08156935 -10.42317294 56.95438039 -13 56 C-12.46890625 55.443125 -11.9378125 54.88625 -11.390625 54.3125 C-2.97141942 45.21729981 1.63939643 35.92118745 1.328125 23.2109375 C0.39104168 16.89678085 -2.0250189 10.62834262 -5 5 C-3.35 3.35 -1.7 1.7 0 0 Z " fill="#05A9DE" transform="translate(144,87)"/>
<path d="M0 0 C4.55565991 4.34269207 6.06071729 8.02887929 6.3125 14.3125 C6.1047013 22.04001423 3.43658621 29.41046635 -2 35 C-10.48702576 41.41094314 -18.69722019 41.79015343 -29 41 C-31.95331484 39.98756123 -33.54522448 38.96382042 -36 37 C-28.96066253 28.43547274 -28.96066253 28.43547274 -26 27 C-24.906875 27.165 -23.81375 27.33 -22.6875 27.5 C-18.1514792 28.11505367 -15.98617695 27.14640297 -12 25 C-9.4757517 22.98060136 -9.05166468 22.15499404 -8 19 C-8.13138168 17.2696753 -8.27907433 15.54055846 -8.4375 13.8125 C-8.51032995 10.16129179 -8.36018355 8.5066318 -6.22265625 5.5 C-4.22624319 3.53516465 -2.20891411 1.72078353 0 0 Z " fill="#66EEFC" transform="translate(133,98)"/>
<path d="M0 0 C0.495 0.99 0.495 0.99 1 2 C0.01 3.32 -0.98 4.64 -2 6 C-2.87398437 5.81824219 -2.87398437 5.81824219 -3.765625 5.6328125 C-6.50738373 5.07239012 -9.25341931 4.53627169 -12 4 C-12.91523438 3.80921875 -13.83046875 3.6184375 -14.7734375 3.421875 C-36.22331568 -0.69180027 -59.16565772 2.84941362 -77.875 14.375 C-85.92052767 19.85948883 -93.31496522 25.91651944 -100 33 C-101.09471933 29.715842 -101 29.41491936 -101 26 C-77.93141466 -2.17269749 -33.90791038 -13.74711127 0 0 Z " fill="#ECF4F8" transform="translate(144,71)"/>
<path d="M0 0 C-1.48146543 3.45675267 -2.86681735 5.86026551 -6 8 C-9.68979722 8.34076049 -13.30545424 8.22931663 -17 8 C-16.94972656 9.16402344 -16.94972656 9.16402344 -16.8984375 10.3515625 C-17 13 -17 13 -18.625 15.375 C-21 17 -21 17 -24.1484375 16.6015625 C-25.08945313 16.40304688 -26.03046875 16.20453125 -27 16 C-26.91298828 17.32064453 -26.91298828 17.32064453 -26.82421875 18.66796875 C-26.45296748 28.22503726 -26.45296748 28.22503726 -29.25 32.1875 C-31.46780867 33.64923753 -33.54170843 34.99847381 -36 36 C-39.60123483 29.5477876 -39.90835985 23.28418087 -39 16 C-36.37269914 7.47586831 -31.34385999 2.65950612 -23.9375 -1.875 C-16.19772005 -4.83018871 -7.04961042 -4.05594024 0 0 Z " fill="#67EEFB" transform="translate(126,91)"/>
<path d="M0 0 C4.10111192 6.15166788 3.47721086 12.87231995 2.3125 19.9375 C0.32923758 28.93104418 -4.77878127 35.42020959 -11 42 C-1.30068709 40.65814017 7.30538412 36.98470124 15 31 C15.66 31 16.32 31 17 31 C17 31.66 17 32.32 17 33 C15.03852126 34.38938077 13.03833424 35.7260411 11 37 C11.99 37.99 12.98 38.98 14 40 C13.34 41.32 12.68 42.64 12 44 C9.69 43.67 7.38 43.34 5 43 C5.66 42.67 6.32 42.34 7 42 C7 41.34 7 40.68 7 40 C5.35 40.99 3.7 41.98 2 43 C2.66 43.66 3.32 44.32 4 45 C2.948125 44.7215625 2.948125 44.7215625 1.875 44.4375 C-0.99348058 43.84353893 -0.99348058 43.84353893 -3.8125 44.5 C-7.81144488 45.12728547 -11.00799286 44.61944938 -15 44 C-14.01 43.505 -14.01 43.505 -13 43 C-12.855625 42.34 -12.71125 41.68 -12.5625 41 C-12.376875 40.34 -12.19125 39.68 -12 39 C-11.01 38.67 -10.02 38.34 -9 38 C-9 37.01 -9 36.02 -9 35 C-9.99 34.67 -10.98 34.34 -12 34 C-12.33 34.99 -12.66 35.98 -13 37 C-14.64551962 37.71727778 -16.31422289 38.38325228 -18 39 C-18.66 39.66 -19.32 40.32 -20 41 C-22.55647393 41.28372082 -24.9398065 41.42815623 -27.5 41.4375 C-28.21671875 41.44136719 -28.9334375 41.44523437 -29.671875 41.44921875 C-35.99304663 41.31279059 -40.73352991 39.54473948 -46 36 C-45.67 35.34 -45.34 34.68 -45 34 C-44.17242187 34.48597656 -43.34484375 34.97195312 -42.4921875 35.47265625 C-38.58779981 37.18027995 -35.30985372 37.49938415 -31.125 37.4375 C-30.41754639 37.43065186 -29.71009277 37.42380371 -28.98120117 37.41674805 C-21.6795784 37.19201799 -17.69573803 35.26687062 -12.25 30.6875 C-6.56339785 23.89516965 -4.84847423 18.00105126 -4.9375 9.1875 C-4.94652344 8.02605469 -4.95554688 6.86460938 -4.96484375 5.66796875 C-4.97644531 4.78753906 -4.98804688 3.90710938 -5 3 C-4.34 3 -3.68 3 -3 3 C-1.14629141 6.92550055 -0.80449371 9.92995582 -0.9375 14.25 C-0.9912422 16.16602633 -1.02057774 18.08333057 -1 20 C-0.67 20.33 -0.34 20.66 0 21 C0 14.07 0 7.14 0 0 Z " fill="#0D4881" transform="translate(143,101)"/>
<path d="M0 0 C-0.75023437 0.55171875 -1.50046875 1.1034375 -2.2734375 1.671875 C-8.19480998 6.72794663 -13.57051574 15.2215451 -15 23 C-15.6504198 31.31804483 -15.57897297 38.4125773 -12 46 C-11.25 48.00390625 -11.25 48.00390625 -11 50 C-12.36489377 52.33370072 -14.1419038 54.00594554 -16 56 C-24.45285224 54.21845715 -32.32706764 48.25625823 -39 43 C-39.33 42.34 -39.66 41.68 -40 41 C-38.02 41.33 -36.04 41.66 -34 42 C-34 42.99 -34 43.98 -34 45 C-33.01 45 -32.02 45 -31 45 C-31 45.66 -31 46.32 -31 47 C-30.236875 47.103125 -29.47375 47.20625 -28.6875 47.3125 C-26 48 -26 48 -24.625 49.5 C-22.52078117 51.44235584 -21.13437934 51.48301599 -18.3125 51.6875 C-17.50425781 51.75324219 -16.69601563 51.81898438 -15.86328125 51.88671875 C-15.24839844 51.92410156 -14.63351563 51.96148437 -14 52 C-14.309375 50.741875 -14.61875 49.48375 -14.9375 48.1875 C-15.11152344 47.47980469 -15.28554687 46.77210938 -15.46484375 46.04296875 C-15.91010705 44.34316798 -16.44433985 42.66698046 -17 41 C-17.23062719 37.37895931 -17.18516562 33.75262315 -17.1875 30.125 C-17.19974609 29.13113281 -17.21199219 28.13726562 -17.22460938 27.11328125 C-17.22750977 25.66888672 -17.22750977 25.66888672 -17.23046875 24.1953125 C-17.23457764 23.31891113 -17.23868652 22.44250977 -17.24291992 21.53955078 C-16.97346293 18.72257427 -16.16298876 16.56681442 -15 14 C-14.34 14 -13.68 14 -13 14 C-13 13.01 -13 12.02 -13 11 C-13.66 10.67 -14.32 10.34 -15 10 C-14.34 10 -13.68 10 -13 10 C-13 9.34 -13 8.68 -13 8 C-12.01 8 -11.02 8 -10 8 C-10 6.68 -10 5.36 -10 4 C-11.65 4.33 -13.3 4.66 -15 5 C-15.66 6.98 -16.32 8.96 -17 11 C-20.63 11 -24.26 11 -28 11 C-21.66023873 5.55581839 -8.66000417 -2.88666806 0 0 Z " fill="#199ACE" transform="translate(96,83)"/>
<path d="M0 0 C10.94373418 1.38553699 20.10070909 11.67692898 27.32983398 19.30151367 C27.88227783 19.8813501 28.43472168 20.46118652 29.00390625 21.05859375 C29.48674072 21.57736084 29.9695752 22.09612793 30.46704102 22.63061523 C32.1853571 24.16557859 33.90677474 25.05755528 36 26 C35.01 26 34.02 26 33 26 C32.34 27.65 31.68 29.3 31 31 C28.38056209 28.45540318 25.9946706 25.99333598 23.70703125 23.1328125 C21.10049439 19.98480239 18.13206678 17.45347698 14.875 15 C14.31530518 14.57283691 13.75561035 14.14567383 13.17895508 13.70556641 C8.0862525 9.90311098 2.70053465 6.81028361 -3 4 C-2.01 2.68 -1.02 1.36 0 0 Z " fill="#ECF5FA" transform="translate(154,77)"/>
<path d="M0 0 C0.36172328 6.89953672 0.30594089 11.13982785 -4.328125 16.55078125 C-6.34387207 18.29807602 -7.83956445 18.70675547 -10.4375 19.25 C-11.19933594 19.42015625 -11.96117188 19.5903125 -12.74609375 19.765625 C-15.11436516 20.01189239 -16.74665061 19.71860801 -19 19 C-17.61314777 15.8804428 -15.99810509 13.74144201 -13.59375 11.328125 C-12.60181641 10.33232422 -12.60181641 10.33232422 -11.58984375 9.31640625 C-10.55537109 8.29353516 -10.55537109 8.29353516 -9.5 7.25 C-8.81035156 6.55261719 -8.12070313 5.85523437 -7.41015625 5.13671875 C-6.74886719 4.47800781 -6.08757812 3.81929688 -5.40625 3.140625 C-4.80103516 2.53766602 -4.19582031 1.93470703 -3.57226562 1.31347656 C-2 0 -2 0 0 0 Z " fill="#05ABD9" transform="translate(126,107)"/>
<path d="M0 0 C1.6875 1.5 1.6875 1.5 3 3 C2.67 3.66 2.34 4.32 2 5 C2.94875 5.61875 3.8975 6.2375 4.875 6.875 C8 9 8 9 10 11 C11.67293936 10.69972883 13.33985384 10.36442233 15 10 C15.99 10.33 16.98 10.66 18 11 C17.67 11.99 17.34 12.98 17 14 C16.34 14 15.68 14 15 14 C15.33 14.66 15.66 15.32 16 16 C16.99 16 17.98 16 19 16 C18.67 16.515625 18.34 17.03125 18 17.5625 C16.68275437 20.77328622 16.93626731 23.55843492 17 27 C16.67 27.66 16.34 28.32 16 29 C13.67843403 29.40729228 11.3431213 29.74438677 9 30 C9.66 28.68 10.32 27.36 11 26 C11.66 26 12.32 26 13 26 C13 25.34 13 24.68 13 24 C13.66 24 14.32 24 15 24 C11.99038365 13.13107463 2.29466437 7.40306658 -7 2 C-4.35261084 0.5393715 -3.10551666 0 0 0 Z " fill="#0E3E7E" transform="translate(163,92)"/>
<path d="M0 0 C6.15234375 0.5859375 6.15234375 0.5859375 8 1 C8.33 1.66 8.66 2.32 9 3 C11.12576782 3.46651207 11.12576782 3.46651207 13.5625 3.625 C14.38878906 3.69976562 15.21507813 3.77453125 16.06640625 3.8515625 C16.70449219 3.90054688 17.34257813 3.94953125 18 4 C17.67 5.32 17.34 6.64 17 8 C18.98 8.99 20.96 9.98 23 11 C23 11.33 23 11.66 23 12 C18.05 12 13.1 12 8 12 C8 11.34 8 10.68 8 10 C6.2236068 8.9254644 6.2236068 8.9254644 5 9 C4.67 8.01 4.34 7.02 4 6 C3.01 5.67 2.02 5.34 1 5 C0.67 3.35 0.34 1.7 0 0 Z M2 9 C4 10 4 10 4 10 Z " fill="#183B78" transform="translate(95,74)"/>
<path d="M0 0 C3.3 0 6.6 0 10 0 C9.319375 0.66 8.63875 1.32 7.9375 2 C5.68389774 4.24721811 3.58262454 6.59381672 1.5 9 C-2.04994482 13.09015382 -5.46980856 16.97987237 -10 20 C-11.49498913 17.01002175 -11.11577446 14.29957225 -11 11 C-10.67 10.01 -10.34 9.02 -10 8 C-9.071875 8.061875 -8.14375 8.12375 -7.1875 8.1875 C-4.08461682 8.27043508 -4.08461682 8.27043508 -2.1875 6.8125 C-0.72461964 4.57968261 -0.35494045 2.62655933 0 0 Z " fill="#0DAAD7" transform="translate(109,99)"/>
<path d="M0 0 C4.29 0 8.58 0 13 0 C13.33 0.99 13.66 1.98 14 3 C13.01 3.495 13.01 3.495 12 4 C11.6278958 5.32303717 11.29369827 6.65737935 11 8 C10 9 10 9 8.15234375 9.09765625 C6.1015625 9.06510417 4.05078125 9.03255208 2 9 C2.12375 10.11375 2.12375 10.11375 2.25 11.25 C2 14 2 14 0.375 16.375 C-2 18 -2 18 -5.25 17.75 C-6.1575 17.5025 -7.065 17.255 -8 17 C-7.01 16.67 -6.02 16.34 -5 16 C-4.67 15.34 -4.34 14.68 -4 14 C-1.625 10.875 -1.625 10.875 1 8 C1.99 8 2.98 8 4 8 C3.67 7.01 3.34 6.02 3 5 C1.35 4.67 -0.3 4.34 -2 4 C-1.34 2.68 -0.68 1.36 0 0 Z " fill="#62F0FA" transform="translate(107,90)"/>
<path d="M0 0 C0.99 0 1.98 0 3 0 C3.33 0.66 3.66 1.32 4 2 C4.99 2.33 5.98 2.66 7 3 C7 2.34 7 1.68 7 1 C8.98 1 10.96 1 13 1 C9.75105865 3.66111333 6.36614408 5.30531142 2.5625 7.0625 C-5.09370789 10.71960648 -11.48189165 15.61877101 -18 21 C-19.05283182 17.84150454 -19.29904469 16.969245 -18 14 C-14.62712264 11.37665094 -12.24348127 10.63627303 -8 11 C-8 10.34 -8 9.68 -8 9 C-6.02 8.67 -4.04 8.34 -2 8 C-2 6.35 -2 4.7 -2 3 C-1.34 3 -0.68 3 0 3 C0 2.01 0 1.02 0 0 Z " fill="#0C4486" transform="translate(73,83)"/>
<path d="M0 0 C7.00949532 4.31744277 13.00682279 9.3696665 19 15 C16.4345406 17.5654594 14.52313332 17.54046087 11 18 C10.67 17.01 10.34 16.02 10 15 C8.6846659 14.29848848 7.34882408 13.63474075 6 13 C4.25 11.5625 4.25 11.5625 3 10 C3 9.01 3 8.02 3 7 C2.01 7 1.02 7 0 7 C0.2784375 6.1028125 0.2784375 6.1028125 0.5625 5.1875 C1.22093687 2.83591238 1.22093687 2.83591238 0 0 Z " fill="#1F3E77" transform="translate(161,86)"/>
<path d="M0 0 C0.33 0.99 0.66 1.98 1 3 C0.01 3.33 -0.98 3.66 -2 4 C-2.33 4.66 -2.66 5.32 -3 6 C-4.97522846 7.04808041 -6.97481509 8.0520411 -9 9 C-9 9.99 -9 10.98 -9 12 C-9.98028616 13.34789347 -10.97971135 14.68212715 -12 16 C-12 16.66 -12 17.32 -12 18 C-12.66 18.33 -13.32 18.66 -14 19 C-14 19.66 -14 20.32 -14 21 C-14.66 21 -15.32 21 -16 21 C-15.34 22.98 -14.68 24.96 -14 27 C-19.85843398 22.72822523 -19.85843398 22.72822523 -20.4609375 19.62890625 C-19.20088416 12.44233085 -10.0128372 6.83759414 -4.375 2.875 C-2.92373244 1.90599981 -1.46808683 0.94332388 0 0 Z " fill="#129FD5" transform="translate(67,94)"/>
<path d="M0 0 C0 0.99 0 1.98 0 3 C-0.66 3.66 -1.32 4.32 -2 5 C-0.02 4.67 1.96 4.34 4 4 C-1.60513782 9.78029838 -7.65559098 15.04343045 -14 20 C-13.67 18.68 -13.34 17.36 -13 16 C-13.66 16 -14.32 16 -15 16 C-13.48625275 12.42723096 -11.38105612 10.14319629 -8.625 7.4375 C-7.85414062 6.67308594 -7.08328125 5.90867187 -6.2890625 5.12109375 C-4.27286711 3.25284444 -2.23393837 1.59639888 0 0 Z " fill="#E4EEF5" transform="translate(57,84)"/>
<path d="M0 0 C4.71403788 0.47939368 8.66579301 0.96834048 13 3 C13 3.66 13 4.32 13 5 C12.01 5.495 12.01 5.495 11 6 C10.34444881 8.52733235 10.34444881 8.52733235 10 11 C9.01 10.67 8.02 10.34 7 10 C7 9.67 7 9.34 7 9 C5.35 8.67 3.7 8.34 2 8 C2 7.34 2 6.68 2 6 C0.7934375 5.566875 0.7934375 5.566875 -0.4375 5.125 C-3 4 -3 4 -4 2 C-2.68 2 -1.36 2 0 2 C0 1.34 0 0.68 0 0 Z " fill="#1A3C77" transform="translate(136,60)"/>
<path d="M0 0 C-1.43963639 3.35915158 -3.12416589 5.71624938 -6 8 C-8.25 7.75 -8.25 7.75 -10 7 C-9.34 6.67 -8.68 6.34 -8 6 C-8 4.68 -8 3.36 -8 2 C-7.34 1.67 -6.68 1.34 -6 1 C-6 0.34 -6 -0.32 -6 -1 C-10.95 -1 -15.9 -1 -21 -1 C-21.33 -0.01 -21.66 0.98 -22 2 C-23.98 2.33 -25.96 2.66 -28 3 C-27 0 -27 0 -24.3125 -1.6875 C-16.43122752 -4.77787448 -7.23535762 -4.16280849 0 0 Z " fill="#72E1F6" transform="translate(126,91)"/>
<path d="M0 0 C0 0.66 0 1.32 0 2 C0.66 2.33 1.32 2.66 2 3 C1.67 3.99 1.34 4.98 1 6 C-1.45307806 7.05047372 -3.77630354 7.90220437 -6.3125 8.6875 C-6.98990234 8.91244141 -7.66730469 9.13738281 -8.36523438 9.36914062 C-11.77102086 10.46445221 -14.38739779 11 -18 11 C-18 10.34 -18 9.68 -18 9 C-17.34 9 -16.68 9 -16 9 C-16 7.68 -16 6.36 -16 5 C-8.28571429 3 -8.28571429 3 -6 3 C-5.360625 2.505 -4.72125 2.01 -4.0625 1.5 C-2 0 -2 0 0 0 Z " fill="#1C3A74" transform="translate(150,141)"/>
<path d="M0 0 C0.66 0 1.32 0 2 0 C2.33 1.32 2.66 2.64 3 4 C3.61875 3.690625 4.2375 3.38125 4.875 3.0625 C6.25 2.375 7.625 1.6875 9 1 C9 1.99 9 2.98 9 4 C6.734375 5.7890625 6.734375 5.7890625 3.75 7.625 C2.77546875 8.23601562 1.8009375 8.84703125 0.796875 9.4765625 C-1.56034177 10.76052136 -3.38359009 11.53901349 -6 12 C-5.34 11.01 -4.68 10.02 -4 9 C-4.99 7.68 -5.98 6.36 -7 5 C-2.25 2 -2.25 2 0 2 C0 1.34 0 0.68 0 0 Z " fill="#1B3D72" transform="translate(160,132)"/>
<path d="M0 0 C0.99 0.33 1.98 0.66 3 1 C3.33 1.99 3.66 2.98 4 4 C5.32 3.67 6.64 3.34 8 3 C8 6 8 6 6.03125 8.26171875 C5.1959375 9.06222656 4.360625 9.86273438 3.5 10.6875 C2.6646875 11.49574219 1.829375 12.30398437 0.96875 13.13671875 C-0.00578125 14.05904297 -0.00578125 14.05904297 -1 15 C-1.66 14.67 -2.32 14.34 -3 14 C-1.6875 11.5 -1.6875 11.5 0 9 C0.99 9 1.98 9 3 9 C3 8.34 3 7.68 3 7 C1.35 7.66 -0.3 8.32 -2 9 C-2 8.01 -2 7.02 -2 6 C-2.66 5.67 -3.32 5.34 -4 5 C-2.68 3.35 -1.36 1.7 0 0 Z " fill="#0D4277" transform="translate(125,93)"/>
<path d="M0 0 C1.98 0.66 3.96 1.32 6 2 C5.01 3.98 4.02 5.96 3 8 C2.34 8 1.68 8 1 8 C1 8.66 1 9.32 1 10 C0.360625 10.28875 -0.27875 10.5775 -0.9375 10.875 C-3.15206079 11.82823451 -3.15206079 11.82823451 -4 14 C-4.99 13.67 -5.98 13.34 -7 13 C-5.7508258 9.54074837 -4.32472205 6.85306797 -2 4 C-2.33 3.67 -2.66 3.34 -3 3 C-2.01 2.01 -1.02 1.02 0 0 Z " fill="#193C81" transform="translate(43,175)"/>
<path d="M0 0 C6.74967808 2.60783017 12.80499992 6.28706892 19 10 C18.01 10.33 17.02 10.66 16 11 C14.31603164 10.00943038 12.63356262 9.0160487 10.96484375 8 C6.74163176 5.85061179 2.54701834 5.51655677 -2 6.9375 C-2.66 7.288125 -3.32 7.63875 -4 8 C-4 4 -4 4 -2 1.75 C-1.01 0.88375 -1.01 0.88375 0 0 Z " fill="#109FD2" transform="translate(144,87)"/>
<path d="M0 0 C0.66 0.33 1.32 0.66 2 1 C1.34 3.64 0.68 6.28 0 9 C1.32 8.67 2.64 8.34 4 8 C3.125 11.875 3.125 11.875 2 13 C-0.4375 13.1875 -0.4375 13.1875 -3 13 C-3.66 12.34 -4.32 11.68 -5 11 C-4.84971611 6.94233489 -4.59155055 4.6991052 -1.9375 1.5625 C-0.9784375 0.7890625 -0.9784375 0.7890625 0 0 Z " fill="#203B6E" transform="translate(38,89)"/>
<path d="M0 0 C0.66 0 1.32 0 2 0 C2 0.66 2 1.32 2 2 C3.32 2.33 4.64 2.66 6 3 C4.74381926 6.76854223 3.33985294 7.07958456 0 9 C-0.33 9.66 -0.66 10.32 -1 11 C-1.66 11 -2.32 11 -3 11 C-3.66 10.34 -4.32 9.68 -5 9 C-5.66 8.67 -6.32 8.34 -7 8 C-5.88200014 6.66079162 -4.75538103 5.32877444 -3.625 4 C-2.68527344 2.88625 -2.68527344 2.88625 -1.7265625 1.75 C-1.15679687 1.1725 -0.58703125 0.595 0 0 Z " fill="#183C7E" transform="translate(72,146)"/>
<path d="M0 0 C0.845625 0.474375 1.69125 0.94875 2.5625 1.4375 C2.5625 2.4275 2.5625 3.4175 2.5625 4.4375 C-1.47270597 2.84787341 -5.45561282 1.15517682 -9.4375 -0.5625 C-10.7575 0.7575 -12.0775 2.0775 -13.4375 3.4375 C-13.128125 4.015 -12.81875 4.5925 -12.5 5.1875 C-11.4924144 7.32121067 -10.74930128 9.0989904 -10.4375 11.4375 C-11.0975 12.0975 -11.7575 12.7575 -12.4375 13.4375 C-13.16476052 11.8627706 -13.86870422 10.27725721 -14.5625 8.6875 C-14.95695313 7.80578125 -15.35140625 6.9240625 -15.7578125 6.015625 C-16.4375 3.4375 -16.4375 3.4375 -15.66015625 1.19140625 C-11.67601551 -4.52386274 -5.54042609 -2.51837549 0 0 Z " fill="#064D89" transform="translate(153.4375,88.5625)"/>
<path d="M0 0 C0 2 0 2 -1.375 3.5625 C-3 5 -3 5 -5 6 C-5 6.66 -5 7.32 -5 8 C-4.01 7.34 -3.02 6.68 -2 6 C0.91796875 5.8046875 0.91796875 5.8046875 4.1875 5.875 C5.81751953 5.90207031 5.81751953 5.90207031 7.48046875 5.9296875 C8.72763672 5.96449219 8.72763672 5.96449219 10 6 C10 6.33 10 6.66 10 7 C-4.08263859 10.74831132 -4.08263859 10.74831132 -10 9 C-10.33 8.34 -10.66 7.68 -11 7 C-9.35 6.67 -7.7 6.34 -6 6 C-6.33 4.35 -6.66 2.7 -7 1 C-4.53721199 -0.231394 -2.7204945 -0.07159196 0 0 Z " fill="#1E3B6F" transform="translate(90,60)"/>
<path d="M0 0 C0 3.3 0 6.6 0 10 C-0.99 10.495 -0.99 10.495 -2 11 C-2.66 9.35 -3.32 7.7 -4 6 C-4.2475 6.639375 -4.495 7.27875 -4.75 7.9375 C-6 10 -6 10 -8.125 10.75 C-9.053125 10.87375 -9.053125 10.87375 -10 11 C-10 11.66 -10 12.32 -10 13 C-10.99 12.67 -11.98 12.34 -13 12 C-2.93659942 0 -2.93659942 0 0 0 Z " fill="#11A3D4" transform="translate(126,107)"/>
<path d="M0 0 C2.64 0.33 5.28 0.66 8 1 C8 2.32 8 3.64 8 5 C8.66 5 9.32 5 10 5 C9.67 5.99 9.34 6.98 9 8 C6.36 8 3.72 8 1 8 C-0.42944945 5.64561267 -1.08661261 4.51967567 -0.625 1.75 C-0.41875 1.1725 -0.2125 0.595 0 0 Z " fill="#165D94" transform="translate(88,139)"/>
<path d="M0 0 C-3.61269814 3.1234786 -7.58788804 4.60345097 -12 6.25 C-12.7115625 6.53101563 -13.423125 6.81203125 -14.15625 7.1015625 C-18.12640732 8.59777851 -19.76951873 9.05762032 -24 8 C-21.69 5.36 -19.38 2.72 -17 0 C-17 3 -17 3 -18 5 C-17.46890625 4.7834375 -16.9378125 4.566875 -16.390625 4.34375 C-15.68421875 4.0653125 -14.9778125 3.786875 -14.25 3.5 C-13.55390625 3.2215625 -12.8578125 2.943125 -12.140625 2.65625 C-10 2 -10 2 -6 2 C-6 1.34 -6 0.68 -6 0 C-3 -1 -3 -1 0 0 Z " fill="#1999CB" transform="translate(155,135)"/>
<path d="M0 0 C0.33 0 0.66 0 1 0 C1.20413361 5.73842251 1.27141454 10.60539047 -1 16 C-1.33 16 -1.66 16 -2 16 C-2.33 18.97 -2.66 21.94 -3 25 C-3.33 25 -3.66 25 -4 25 C-4.44682233 15.69120137 -4.44371561 8.43115686 0 0 Z " fill="#0B4686" transform="translate(84,96)"/>
<path d="M0 0 C0.66 1.32 1.32 2.64 2 4 C1.67 4.33 1.34 4.66 1 5 C1 6.32 1 7.64 1 9 C-0.32 8.67 -1.64 8.34 -3 8 C-3 8.66 -3 9.32 -3 10 C-1.68 10.66 -0.36 11.32 1 12 C-0.65 12.66 -2.3 13.32 -4 14 C-4.12375 13.360625 -4.2475 12.72125 -4.375 12.0625 C-4.58125 11.381875 -4.7875 10.70125 -5 10 C-5.66 9.67 -6.32 9.34 -7 9 C-7 6 -7 6 -5.46875 4.39453125 C-4.49421875 3.61142578 -4.49421875 3.61142578 -3.5 2.8125 C-2.8503125 2.28269531 -2.200625 1.75289062 -1.53125 1.20703125 C-1.0259375 0.80871094 -0.520625 0.41039062 0 0 Z " fill="#143770" transform="translate(159,59)"/>
<path d="M0 0 C0.0825 0.7425 0.165 1.485 0.25 2.25 C1.15437599 5.56604529 2.3714526 6.83531391 5 9 C5.99 9.33 6.98 9.66 8 10 C8.33 10.99 8.66 11.98 9 13 C8.01 13 7.02 13 6 13 C6 12.34 6 11.68 6 11 C3.69 11 1.38 11 -1 11 C-3.03435531 7.27034861 -4 5.33094958 -4 1 C-1 0 -1 0 0 0 Z " fill="#0C4A8C" transform="translate(47,111)"/>
<path d="M0 0 C0 0.66 0 1.32 0 2 C-1.96147874 3.38938077 -3.96166576 4.7260411 -6 6 C-5.01 6.99 -4.02 7.98 -3 9 C-3.66 10.32 -4.32 11.64 -5 13 C-7.31 12.67 -9.62 12.34 -12 12 C-11.34 11.67 -10.68 11.34 -10 11 C-9.9071875 9.63875 -9.9071875 9.63875 -9.8125 8.25 C-8.77492905 4.09971619 -7.13526148 3.16912975 -3.69140625 0.8828125 C-2 0 -2 0 0 0 Z " fill="#154480" transform="translate(160,132)"/>
<path d="M0 0 C0.33 0.66 0.66 1.32 1 2 C0.34 2.61875 -0.32 3.2375 -1 3.875 C-3.2284549 5.75637427 -3.2284549 5.75637427 -3 8 C-3.99 8.495 -3.99 8.495 -5 9 C-5 9.66 -5 10.32 -5 11 C-4.34 11.33 -3.68 11.66 -3 12 C-3 12.66 -3 13.32 -3 14 C-4.98 14 -6.96 14 -9 14 C-9.73828125 11.765625 -9.73828125 11.765625 -10 9 C-8.41796875 6.796875 -8.41796875 6.796875 -6.1875 4.75 C-5.09501953 3.72132813 -5.09501953 3.72132813 -3.98046875 2.671875 C-2 1 -2 1 0 0 Z " fill="#19386A" transform="translate(42,177)"/>
<path d="M0 0 C4.98246737 2.81617721 9.88680063 5.73802212 14.765625 8.73046875 C17.0519145 10.12492271 17.0519145 10.12492271 20 11 C20.33 10.01 20.66 9.02 21 8 C21.33 9.32 21.66 10.64 22 12 C20 13 20 13 17.8359375 12.44140625 C16.61777344 12.00634766 16.61777344 12.00634766 15.375 11.5625 C14.55773437 11.27503906 13.74046875 10.98757812 12.8984375 10.69140625 C12.27195312 10.46324219 11.64546875 10.23507813 11 10 C11 9.34 11 8.68 11 8 C7.35206816 6.72746564 3.8063457 5.67170806 0 5 C0 3.35 0 1.7 0 0 Z " fill="#08508A" transform="translate(60,128)"/>
<path d="M0 0 C0.66 1.32 1.32 2.64 2 4 C1.01 4 0.02 4 -1 4 C-1 10.6 -1 17.2 -1 24 C-1.66 24 -2.32 24 -3 24 C-4.92621274 18.22136177 -5.07165487 11.1541283 -3.10546875 5.3671875 C-2 3.1875 -2 3.1875 0 0 Z " fill="#78E1F9" transform="translate(91,99)"/>
<path d="M0 0 C11.88524011 9.96716102 11.88524011 9.96716102 12.3125 13.8125 C12.1578125 14.8953125 12.1578125 14.8953125 12 16 C10.68 15.34 9.36 14.68 8 14 C8.33 13.01 8.66 12.02 9 11 C8.34 11 7.68 11 7 11 C6.195625 10.030625 5.39125 9.06125 4.5625 8.0625 C2.29315623 4.80624673 2.29315623 4.80624673 -1 4 C-0.67 2.68 -0.34 1.36 0 0 Z " fill="#149ACD" transform="translate(166,100)"/>
<path d="M0 0 C3.48247874 1.16082625 3.88819244 1.90932476 5.75 4.9375 C6.19859375 5.64777344 6.6471875 6.35804687 7.109375 7.08984375 C7.40328125 7.72019531 7.6971875 8.35054687 8 9 C7.67 9.66 7.34 10.32 7 11 C5 11 3 11 1 11 C-0.125 6.25 -0.125 6.25 1 4 C0.34 4 -0.32 4 -1 4 C-0.67 2.68 -0.34 1.36 0 0 Z " fill="#173571" transform="translate(165,72)"/>
<path d="M0 0 C0.99 0.66 1.98 1.32 3 2 C-0.27971845 5.37910386 -3.6886696 8.4700798 -7.28515625 11.5078125 C-9.64623049 13.56232357 -11.82073711 15.75469885 -14 18 C-13.40699172 14.67622519 -12.31086896 12.87074452 -10.0625 10.375 C-9.27552734 9.48941406 -9.27552734 9.48941406 -8.47265625 8.5859375 C-5.73685087 5.63968555 -2.84276251 2.84276251 0 0 Z " fill="#D5E5ED" transform="translate(66,148)"/>
<path d="M0 0 C2.125 0.9375 2.125 0.9375 4 2 C4 2.99 4 3.98 4 5 C3.01 5.33 2.02 5.66 1 6 C0.67 7.98 0.34 9.96 0 12 C-1.1725131 11.04882866 -2.33787015 10.08882991 -3.5 9.125 C-4.1496875 8.59132813 -4.799375 8.05765625 -5.46875 7.5078125 C-5.9740625 7.01023437 -6.479375 6.51265625 -7 6 C-7 5.34 -7 4.68 -7 4 C-4.69 4 -2.38 4 0 4 C-0.66 3.01 -1.32 2.02 -2 1 C-1.34 0.67 -0.68 0.34 0 0 Z " fill="#2B4677" transform="translate(179,82)"/>
<path d="M0 0 C3.01241138 2.37071428 3.93316286 3.47450069 4.42578125 7.34765625 C4.38839844 8.57355469 4.35101563 9.79945312 4.3125 11.0625 C4.28800781 12.29097656 4.26351562 13.51945312 4.23828125 14.78515625 C4 18 4 18 3 21 C2.34 21 1.68 21 1 21 C1.01160156 20.07058594 1.02320313 19.14117187 1.03515625 18.18359375 C1.11753537 9.04290683 1.11753537 9.04290683 0 0 Z " fill="#189FD3" transform="translate(144,101)"/>
<path d="M0 0 C0 0.33 0 0.66 0 1 C-2.64 1 -5.28 1 -8 1 C-7.87625 2.11375 -7.87625 2.11375 -7.75 3.25 C-8 6 -8 6 -9.625 8.375 C-12 10 -12 10 -15.25 9.75 C-16.61125 9.37875 -16.61125 9.37875 -18 9 C-17.01 8.67 -16.02 8.34 -15 8 C-14.67 7.34 -14.34 6.68 -14 6 C-10.02241224 -0.21498088 -7.22072552 -0.84949712 0 0 Z " fill="#49E2F4" transform="translate(117,98)"/>
<path d="M0 0 C-7.26 0 -14.52 0 -22 0 C-22 -0.66 -22 -1.32 -22 -2 C-19.77156512 -2.19600577 -17.54220107 -2.38146569 -15.3125 -2.5625 C-13.45044922 -2.71912109 -13.45044922 -2.71912109 -11.55078125 -2.87890625 C-6.71894945 -3.04368819 -4.03431506 -2.68954338 0 0 Z " fill="#123465" transform="translate(124,66)"/>
<path d="M0 0 C0.66 0.33 1.32 0.66 2 1 C-3.28 6.28 -8.56 11.56 -14 17 C-14.66 16.67 -15.32 16.34 -16 16 C-15.34 15.01 -14.68 14.02 -14 13 C-13.34 13 -12.68 13 -12 13 C-11.67 12.01 -11.34 11.02 -11 10 C-10.34 10 -9.68 10 -9 10 C-8.79375 9.2575 -8.5875 8.515 -8.375 7.75 C-6.59959632 4.19919264 -4.36325475 3.00364113 -1 1 C-0.67 0.67 -0.34 0.34 0 0 Z " fill="#054B88" transform="translate(121,108)"/>
<path d="M0 0 C1.32 0.66 2.64 1.32 4 2 C4 1.34 4 0.68 4 0 C4.99 0 5.98 0 7 0 C7 0.99 7 1.98 7 3 C5.35 3.33 3.7 3.66 2 4 C2.99 6.97 3.98 9.94 5 13 C2 12 2 12 0 9 C-0.33 9 -0.66 9 -1 9 C-1.09765625 2.84765625 -1.09765625 2.84765625 -1 1 C-0.67 0.67 -0.34 0.34 0 0 Z " fill="#153D7B" transform="translate(41,108)"/>
<path d="M0 0 C1.65 1.32 3.3 2.64 5 4 C4.125 9.875 4.125 9.875 3 11 C0.6875 11.3125 0.6875 11.3125 -2 11 C-4.3125 9.125 -4.3125 9.125 -6 7 C-6 6.34 -6 5.68 -6 5 C-4.02 5.99 -4.02 5.99 -2 7 C-2 7.66 -2 8.32 -2 9 C-0.35 8.67 1.3 8.34 3 8 C3 6.68 3 5.36 3 4 C2.01 4 1.02 4 0 4 C-0.33 3.01 -0.66 2.02 -1 1 C-0.67 0.67 -0.34 0.34 0 0 Z " fill="#243B66" transform="translate(188,91)"/>
<path d="M0 0 C1.32 0.33 2.64 0.66 4 1 C5.125 5.75 5.125 5.75 4 8 C3.01 7.67 2.02 7.34 1 7 C0.01 7.33 -0.98 7.66 -2 8 C-2.6875 6.25 -2.6875 6.25 -3 4 C-1.5625 1.75 -1.5625 1.75 0 0 Z " fill="#163970" transform="translate(181,86)"/>
<path d="M0 0 C1.98 0.66 3.96 1.32 6 2 C6 2.99 6 3.98 6 5 C5.0925 4.9175 4.185 4.835 3.25 4.75 C-0.71551494 5.05503961 -1.41329248 6.14570205 -4 9 C-4.99 9 -5.98 9 -7 9 C-7.33 7.35 -7.66 5.7 -8 4 C-7.34 4 -6.68 4 -6 4 C-6 4.99 -6 5.98 -6 7 C-5.34 7 -4.68 7 -4 7 C-3.67 5.35 -3.34 3.7 -3 2 C-2.34 2 -1.68 2 -1 2 C-0.67 1.34 -0.34 0.68 0 0 Z " fill="#1D3A6D" transform="translate(154,73)"/>
<path d="M0 0 C2.3431213 0.25561323 4.67843403 0.59270772 7 1 C7.33 1.66 7.66 2.32 8 3 C7.01 4.32 6.02 5.64 5 7 C2.03 6.505 2.03 6.505 -1 6 C-0.67 4.02 -0.34 2.04 0 0 Z " fill="#E1E9F3" transform="translate(137,70)"/>
<path d="M0 0 C0.66 0.33 1.32 0.66 2 1 C2 1.66 2 2.32 2 3 C1.01 3 0.02 3 -1 3 C-2.2065625 4.2684375 -2.2065625 4.2684375 -3.4375 5.5625 C-4.283125 6.366875 -5.12875 7.17125 -6 8 C-8.1875 7.75 -8.1875 7.75 -10 7 C-10.99 7.495 -10.99 7.495 -12 8 C-12.99 7.34 -13.98 6.68 -15 6 C-12.54524486 4.96971956 -10.08685649 3.95054496 -7.625 2.9375 C-6.57699219 2.49567383 -6.57699219 2.49567383 -5.5078125 2.04492188 C-3.69495092 1.30408902 -1.84876857 0.64603036 0 0 Z " fill="#E3EDF6" transform="translate(155,144)"/>
<path d="M0 0 C0 0.66 0 1.32 0 2 C-3.63 2 -7.26 2 -11 2 C-11.33 2.99 -11.66 3.98 -12 5 C-13.98 5.33 -15.96 5.66 -18 6 C-17 3 -17 3 -14.0625 1.3125 C-9.46349544 -0.52710182 -4.87368665 -0.26476769 0 0 Z " fill="#77E8FB" transform="translate(116,88)"/>
<path d="M0 0 C1.10844919 3.32534757 0.84454356 5.62182575 0 9 C-0.33 8.34 -0.66 7.68 -1 7 C-1.7425 7.680625 -2.485 8.36125 -3.25 9.0625 C-6 11 -6 11 -8.3125 10.75 C-8.869375 10.5025 -9.42625 10.255 -10 10 C-9.0409375 9.5978125 -9.0409375 9.5978125 -8.0625 9.1875 C-5.66868314 8.11332248 -5.66868314 8.11332248 -5 5 C-3.37347684 3.29413425 -1.70993434 1.6222454 0 0 Z " fill="#0B5088" transform="translate(122,95)"/>
<path d="M0 0 C0.556875 0.28875 1.11375 0.5775 1.6875 0.875 C4.08494645 2.0413253 6.51596939 3.0339881 9 4 C8.01 4.33 7.02 4.66 6 5 C4.78130071 7.50447516 4.78130071 7.50447516 4 10 C1.4375 7.8125 1.4375 7.8125 -1 5 C-0.8125 2.1875 -0.8125 2.1875 0 0 Z " fill="#E5F0F7" transform="translate(181,98)"/>
<path d="M0 0 C-0.33 1.65 -0.66 3.3 -1 5 C-2.32 5 -3.64 5 -5 5 C-5 5.66 -5 6.32 -5 7 C-7.31 7.66 -9.62 8.32 -12 9 C-12 8.01 -12 7.02 -12 6 C-9.8828125 4.39453125 -9.8828125 4.39453125 -7.125 2.8125 C-6.22007813 2.28269531 -5.31515625 1.75289063 -4.3828125 1.20703125 C-2 0 -2 0 0 0 Z " fill="#2B4372" transform="translate(74,81)"/>
<path d="M0 0 C0.33 0.66 0.66 1.32 1 2 C0.34 2.66 -0.32 3.32 -1 4 C-0.67 4.33 -0.34 4.66 0 5 C0.66 4.67 1.32 4.34 2 4 C1.37240135 6.92879371 0.41377341 9.36095629 -1 12 C-1.66 11.34 -2.32 10.68 -3 10 C-2.34 10 -1.68 10 -1 10 C-1 9.34 -1 8.68 -1 8 C-2.32 7.34 -3.64 6.68 -5 6 C-5 6.66 -5 7.32 -5 8 C-5.66 8 -6.32 8 -7 8 C-7.33 8.66 -7.66 9.32 -8 10 C-7.44449305 6.40094092 -6.25112752 5.00090201 -3.4375 2.75 C-2.79683594 2.22921875 -2.15617188 1.7084375 -1.49609375 1.171875 C-1.00238281 0.78515625 -0.50867188 0.3984375 0 0 Z " fill="#16356F" transform="translate(170,49)"/>
<path d="M0 0 C2.62803405 2.62803405 2.91777266 4.60455367 3.1328125 8.25390625 C3.13023437 9.01574219 3.12765625 9.77757813 3.125 10.5625 C3.12757813 11.32691406 3.13015625 12.09132813 3.1328125 12.87890625 C3 15 3 15 2 18 C1.34 18 0.68 18 0 18 C0 12.06 0 6.12 0 0 Z " fill="#69D3EC" transform="translate(136,102)"/>
<path d="M0 0 C2 2 2 2 2 4 C0.02 4.99 0.02 4.99 -2 6 C-2 6.66 -2 7.32 -2 8 C-3.32 8.33 -4.64 8.66 -6 9 C-6 7.68 -6 6.36 -6 5 C-6.33 4.67 -6.66 4.34 -7 4 C-4.86535088 1.54515351 -3.29279709 0.31865778 0 0 Z " fill="#234383" transform="translate(183,38)"/>
<path d="M0 0 C0 1.66666667 0 3.33333333 0 5 C-4.455 4.01 -4.455 4.01 -9 3 C-9 2.34 -9 1.68 -9 1 C-9.66 0.67 -10.32 0.34 -11 0 C-7.07632508 -2.82504594 -4.32061114 -1.49559616 0 0 Z " fill="#21427F" transform="translate(83,145)"/>
<path d="M0 0 C2.01247413 1.64561687 2.93449616 2.45345233 3.25 5.0859375 C2.76638461 9.51404091 2.38917283 11.53489101 -0.5625 15.0625 C-1.7690625 16.0215625 -1.7690625 16.0215625 -3 17 C-2.690625 15.989375 -2.38125 14.97875 -2.0625 13.9375 C-0.74845632 9.34300684 0 4.78711437 0 0 Z " fill="#243B67" transform="translate(183,107)"/>
<path d="M0 0 C1.32 0.33 2.64 0.66 4 1 C2.52307692 6.66153846 2.52307692 6.66153846 -0.125 8.375 C-0.74375 8.58125 -1.3625 8.7875 -2 9 C-3.5 7.625 -3.5 7.625 -5 6 C-5 5.34 -5 4.68 -5 4 C-3.35 3.34 -1.7 2.68 0 2 C0 1.34 0 0.68 0 0 Z " fill="#173E82" transform="translate(52,79)"/>
<path d="M0 0 C0.99 0.33 1.98 0.66 3 1 C-0.49124242 4.59392602 -4.13902961 7.79621606 -8 11 C-9.35099103 12.31543863 -10.69205669 13.64175118 -12 15 C-11.4409112 11.75728494 -10.5867822 10.06942576 -8 8 C-7.34 8 -6.68 8 -6 8 C-5.67 6.68 -5.34 5.36 -5 4 C-4.01 4 -3.02 4 -2 4 C-1.34 2.68 -0.68 1.36 0 0 Z " fill="#D3E4EC" transform="translate(49,166)"/>
<path d="M0 0 C3.96 0.99 3.96 0.99 8 2 C8.33 1.34 8.66 0.68 9 0 C9.99 0.66 10.98 1.32 12 2 C6.77729131 4.66464729 3.9180497 5.32854177 -2 4 C-1.34 2.68 -0.68 1.36 0 0 Z " fill="#12AAD0" transform="translate(109,122)"/>
<path d="M0 0 C0.66 0.66 1.32 1.32 2 2 C0.90220176 3.15193623 -0.20349446 4.29634937 -1.3125 5.4375 C-1.92738281 6.07558594 -2.54226562 6.71367188 -3.17578125 7.37109375 C-5 9 -5 9 -8 10 C-8 8.68 -8 7.36 -8 6 C-7.01 6 -6.02 6 -5 6 C-4.9175 5.38125 -4.835 4.7625 -4.75 4.125 C-4 2 -4 2 -1.9375 0.75 C-1.298125 0.5025 -0.65875 0.255 0 0 Z " fill="#1599CE" transform="translate(172,118)"/>
<path d="M0 0 C0.66 0 1.32 0 2 0 C2.125 6.75 2.125 6.75 1 9 C-1.32156597 9.40729228 -3.6568787 9.74438677 -6 10 C-5.34 8.68 -4.68 7.36 -4 6 C-3.34 6 -2.68 6 -2 6 C-2 5.34 -2 4.68 -2 4 C-1.34 4 -0.68 4 0 4 C0 2.68 0 1.36 0 0 Z " fill="#094A8E" transform="translate(178,112)"/>
<path d="M0 0 C0.66 0.33 1.32 0.66 2 1 C1.34 1.66 0.68 2.32 0 3 C-0.88778692 4.96488831 -0.88778692 4.96488831 -1.625 7.125 C-1.88539062 7.84945312 -2.14578125 8.57390625 -2.4140625 9.3203125 C-2.60742188 9.87460938 -2.80078125 10.42890625 -3 11 C-3.66 10.34 -4.32 9.68 -5 9 C-5 8.01 -5 7.02 -5 6 C-5.99 5.67 -6.98 5.34 -8 5 C-7.4225 4.731875 -6.845 4.46375 -6.25 4.1875 C-3.9674132 2.98280141 -2.0262058 1.59201885 0 0 Z " fill="#EFF6FC" transform="translate(44,98)"/>
<path d="M0 0 C0.66 0.66 1.32 1.32 2 2 C1.4375 4.375 1.4375 4.375 0 7 C-3.625 8.3125 -3.625 8.3125 -7 9 C-7.33 8.34 -7.66 7.68 -8 7 C-5.42215154 4.35247996 -3.08351902 2.05567935 0 0 Z " fill="#F3FBFB" transform="translate(62,81)"/>
<path d="M0 0 C0.66 0.99 1.32 1.98 2 3 C2.33 2.34 2.66 1.68 3 1 C3.73080266 2.97746603 4.39421747 4.98072489 5 7 C4.67 7.66 4.34 8.32 4 9 C2.125 8.8125 2.125 8.8125 0 8 C-1.375 5.625 -1.375 5.625 -2 3 C-1.34 2.01 -0.68 1.02 0 0 Z " fill="#25437E" transform="translate(65,152)"/>
<path d="M0 0 C0.99 0.66 1.98 1.32 3 2 C0.69 4.64 -1.62 7.28 -4 10 C-4.66 9.01 -5.32 8.02 -6 7 C-5.34 5.68 -4.68 4.36 -4 3 C-2.68 3 -1.36 3 0 3 C0 2.01 0 1.02 0 0 Z " fill="#1B9CCE" transform="translate(111,102)"/>
<path d="M0 0 C2.97 0.495 2.97 0.495 6 1 C5.67 2.32 5.34 3.64 5 5 C3.35 5.33 1.7 5.66 0 6 C-0.33 6.99 -0.66 7.98 -1 9 C-1.66 9 -2.32 9 -3 9 C-2.1875 6.5625 -2.1875 6.5625 -1 4 C-0.01 3.67 0.98 3.34 2 3 C2 2.34 2 1.68 2 1 C1.34 0.67 0.68 0.34 0 0 Z " fill="#1E4280" transform="translate(88,59)"/>
<path d="M0 0 C0.33 0.66 0.66 1.32 1 2 C1.66 2.33 2.32 2.66 3 3 C-0.11016455 6.28788824 -3.01618925 8.83735988 -7 11 C-7 7 -7 7 -6 5 C-3.4375 4.375 -3.4375 4.375 -1 4 C-0.67 2.68 -0.34 1.36 0 0 Z " fill="#6EE3F6" transform="translate(131,126)"/>
<path d="M0 0 C0.66 0 1.32 0 2 0 C1.47755558 3.76159981 0.7772785 6.32191002 -2 9 C-4.609375 9.10546875 -4.609375 9.10546875 -7 9 C-6.02180976 7.68677212 -5.0424189 6.37443848 -4.0625 5.0625 C-3.51722656 4.33160156 -2.97195312 3.60070312 -2.41015625 2.84765625 C-1 1 -1 1 0 0 Z " fill="#0E4483" transform="translate(105,112)"/>
<path d="M0 0 C0.33 0.99 0.66 1.98 1 3 C0.01 3.33 -0.98 3.66 -2 4 C-2.33 4.66 -2.66 5.32 -3 6 C-3.94875 6.45375 -4.8975 6.9075 -5.875 7.375 C-8.9572532 8.97777166 -10.20257295 10.1041453 -12 13 C-12.66 12.34 -13.32 11.68 -14 11 C-9.52692892 6.95834187 -5.11723176 3.19826985 0 0 Z " fill="#1D94CF" transform="translate(67,94)"/>
<path d="M0 0 C1.5625 1.0625 1.5625 1.0625 3 3 C2.87059529 6.6233318 2.75012072 9.06985031 0.4375 11.9375 C-0.036875 12.288125 -0.51125 12.63875 -1 13 C-1.33 11.02 -1.66 9.04 -2 7 C-1.34 6.67 -0.68 6.34 0 6 C-1.05270463 4.84188612 -1.05270463 4.84188612 -3 4 C-3 3.34 -3 2.68 -3 2 C-2.01 1.34 -1.02 0.68 0 0 Z " fill="#223F82" transform="translate(181,104)"/>
<path d="M0 0 C0.33 1.32 0.66 2.64 1 4 C0.05125 4.4125 -0.8975 4.825 -1.875 5.25 C-5.00716624 7.0040131 -5.86500606 7.70851757 -7 11 C-8.32 10.34 -9.64 9.68 -11 9 C-9.93458984 8.15115234 -9.93458984 8.15115234 -8.84765625 7.28515625 C-7.92855469 6.55167969 -7.00945312 5.81820312 -6.0625 5.0625 C-5.14597656 4.33160156 -4.22945312 3.60070312 -3.28515625 2.84765625 C-1.59148731 1.48061289 -1.59148731 1.48061289 0 0 Z " fill="#084988" transform="translate(171,122)"/>
<path d="M0 0 C0.721875 0.165 1.44375 0.33 2.1875 0.5 C1.28265208 1.65518918 0.3630794 2.79885406 -0.5625 3.9375 C-1.07296875 4.57558594 -1.5834375 5.21367188 -2.109375 5.87109375 C-4.00917629 7.68810554 -5.24836908 8.10423197 -7.8125 8.5 C-3.69871444 0.65754923 -3.69871444 0.65754923 0 0 Z " fill="#D7E7EF" transform="translate(183.8125,31.5)"/>
<path d="M0 0 C2.38672669 2.96283313 4.7353371 5.94270509 7 9 C5.35 9.33 3.7 9.66 2 10 C0.39644899 6.49223216 -0.22036864 3.85645121 0 0 Z " fill="#E8F3F7" transform="translate(40,118)"/>
<path d="M0 0 C0.433125 0.66 0.86625 1.32 1.3125 2 C2.1478125 2.99 2.1478125 2.99 3 4 C3.99 4 4.98 4 6 4 C5.67 5.32 5.34 6.64 5 8 C3.35 8 1.7 8 0 8 C-0.99 6.02 -1.98 4.04 -3 2 C-2.01 1.34 -1.02 0.68 0 0 Z " fill="#0D3E76" transform="translate(137,96)"/>
<path d="M0 0 C0.99 0.33 1.98 0.66 3 1 C0.03 3.97 -2.94 6.94 -6 10 C-6.66 9.34 -7.32 8.68 -8 8 C-7.071875 7.6596875 -7.071875 7.6596875 -6.125 7.3125 C-3.37739861 5.61545208 -3.06789821 3.97485929 -2 1 C-1.34 0.67 -0.68 0.34 0 0 Z " fill="#DAEAF7" transform="translate(44,80)"/>
<path d="M0 0 C1.65 0.33 3.3 0.66 5 1 C5 1.66 5 2.32 5 3 C5.66 3 6.32 3 7 3 C7 3.66 7 4.32 7 5 C7.66 5.33 8.32 5.66 9 6 C2.47692308 6.36923077 2.47692308 6.36923077 0.0625 4.5 C-0.4634375 3.7575 -0.4634375 3.7575 -1 3 C-0.67 2.01 -0.34 1.02 0 0 Z " fill="#1F4380" transform="translate(169,81)"/>
<path d="M0 0 C0.99 0.33 1.98 0.66 3 1 C1.68 2.32 0.36 3.64 -1 5 C-4.3 4.01 -7.6 3.02 -11 2 C-11 1.67 -11 1.34 -11 1 C-10.28972656 1.01160156 -9.57945312 1.02320313 -8.84765625 1.03515625 C-7.92855469 1.04417969 -7.00945312 1.05320313 -6.0625 1.0625 C-4.68771484 1.07990234 -4.68771484 1.07990234 -3.28515625 1.09765625 C-1.03406673 1.25949049 -1.03406673 1.25949049 0 0 Z " fill="#D5E2F0" transform="translate(155,60)"/>
<path d="M0 0 C0 4.13781054 -1.71509607 5.20919996 -4.5 8.1875 C-5.3353125 9.08855469 -6.170625 9.98960938 -7.03125 10.91796875 C-8.00578125 11.94857422 -8.00578125 11.94857422 -9 13 C-9.99 12.67 -10.98 12.34 -12 12 C-8.04 8.04 -4.08 4.08 0 0 Z " fill="#E9F4FE" transform="translate(183,48)"/>
<path d="M0 0 C2.1875 0.3125 2.1875 0.3125 4 1 C3.67 2.32 3.34 3.64 3 5 C1.35 5.33 -0.3 5.66 -2 6 C-2.33 5.01 -2.66 4.02 -3 3 C-1.75 1.4375 -1.75 1.4375 0 0 Z " fill="#1A3C85" transform="translate(55,166)"/>
<path d="M0 0 C0.66 0 1.32 0 2 0 C1.6875 1.9375 1.6875 1.9375 1 4 C0.01 4.33 -0.98 4.66 -2 5 C-2 5.66 -2 6.32 -2 7 C-2.99 7 -3.98 7 -5 7 C-5 7.66 -5 8.32 -5 9 C-5.66 8.67 -6.32 8.34 -7 8 C-5.88200014 6.66079162 -4.75538103 5.32877444 -3.625 4 C-2.68527344 2.88625 -2.68527344 2.88625 -1.7265625 1.75 C-1.15679687 1.1725 -0.58703125 0.595 0 0 Z " fill="#173667" transform="translate(72,146)"/>
<path d="M0 0 C0 0.99 0 1.98 0 3 C-5.28 2.34 -10.56 1.68 -16 1 C-16 0.67 -16 0.34 -16 0 C-10.31302429 -0.91397824 -5.68697571 -0.91397824 0 0 Z " fill="#1B608B" transform="translate(124,87)"/>
<path d="M0 0 C2.31 0.33 4.62 0.66 7 1 C6.67 1.66 6.34 2.32 6 3 C6.39938767 5.09821215 6.39938767 5.09821215 7 7 C6.01 7.33 5.02 7.66 4 8 C2.66666667 5.33333333 1.33333333 2.66666667 0 0 Z " fill="#24457F" transform="translate(148,81)"/>
<path d="M0 0 C0.99 0.99 1.98 1.98 3 3 C2.67 3.99 2.34 4.98 2 6 C1.34 5.34 0.68 4.68 0 4 C-2.97 6.475 -2.97 6.475 -6 9 C-6.66 8.67 -7.32 8.34 -8 8 C-5.36 5.36 -2.72 2.72 0 0 Z " fill="#76DEF8" transform="translate(133,98)"/>
<path d="M0 0 C0.66 0.66 1.32 1.32 2 2 C-2.29 4.31 -6.58 6.62 -11 9 C-8.90607642 4.81215285 -8.29607137 4.26655099 -4.375 2.25 C-3.55773438 1.82203125 -2.74046875 1.3940625 -1.8984375 0.953125 C-0.95871094 0.48132813 -0.95871094 0.48132813 0 0 Z " fill="#E1EEF7" transform="translate(65,66)"/>
<path d="M0 0 C3.96 0 7.92 0 12 0 C12 0.33 12 0.66 12 1 C5.07 2.485 5.07 2.485 -2 4 C-1.34 2.68 -0.68 1.36 0 0 Z " fill="#213966" transform="translate(88,66)"/>
<path d="M0 0 C0.99 0 1.98 0 3 0 C2.67 1.32 2.34 2.64 2 4 C1.34 4 0.68 4 0 4 C0 4.66 0 5.32 0 6 C-0.66 6 -1.32 6 -2 6 C-2.33 7.32 -2.66 8.64 -3 10 C-3.66 9.34 -4.32 8.68 -5 8 C-4.625 5.375 -4.625 5.375 -4 3 C-2.35 3 -0.7 3 1 3 C0.67 2.01 0.34 1.02 0 0 Z " fill="#153973" transform="translate(180,43)"/>
<path d="M0 0 C1.67542976 0.28604898 3.34385343 0.61781233 5 1 C1.2632157 3.49118953 -0.74451819 3.2065226 -5.1875 3.125 C-6.45980469 3.10695312 -7.73210937 3.08890625 -9.04296875 3.0703125 C-10.50669922 3.03550781 -10.50669922 3.03550781 -12 3 C-12 2.34 -12 1.68 -12 1 C-11.21753906 1.01160156 -10.43507813 1.02320313 -9.62890625 1.03515625 C-8.61699219 1.04417969 -7.60507813 1.05320313 -6.5625 1.0625 C-5.04849609 1.07990234 -5.04849609 1.07990234 -3.50390625 1.09765625 C-1.05978933 1.28612676 -1.05978933 1.28612676 0 0 Z " fill="#74E2F9" transform="translate(118,136)"/>
<path d="M0 0 C0.66 0.66 1.32 1.32 2 2 C-0.21934164 5.32901247 -1.34683329 5.75023244 -5 7 C-5.33 6.01 -5.66 5.02 -6 4 C-4.04783565 2.04783565 -2.46800047 1.15173355 0 0 Z " fill="#173A80" transform="translate(167,130)"/>
<path d="M0 0 C0.33 0.99 0.66 1.98 1 3 C-1.33333333 7.66666667 -1.33333333 7.66666667 -4 9 C-4.99 8.34 -5.98 7.68 -7 7 C-6.34 7 -5.68 7 -5 7 C-4.731875 6.401875 -4.46375 5.80375 -4.1875 5.1875 C-3.01506533 3.02775192 -1.80630718 1.64209744 0 0 Z " fill="#DCE9F2" transform="translate(183,121)"/>
<path d="M0 0 C-5.52841596 4.76058041 -5.52841596 4.76058041 -9 5 C-9.66 4.34 -10.32 3.68 -11 3 C-9.73581754 2.30034557 -8.46334598 1.61565237 -7.1875 0.9375 C-6.47980469 0.55464844 -5.77210937 0.17179687 -5.04296875 -0.22265625 C-3 -1 -3 -1 0 0 Z " fill="#243F6D" transform="translate(74,66)"/>
<path d="M0 0 C4.21878192 -0.19622241 7.17010894 0.19769832 11 2 C11.33 1.34 11.66 0.68 12 0 C12 0.99 12 1.98 12 3 C8.52128379 4.15957207 7.65780355 3.77456651 4.3125 2.5625 C3.50425781 2.27503906 2.69601563 1.98757812 1.86328125 1.69140625 C1.24839844 1.46324219 0.63351563 1.23507813 0 1 C0 0.67 0 0.34 0 0 Z " fill="#32497A" transform="translate(132,67)"/>
<path d="M0 0 C0.66 0 1.32 0 2 0 C2 0.66 2 1.32 2 2 C3.32 2.33 4.64 2.66 6 3 C4 5 4 5 1.6171875 5.1953125 C0.71226563 5.17210938 -0.19265625 5.14890625 -1.125 5.125 C-2.49011719 5.09792969 -2.49011719 5.09792969 -3.8828125 5.0703125 C-4.58148438 5.04710938 -5.28015625 5.02390625 -6 5 C-5.38125 4.731875 -4.7625 4.46375 -4.125 4.1875 C-1.7004767 3.04443152 -1.7004767 3.04443152 0 0 Z " fill="#10387A" transform="translate(94,61)"/>
<path d="M0 0 C0.66 0 1.32 0 2 0 C4.41685712 4.22949995 5.34833144 7.12335991 5 12 C3 11 3 11 2.1484375 9.00390625 C1.89320312 8.19824219 1.63796875 7.39257812 1.375 6.5625 C1.11460938 5.75941406 0.85421875 4.95632812 0.5859375 4.12890625 C0 2 0 2 0 0 Z " fill="#084E8C" transform="translate(81,122)"/>
<path d="M0 0 C1.11375 0.598125 2.2275 1.19625 3.375 1.8125 C4.00148438 2.14894531 4.62796875 2.48539063 5.2734375 2.83203125 C7 4 7 4 9 7 C4.545 6.01 4.545 6.01 0 5 C0 3.35 0 1.7 0 0 Z " fill="#04467D" transform="translate(60,128)"/>
<path d="M0 0 C0.8353125 0.556875 0.8353125 0.556875 1.6875 1.125 C1.3575 2.115 1.0275 3.105 0.6875 4.125 C-2.24129371 3.49740135 -4.67345629 2.53877341 -7.3125 1.125 C-2.88173077 -1.09038462 -2.88173077 -1.09038462 0 0 Z " fill="#2A4279" transform="translate(83.3125,61.875)"/>
<path d="M0 0 C0.99 0.33 1.98 0.66 3 1 C3 1.66 3 2.32 3 3 C4.32 3.33 5.64 3.66 7 4 C6.67 4.66 6.34 5.32 6 6 C4.68 6 3.36 6 2 6 C1.34 5.34 0.68 4.68 0 4 C0 2.68 0 1.36 0 0 Z " fill="#1A3766" transform="translate(55,130)"/>
<path d="M0 0 C0.33 0 0.66 0 1 0 C0.91253716 1.43861294 0.80434652 2.87597508 0.6875 4.3125 C0.62949219 5.11300781 0.57148438 5.91351563 0.51171875 6.73828125 C-0.08206694 9.36272334 -0.95780294 10.30820672 -3 12 C-3.66 11.67 -4.32 11.34 -5 11 C-4.72285156 10.45730469 -4.44570312 9.91460937 -4.16015625 9.35546875 C-3.79792969 8.64003906 -3.43570313 7.92460937 -3.0625 7.1875 C-2.52302734 6.12595703 -2.52302734 6.12595703 -1.97265625 5.04296875 C-0.89269484 2.88189715 -0.89269484 2.88189715 0 0 Z " fill="#1A9AD2" transform="translate(144,123)"/>
<path d="M0 0 C1.32 0.33 2.64 0.66 4 1 C4 1.99 4 2.98 4 4 C4.66 4 5.32 4 6 4 C6 4.66 6 5.32 6 6 C4.68 6 3.36 6 2 6 C2 5.34 2 4.68 2 4 C1.34 4 0.68 4 0 4 C0 2.68 0 1.36 0 0 Z " fill="#153B77" transform="translate(47,121)"/>
<path d="M0 0 C1.258125 -0.020625 2.51625 -0.04125 3.8125 -0.0625 C4.52019531 -0.07410156 5.22789062 -0.08570313 5.95703125 -0.09765625 C8 0 8 0 11 1 C11 1.66 11 2.32 11 3 C7.7 3 4.4 3 1 3 C0.67 2.01 0.34 1.02 0 0 Z " fill="#193866" transform="translate(123,58)"/>
<path d="M0 0 C0.33 0.66 0.66 1.32 1 2 C-0.28965176 3.37562854 -1.62689293 4.70766393 -3 6 C-3.66 6 -4.32 6 -5 6 C-5 6.66 -5 7.32 -5 8 C-6.65 8.33 -8.3 8.66 -10 9 C-6.83047153 5.73991357 -3.60062011 2.77762123 0 0 Z " fill="#25436A" transform="translate(178,41)"/>
<path d="M0 0 C0.99 0.33 1.98 0.66 3 1 C4.1875 3.5625 4.1875 3.5625 5 6 C2.69 6.33 0.38 6.66 -2 7 C-2 6.34 -2 5.68 -2 5 C-1.34 5 -0.68 5 0 5 C0 3.68 0 2.36 0 1 C0 0.67 0 0.34 0 0 Z " fill="#153469" transform="translate(134,145)"/>
<path d="M0 0 C2.64 1.65 5.28 3.3 8 5 C7.01 5.495 7.01 5.495 6 6 C6 6.66 6 7.32 6 8 C2.24623848 6.74874616 1.75926711 5.4347596 0 2 C0 1.34 0 0.68 0 0 Z " fill="#28416F" transform="translate(168,73)"/>
<path d="M0 0 C3.1875 0.875 3.1875 0.875 6 2 C5.67 2.66 5.34 3.32 5 4 C1.28400809 4.20086443 0.22791555 4.1519437 -3 2 C-2.01 1.34 -1.02 0.68 0 0 Z " fill="#284882" transform="translate(43,175)"/>
<path d="M0 0 C0.33 1.32 0.66 2.64 1 4 C0.34 4 -0.32 4 -1 4 C-1 4.66 -1 5.32 -1 6 C-2.98 6.66 -4.96 7.32 -7 8 C-6.02133662 6.85373678 -5.04205413 5.70800212 -4.0625 4.5625 C-3.51722656 3.92441406 -2.97195312 3.28632813 -2.41015625 2.62890625 C-1.63204305 1.73008851 -0.84063472 0.84063472 0 0 Z " fill="#E9F6FE" transform="translate(63,168)"/>
<path d="M0 0 C-3.75969244 2.0051693 -5.65764301 2 -10 2 C-9.67 1.01 -9.34 0.02 -9 -1 C-5.52718036 -2.61238055 -3.32673591 -1.57095862 0 0 Z " fill="#183D7E" transform="translate(147,146)"/>
<path d="M0 0 C-3.36423277 2.96052484 -6.69159287 3.92289822 -11 5 C-10.67 4.01 -10.34 3.02 -10 2 C-8.68 2 -7.36 2 -6 2 C-6 1.34 -6 0.68 -6 0 C-3 -1 -3 -1 0 0 Z " fill="#1490C6" transform="translate(155,135)"/>
<path d="M0 0 C2.64 0.33 5.28 0.66 8 1 C5.82575883 3.50037734 4.26954202 4.43628586 1 5 C0.67 3.35 0.34 1.7 0 0 Z " fill="#0F9FD3" transform="translate(153,129)"/>
<path d="M0 0 C0.66 0 1.32 0 2 0 C2.33 2.31 2.66 4.62 3 7 C1.35 6.67 -0.3 6.34 -2 6 C-1.49396008 3.83125748 -1.00016187 2.00032373 0 0 Z " fill="#0D3C73" transform="translate(138,124)"/>
<path d="M0 0 C0.33 0.66 0.66 1.32 1 2 C1.66 2.33 2.32 2.66 3 3 C1.75 4.5625 1.75 4.5625 0 6 C-2.1875 5.6875 -2.1875 5.6875 -4 5 C-2.68 3.35 -1.36 1.7 0 0 Z " fill="#57E9FB" transform="translate(124,120)"/>
<path d="M0 0 C1.32 0.66 2.64 1.32 4 2 C2.35 3.65 0.7 5.3 -1 7 C-1.04254356 5.00045254 -1.04080783 2.99958364 -1 1 C-0.67 0.67 -0.34 0.34 0 0 Z " fill="#109DC9" transform="translate(100,112)"/>
<path d="M0 0 C0.66 0 1.32 0 2 0 C2.33 0.99 2.66 1.98 3 3 C2.34 3 1.68 3 1 3 C0.67 2.01 0.34 1.02 0 0 Z M0 3 C1.485 3.99 1.485 3.99 3 5 C3 5.66 3 6.32 3 7 C2.34 7 1.68 7 1 7 C1 7.66 1 8.32 1 9 C0.34 9 -0.32 9 -1 9 C-1.042721 7.33388095 -1.04063832 5.66617115 -1 4 C-0.67 3.67 -0.34 3.34 0 3 Z " fill="#194181" transform="translate(39,89)"/>
<path d="M0 0 C2.97 0.33 5.94 0.66 9 1 C8.01 1.495 8.01 1.495 7 2 C7 2.66 7 3.32 7 4 C4.03 3.505 4.03 3.505 1 3 C0.67 2.01 0.34 1.02 0 0 Z " fill="#0F3A79" transform="translate(127,78)"/>
<path d="M0 0 C1.65 0 3.3 0 5 0 C1.63576723 2.96052484 -1.69159287 3.92289822 -6 5 C-6 4.01 -6 3.02 -6 2 C-4.02 2 -2.04 2 0 2 C0 1.34 0 0.68 0 0 Z " fill="#213D67" transform="translate(78,70)"/>
<path d="M0 0 C0.99 0.33 1.98 0.66 3 1 C2.484375 1.37125 1.96875 1.7425 1.4375 2.125 C-0.36319983 4.03173152 -0.36319983 4.03173152 0.3125 7.1875 C0.539375 8.115625 0.76625 9.04375 1 10 C0.01 10 -0.98 10 -2 10 C-2.1953125 3.9453125 -2.1953125 3.9453125 -2 2 C-1.34 1.34 -0.68 0.68 0 0 Z " fill="#D8E8F2" transform="translate(33,182)"/>
<path d="M0 0 C0.53625 0.391875 1.0725 0.78375 1.625 1.1875 C-0.99938979 2.93709319 -2.34047627 3.80818453 -5.375 4.1875 C-6.365 3.5275 -7.355 2.8675 -8.375 2.1875 C-2.95961538 -1.0125 -2.95961538 -1.0125 0 0 Z " fill="#284073" transform="translate(144.375,146.8125)"/>
<path d="M0 0 C0 3 0 3 -1 6 C-3.0625 6.6875 -3.0625 6.6875 -5 7 C-5.33 6.01 -5.66 5.02 -6 4 C-4.02 2.68 -2.04 1.36 0 0 Z " fill="#EBF2F6" transform="translate(166,137)"/>
<path d="M0 0 C0.33 0.99 0.66 1.98 1 3 C1.66 3 2.32 3 3 3 C3 3.66 3 4.32 3 5 C2.01 5 1.02 5 0 5 C-0.33 5.66 -0.66 6.32 -1 7 C-1.33 6.34 -1.66 5.68 -2 5 C-2.66 4.67 -3.32 4.34 -4 4 C-2.68 2.68 -1.36 1.36 0 0 Z " fill="#08427C" transform="translate(111,107)"/>
<path d="M0 0 C0.99 0.66 1.98 1.32 3 2 C0.03 4.475 0.03 4.475 -3 7 C-3.1875 4.625 -3.1875 4.625 -3 2 C-2.01 1.34 -1.02 0.68 0 0 Z " fill="#104488" transform="translate(51,103)"/>
<path d="M0 0 C1.98 1.65 3.96 3.3 6 5 C5.34 5.66 4.68 6.32 4 7 C3.01 6.67 2.02 6.34 1 6 C0.67 4.02 0.34 2.04 0 0 Z " fill="#3E4F82" transform="translate(174,96)"/>
<path d="M0 0 C0.33 0.66 0.66 1.32 1 2 C1.66 2.33 2.32 2.66 3 3 C1.35 4.32 -0.3 5.64 -2 7 C-2.99 6.34 -3.98 5.68 -5 5 C-3.35 3.35 -1.7 1.7 0 0 Z " fill="#6BE1F4" transform="translate(97,92)"/>
<path d="M0 0 C-5.625 3 -5.625 3 -9 3 C-8.67 2.01 -8.34 1.02 -8 0 C-5.04215769 -1.22393475 -3.00272755 -0.96516243 0 0 Z " fill="#094380" transform="translate(96,81)"/>
<path d="M0 0 C0.66 0 1.32 0 2 0 C3.625 2 3.625 2 5 4 C3.02 4.33 1.04 4.66 -1 5 C-1.33 4.01 -1.66 3.02 -2 2 C-1.34 1.34 -0.68 0.68 0 0 Z " fill="#14376B" transform="translate(62,156)"/>
<path d="M0 0 C-0.99 1.485 -0.99 1.485 -2 3 C-2.66 3 -3.32 3 -4 3 C-4 2.34 -4 1.68 -4 1 C-6.64 1 -9.28 1 -12 1 C-12 0.67 -12 0.34 -12 0 C-3.42857143 -1.28571429 -3.42857143 -1.28571429 0 0 Z " fill="#D9E9F5" transform="translate(132,154)"/>
<path d="M0 0 C1.98 0.99 3.96 1.98 6 3 C5.01 3.66 4.02 4.32 3 5 C0.3125 4.125 0.3125 4.125 -2 3 C-1.34 2.01 -0.68 1.02 0 0 Z " fill="#70D7F1" transform="translate(99,132)"/>
<path d="M0 0 C0.33 0.66 0.66 1.32 1 2 C1.66 2 2.32 2 3 2 C2.67 3.65 2.34 5.3 2 7 C0.68 5.68 -0.64 4.36 -2 3 C-1.34 2.01 -0.68 1.02 0 0 Z " fill="#2D4685" transform="translate(43,104)"/>
<path d="M0 0 C1.10844919 3.32534757 0.84454356 5.62182575 0 9 C-0.33 8.34 -0.66 7.68 -1 7 C-1.66 6.67 -2.32 6.34 -3 6 C-1.125 1.125 -1.125 1.125 0 0 Z " fill="#1F4E8B" transform="translate(122,95)"/>
<path d="M0 0 C0.66 0 1.32 0 2 0 C2 1.65 2 3.3 2 5 C0.35 5 -1.3 5 -3 5 C-3.33 4.34 -3.66 3.68 -4 3 C-2.68 2.67 -1.36 2.34 0 2 C0 1.34 0 0.68 0 0 Z " fill="#193C79" transform="translate(69,86)"/>
<path d="M0 0 C0.66 0.99 1.32 1.98 2 3 C1.375 4.9375 1.375 4.9375 0 7 C-3.125 7.75 -3.125 7.75 -6 8 C-6 7.34 -6 6.68 -6 6 C-4.02 5.67 -2.04 5.34 0 5 C0 4.34 0 3.68 0 3 C-0.66 2.67 -1.32 2.34 -2 2 C-1.34 2 -0.68 2 0 2 C0 1.34 0 0.68 0 0 Z " fill="#0D4381" transform="translate(134,80)"/>
<path d="M0 0 C1.65 0.33 3.3 0.66 5 1 C5 1.66 5 2.32 5 3 C3.02 3.33 1.04 3.66 -1 4 C-0.67 2.68 -0.34 1.36 0 0 Z " fill="#1C659D" transform="translate(129,82)"/>
<path d="M0 0 C-0.66 1.65 -1.32 3.3 -2 5 C-3.32 4.67 -4.64 4.34 -6 4 C-5.67 3.01 -5.34 2.02 -5 1 C-3 0 -3 0 0 0 Z " fill="#18396C" transform="translate(80,79)"/>
<path d="M0 0 C0.33 0.66 0.66 1.32 1 2 C-0.09445838 2.86657116 -1.20097781 3.71792724 -2.3125 4.5625 C-2.92738281 5.03816406 -3.54226562 5.51382813 -4.17578125 6.00390625 C-4.77777344 6.33261719 -5.37976563 6.66132812 -6 7 C-6.99 6.67 -7.98 6.34 -9 6 C-6.30351311 3.30351311 -3.33388038 1.85215576 0 0 Z " fill="#12326E" transform="translate(146,73)"/>
<path d="M0 0 C1.32 0.33 2.64 0.66 4 1 C3.34 1 2.68 1 2 1 C2 1.66 2 2.32 2 3 C-1 5 -1 5 -3.1875 4.625 C-3.785625 4.41875 -4.38375 4.2125 -5 4 C-5 3.34 -5 2.68 -5 2 C-3.35 2 -1.7 2 0 2 C0 1.34 0 0.68 0 0 Z " fill="#274D7F" transform="translate(134,59)"/>
<path d="M0 0 C-1.98 0.99 -1.98 0.99 -4 2 C-4 2.66 -4 3.32 -4 4 C-5.65 3.67 -7.3 3.34 -9 3 C-9 2.34 -9 1.68 -9 1 C-5.8035914 -0.06546953 -3.34252724 -0.07427838 0 0 Z " fill="#31517E" transform="translate(128,57)"/>
<path d="M0 0 C-0.3125 1.875 -0.3125 1.875 -1 4 C-1.99 4.66 -2.98 5.32 -4 6 C-4.99 5.67 -5.98 5.34 -7 5 C-2.25 0 -2.25 0 0 0 Z " fill="#193663" transform="translate(187,33)"/>
<path d="M0 0 C1.65 0 3.3 0 5 0 C5.33 1.32 5.66 2.64 6 4 C4.68 4 3.36 4 2 4 C2 3.34 2 2.68 2 2 C1.34 2 0.68 2 0 2 C0 1.34 0 0.68 0 0 Z " fill="#0F407F" transform="translate(96,142)"/>
<path d="M0 0 C1.65 0 3.3 0 5 0 C5.33 0.66 5.66 1.32 6 2 C3.525 3.485 3.525 3.485 1 5 C0.67 3.35 0.34 1.7 0 0 Z " fill="#0C4A7D" transform="translate(93,90)"/>
<path d="M0 0 C0.66 0 1.32 0 2 0 C1.67 1.32 1.34 2.64 1 4 C0.34 4 -0.32 4 -1 4 C-1.33 4.66 -1.66 5.32 -2 6 C-2.66 6 -3.32 6 -4 6 C-2.84826645 3.53199953 -1.95216435 1.95216435 0 0 Z " fill="#27406D" transform="translate(48,79)"/>
<path d="M0 0 C0.33 1.32 0.66 2.64 1 4 C-1.3431213 3.74438677 -3.67843403 3.40729228 -6 3 C-6.33 2.34 -6.66 1.68 -7 1 C-4.50935112 0.31292445 -2.62113708 0 0 0 Z " fill="#2A4B71" transform="translate(95,74)"/>
<path d="M0 0 C0 3 0 3 -1 6 C-1.66 6 -2.32 6 -3 6 C-3.33 6.66 -3.66 7.32 -4 8 C-4.66 8 -5.32 8 -6 8 C-4.55746343 4.63408134 -2.66735273 2.48952921 0 0 Z " fill="#E7F5FD" transform="translate(191,40)"/>
<path d="M0 0 C0.99 0.99 1.98 1.98 3 3 C2.34 3 1.68 3 1 3 C0.67 4.98 0.34 6.96 0 9 C-0.33 9 -0.66 9 -1 9 C-1.09765625 2.84765625 -1.09765625 2.84765625 -1 1 C-0.67 0.67 -0.34 0.34 0 0 Z " fill="#183361" transform="translate(41,108)"/>
<path d="M0 0 C1.32 0 2.64 0 4 0 C4.33 0.99 4.66 1.98 5 3 C4.34 3.66 3.68 4.32 3 5 C1.68 3.68 0.36 2.36 -1 1 C-0.67 0.67 -0.34 0.34 0 0 Z " fill="#1B3E84" transform="translate(165,95)"/>
<path d="M0 0 C0.99 0 1.98 0 3 0 C2.67 1.32 2.34 2.64 2 4 C0.68 4.33 -0.64 4.66 -2 5 C-1.34 3.35 -0.68 1.7 0 0 Z " fill="#1F3B87" transform="translate(93,86)"/>
<path d="M0 0 C0.99 0.33 1.98 0.66 3 1 C3 1.66 3 2.32 3 3 C4.32 2.67 5.64 2.34 7 2 C6.67 3.32 6.34 4.64 6 6 C2.535 4.02 2.535 4.02 -1 2 C-0.67 1.34 -0.34 0.68 0 0 Z " fill="#2A4779" transform="translate(160,77)"/>
<path d="M0 0 C3.68754757 0.49831724 5.60490662 1.10067643 8 4 C4 4 4 4 1.75 2 C1.1725 1.34 0.595 0.68 0 0 Z " fill="#DBEAF3" transform="translate(169,73)"/>
<path d="M0 0 C0.99 0.33 1.98 0.66 3 1 C2.34 1 1.68 1 1 1 C1.33 2.32 1.66 3.64 2 5 C-0.31 4.34 -2.62 3.68 -5 3 C-2 1 -2 1 0 0 Z " fill="#103470" transform="translate(84,65)"/>
<path d="M0 0 C1.32 1.32 2.64 2.64 4 4 C3.67 4.66 3.34 5.32 3 6 C1.35 6 -0.3 6 -2 6 C-1.34 5.67 -0.68 5.34 0 5 C-0.33 4.01 -0.66 3.02 -1 2 C-0.67 1.34 -0.34 0.68 0 0 Z " fill="#113972" transform="translate(128,61)"/>
<path d="M0 0 C0.99 0.33 1.98 0.66 3 1 C3.33 1.99 3.66 2.98 4 4 C2.68 4.33 1.36 4.66 0 5 C-0.33 4.01 -0.66 3.02 -1 2 C-0.67 1.34 -0.34 0.68 0 0 Z " fill="#1C3F86" transform="translate(165,55)"/>
</svg>
