<?xml version="1.0" encoding="UTF-8"?>
<svg version="1.1" xmlns="http://www.w3.org/2000/svg" width="512" height="512">
<path d="M0 0 C0.55961426 0.46937988 1.11922852 0.93875977 1.69580078 1.42236328 C8.10071577 6.80332211 14.38408157 12.19421183 20.2109375 18.20703125 C22.06917036 20.06932138 24.00473825 21.78592379 26 23.5 C32.17529874 28.8293674 37.77753424 34.61408458 43.08203125 40.8046875 C45.35241438 43.40337451 47.71014803 45.91285319 50.0625 48.4375 C61.68788324 61.35853664 61.68788324 61.35853664 61.6015625 72.10546875 C60.33745583 78.18795604 55.72413265 82.71782841 51.75 87.3125 C51.23405273 87.91006104 50.71810547 88.50762207 50.18652344 89.12329102 C39.03741952 101.92173878 27.25829287 113.98115956 14.72460938 125.42382812 C13.23031346 126.78950967 11.74694582 128.16713046 10.265625 129.546875 C4.03458115 135.28920953 -2.5705423 140.49367616 -9.27685547 145.66210938 C-10.84399113 146.87887099 -12.39373513 148.11794956 -13.94140625 149.359375 C-49.10659883 177.26677151 -90.08600231 198.99886655 -134 209 C-134.9060498 209.21027832 -135.81209961 209.42055664 -136.74560547 209.63720703 C-197.60107136 223.12859784 -260.20406971 204.05659738 -312 172 C-328.04964738 161.72185454 -343.43049595 150.2808863 -358 138 C-358.55961426 137.53062012 -359.11922852 137.06124023 -359.69580078 136.57763672 C-366.10071577 131.19667789 -372.38408157 125.80578817 -378.2109375 119.79296875 C-380.06917036 117.93067862 -382.00473825 116.21407621 -384 114.5 C-390.17529874 109.1706326 -395.77753424 103.38591542 -401.08203125 97.1953125 C-403.35241438 94.59662549 -405.71014803 92.08714681 -408.0625 89.5625 C-419.68788324 76.64146336 -419.68788324 76.64146336 -419.6015625 65.89453125 C-418.33745583 59.81204396 -413.72413265 55.28217159 -409.75 50.6875 C-408.9760791 49.79115845 -408.9760791 49.79115845 -408.18652344 48.87670898 C-397.03741952 36.07826122 -385.25829287 24.01884044 -372.72460938 12.57617188 C-371.23031346 11.21049033 -369.74694582 9.83286954 -368.265625 8.453125 C-362.03458115 2.71079047 -355.4294577 -2.49367616 -348.72314453 -7.66210938 C-347.15600887 -8.87887099 -345.60626487 -10.11794956 -344.05859375 -11.359375 C-308.89340117 -39.26677151 -267.91399769 -60.99886655 -224 -71 C-223.0939502 -71.21027832 -222.18790039 -71.42055664 -221.25439453 -71.63720703 C-140.29591966 -89.58534706 -60.62406765 -51.10107245 0 0 Z " fill="#D4D3D3" transform="translate(435,187)"/>
<path d="M0 0 C0.55961426 0.46937988 1.11922852 0.93875977 1.69580078 1.42236328 C8.10071577 6.80332211 14.38408157 12.19421183 20.2109375 18.20703125 C22.06917036 20.06932138 24.00473825 21.78592379 26 23.5 C32.17529874 28.8293674 37.77753424 34.61408458 43.08203125 40.8046875 C45.35241438 43.40337451 47.71014803 45.91285319 50.0625 48.4375 C61.68788324 61.35853664 61.68788324 61.35853664 61.6015625 72.10546875 C60.33745583 78.18795604 55.72413265 82.71782841 51.75 87.3125 C51.23405273 87.91006104 50.71810547 88.50762207 50.18652344 89.12329102 C39.03741952 101.92173878 27.25829287 113.98115956 14.72460938 125.42382812 C13.23031346 126.78950967 11.74694582 128.16713046 10.265625 129.546875 C4.03458115 135.28920953 -2.5705423 140.49367616 -9.27685547 145.66210938 C-10.84399113 146.87887099 -12.39373513 148.11794956 -13.94140625 149.359375 C-49.10659883 177.26677151 -90.08600231 198.99886655 -134 209 C-134.9060498 209.21027832 -135.81209961 209.42055664 -136.74560547 209.63720703 C-197.60107136 223.12859784 -260.20406971 204.05659738 -312 172 C-328.04964738 161.72185454 -343.43049595 150.2808863 -358 138 C-358.55961426 137.53062012 -359.11922852 137.06124023 -359.69580078 136.57763672 C-366.10071577 131.19667789 -372.38408157 125.80578817 -378.2109375 119.79296875 C-380.06917036 117.93067862 -382.00473825 116.21407621 -384 114.5 C-390.17529874 109.1706326 -395.77753424 103.38591542 -401.08203125 97.1953125 C-403.35241438 94.59662549 -405.71014803 92.08714681 -408.0625 89.5625 C-419.68788324 76.64146336 -419.68788324 76.64146336 -419.6015625 65.89453125 C-418.33745583 59.81204396 -413.72413265 55.28217159 -409.75 50.6875 C-408.9760791 49.79115845 -408.9760791 49.79115845 -408.18652344 48.87670898 C-397.03741952 36.07826122 -385.25829287 24.01884044 -372.72460938 12.57617188 C-371.23031346 11.21049033 -369.74694582 9.83286954 -368.265625 8.453125 C-362.03458115 2.71079047 -355.4294577 -2.49367616 -348.72314453 -7.66210938 C-347.15600887 -8.87887099 -345.60626487 -10.11794956 -344.05859375 -11.359375 C-308.89340117 -39.26677151 -267.91399769 -60.99886655 -224 -71 C-223.0939502 -71.21027832 -222.18790039 -71.42055664 -221.25439453 -71.63720703 C-140.29591966 -89.58534706 -60.62406765 -51.10107245 0 0 Z M-307 2 C-308.01562012 2.69488525 -308.01562012 2.69488525 -309.05175781 3.40380859 C-316.06979785 8.24095085 -322.82703162 13.33701405 -329.37109375 18.8046875 C-331.0971707 20.24607717 -332.83908849 21.66874722 -334.59765625 23.0703125 C-351.62535533 36.66237863 -366.6806725 52.5569607 -382 68 C-380.69149364 70.88793985 -379.29553519 72.95350175 -377.05419922 75.1887207 C-376.4595285 75.78646805 -375.86485779 76.38421539 -375.25216675 77.00007629 C-374.28816452 77.95330025 -374.28816452 77.95330025 -373.3046875 78.92578125 C-372.63841339 79.59159714 -371.97213928 80.25741302 -371.28567505 80.94340515 C-369.87412939 82.35193182 -368.46015619 83.75802933 -367.04394531 85.16186523 C-364.89858764 87.28911149 -362.76119566 89.42410443 -360.625 91.56054688 C-359.24786382 92.93276149 -357.8702736 94.30452063 -356.4921875 95.67578125 C-355.86166473 96.30519119 -355.23114197 96.93460114 -354.58151245 97.58308411 C-307.12697254 144.54420646 -243.16537829 181.23615942 -175.24023438 181.31689453 C-118.70228025 180.72460608 -63.36299914 150.00032115 -21.76928711 113.49780273 C-20.46362727 112.392487 -19.12893707 111.32125091 -17.77954102 110.26977539 C-8.40209311 102.89804709 -0.18632358 94.4072727 8.1875 85.9375 C9.72674288 84.38820413 11.26645298 82.83937229 12.80664062 81.29101562 C16.54316053 77.5326734 20.27388474 73.76865643 24 70 C22.68258729 67.08860913 21.26245153 65.01041392 19.01000977 62.7512207 C18.40500137 62.13990799 17.79999298 61.52859528 17.176651 60.89875793 C16.52152023 60.24767563 15.86638947 59.59659332 15.19140625 58.92578125 C14.51005112 58.24251266 13.82869598 57.55924408 13.12669373 56.85527039 C11.68075346 55.40796944 10.23228566 53.9631899 8.78149414 52.52075195 C6.59489497 50.34473815 4.41901227 48.15843067 2.24414062 45.97070312 C-5.20224728 38.51722211 -12.70234541 31.5034209 -21 25 C-22.11441266 24.05450692 -23.22241328 23.10133787 -24.3203125 22.13671875 C-32.76826426 14.7594684 -41.71344261 8.27958048 -51 2 C-51.7017334 1.52530273 -52.4034668 1.05060547 -53.12646484 0.56152344 C-134.79558657 -54.28889157 -222.98446042 -55.05877636 -307 2 Z " fill="#400E00" transform="translate(435,187)"/>
<path d="M0 0 C4.61717626 3.71043417 8.84492723 7.78584337 13 12 C13.74894531 12.73863281 14.49789062 13.47726563 15.26953125 14.23828125 C31.97544177 31.7350041 39.54268163 56.16203971 39.42407227 79.94213867 C38.70812096 106.58661603 27.76771112 129.49541838 9 148 C8.26136719 148.74894531 7.52273438 149.49789062 6.76171875 150.26953125 C-10.89381327 167.12707312 -35.97087598 174.57801344 -59.94897461 174.41967773 C-86.54532941 173.67268357 -108.27251539 162.4610908 -127 144 C-127.73089844 143.28199219 -128.46179688 142.56398438 -129.21484375 141.82421875 C-145.98502338 124.19062393 -153.59706436 99.2120666 -153.48779297 75.26196289 C-152.98974445 58.67873649 -148.57496076 43.17071733 -140 29 C-139.32066406 27.87335938 -138.64132813 26.74671875 -137.94140625 25.5859375 C-124.04187633 4.21381626 -102.69645301 -10.809843 -77.8125 -16.4375 C-51.13977473 -21.83048039 -22.01918387 -16.28319554 0 0 Z " fill="#400F01" transform="translate(313,178)"/>
<path d="M0 0 C14.02914116 10.61996175 25.72571595 25.77558454 28.234375 43.69140625 C29.99865151 62.54178049 25.82674344 79.24676158 14.171875 94.3671875 C5.83722937 104.17527942 -3.71765215 110.3639711 -15.765625 114.69140625 C-16.51714844 115.01109375 -17.26867187 115.33078125 -18.04296875 115.66015625 C-30.77007309 120.49153505 -47.48680932 118.84386437 -59.765625 113.69140625 C-78.03873134 105.21352322 -89.70210844 92.0934869 -97.03125 73.4765625 C-102.21629332 57.83014658 -101.33328718 40.88413382 -94.03515625 26.0703125 C-84.81908921 8.4792152 -70.36491368 -2.99483517 -51.640625 -9.24609375 C-33.97570133 -13.34456356 -15.13730437 -9.99584064 0 0 Z " fill="#00BBE3" transform="translate(291.765625,202.30859375)"/>
</svg>
