<?xml version="1.0" encoding="UTF-8"?>
<svg version="1.1" xmlns="http://www.w3.org/2000/svg" width="225" height="225">
<path d="M0 0 C74.25 0 148.5 0 225 0 C225 74.25 225 148.5 225 225 C150.75 225 76.5 225 0 225 C0 150.75 0 76.5 0 0 Z " fill="#FEFEFE" transform="translate(0,0)"/>
<path d="M0 0 C1.2684375 -0.01611328 2.536875 -0.03222656 3.84375 -0.04882812 C28.3163239 -0.06131413 50.87368203 9.39200333 69.25 25.3125 C67.61221955 29.50875909 64.51676818 32.29926785 61.3671875 35.390625 C60.79292023 35.96206238 60.21865295 36.53349976 59.62698364 37.12225342 C57.7976419 38.94042945 55.96145807 40.75151492 54.125 42.5625 C52.88105226 43.79641329 51.6375573 45.03078322 50.39453125 46.265625 C47.35157633 49.28656743 44.30246746 52.30117092 41.25 55.3125 C37.8297381 53.99300452 35.08131123 52.60696033 32.125 50.4375 C18.85774129 41.34820551 1.49109215 40.12658915 -14.06591797 42.69482422 C-28.72490626 46.29042512 -41.23511074 56.24547837 -49.5 68.625 C-58.7520505 83.90164152 -62.20289217 102.02378577 -57.87890625 119.65234375 C-56.71746626 123.03765573 -55.38289717 126.12980476 -53.75 129.3125 C-53.25371094 130.34117187 -52.75742187 131.36984375 -52.24609375 132.4296875 C-44.58366024 146.94215194 -32.36418498 156.76075425 -16.8125 161.6875 C0.47960116 166.61585597 17.68386654 164.64064165 33.5 156.06640625 C46.22319854 147.95175264 51.11063316 138.4457588 56.25 124.3125 C37.77 124.3125 19.29 124.3125 0.25 124.3125 C0.25 111.1125 0.25 97.9125 0.25 84.3125 C32.59 84.3125 64.93 84.3125 98.25 84.3125 C102.32340007 100.60610028 100.86510284 123.56239729 95.25 139.3125 C95.03037598 139.9509082 94.81075195 140.58931641 94.58447266 141.24707031 C86.46657836 164.53790081 71.26130531 183.76029123 49.25 195.3125 C24.30991443 207.03708663 -6.69601057 210.12527405 -32.9609375 200.87109375 C-48.85093956 194.90944074 -61.88038018 186.38887822 -73.75 174.3125 C-74.49894531 173.56226563 -75.24789062 172.81203125 -76.01953125 172.0390625 C-93.41300391 153.58208362 -102.41617369 128.47807312 -102.3125 103.375 C-102.3120166 102.65216827 -102.3115332 101.92933655 -102.31103516 101.18460083 C-102.25229327 88.50317152 -100.63774788 77.08752897 -95.75 65.3125 C-95.45029297 64.58836914 -95.15058594 63.86423828 -94.84179688 63.11816406 C-83.41858203 36.52462887 -63.11282372 17.79033131 -36.75 6.3125 C-24.5066039 1.47542557 -13.12621334 -0.03294732 0 0 Z " fill="#34A853" transform="translate(111.75,9.6875)"/>
<path d="M0 0 C1.2684375 -0.01611328 2.536875 -0.03222656 3.84375 -0.04882812 C28.3163239 -0.06131413 50.87368203 9.39200333 69.25 25.3125 C67.61221955 29.50875909 64.51676818 32.29926785 61.3671875 35.390625 C60.79292023 35.96206238 60.21865295 36.53349976 59.62698364 37.12225342 C57.7976419 38.94042945 55.96145807 40.75151492 54.125 42.5625 C52.88105226 43.79641329 51.6375573 45.03078322 50.39453125 46.265625 C47.35157633 49.28656743 44.30246746 52.30117092 41.25 55.3125 C37.8297381 53.99300452 35.08131123 52.60696033 32.125 50.4375 C18.85774129 41.34820551 1.49109215 40.12658915 -14.06591797 42.69482422 C-28.72490626 46.29042512 -41.23511074 56.24547837 -49.5 68.625 C-54.58920762 77.02811025 -58.87132616 85.95657979 -58.8828125 95.890625 C-58.88410156 96.96957031 -58.88539062 98.04851562 -58.88671875 99.16015625 C-58.88091797 100.84431641 -58.88091797 100.84431641 -58.875 102.5625 C-58.87886719 103.66980469 -58.88273437 104.77710937 -58.88671875 105.91796875 C-58.88106172 110.67552902 -58.86325726 115.09016832 -57.828125 119.7421875 C-57.75 123.3125 -57.75 123.3125 -58.86474609 124.88671875 C-60.61315289 126.49264708 -62.42354873 127.83581205 -64.375 129.1875 C-65.05344971 129.69144287 -65.73189941 130.19538574 -66.4309082 130.71459961 C-67.83374406 131.75508657 -69.24477728 132.78460753 -70.66357422 133.80322266 C-73.24191708 135.66834266 -75.75156986 137.61286044 -78.26123047 139.56884766 C-80.74291417 141.50258022 -83.24575802 143.40811973 -85.75 145.3125 C-86.46800781 145.91964844 -87.18601562 146.52679688 -87.92578125 147.15234375 C-88.52777344 147.53519531 -89.12976563 147.91804687 -89.75 148.3125 C-92.75 147.3125 -92.75 147.3125 -93.70141602 145.59765625 C-93.96623779 144.86417969 -94.23105957 144.13070312 -94.50390625 143.375 C-94.80103516 142.56160156 -95.09816406 141.74820313 -95.40429688 140.91015625 C-95.70400391 140.05292969 -96.00371094 139.19570312 -96.3125 138.3125 C-96.76786133 137.07306641 -96.76786133 137.07306641 -97.23242188 135.80859375 C-101.11411987 125.00072874 -102.22804839 115.02366016 -102.25 103.5625 C-102.25201416 102.8321756 -102.25402832 102.1018512 -102.25610352 101.34939575 C-102.23235519 88.57821188 -100.68604512 77.20388143 -95.75 65.3125 C-95.45029297 64.58836914 -95.15058594 63.86423828 -94.84179688 63.11816406 C-83.41858203 36.52462887 -63.11282372 17.79033131 -36.75 6.3125 C-24.5066039 1.47542557 -13.12621334 -0.03294732 0 0 Z " fill="#EA4335" transform="translate(111.75,9.6875)"/>
<path d="M0 0 C32.34 0 64.68 0 98 0 C102.07340007 16.29360028 100.61510284 39.24989729 95 55 C94.78037598 55.6384082 94.56075195 56.27681641 94.33447266 56.93457031 C89.04793075 72.10204441 81.00863843 87.1408214 68 97 C67.319375 96.41734375 66.63875 95.8346875 65.9375 95.234375 C58.06412269 88.57550802 49.92611336 82.34230799 41.63671875 76.21142578 C39.75145641 74.81603918 37.87409084 73.41034898 36 72 C37.3961114 68.70916598 38.93746607 67.04435757 41.75 64.875 C49.79154374 58.02803341 52.40399303 49.88901917 56 40 C37.52 40 19.04 40 0 40 C0 26.8 0 13.6 0 0 Z " fill="#4385F3" transform="translate(112,94)"/>
<path d="M0 0 C0.4861377 0.36496582 0.97227539 0.72993164 1.47314453 1.10595703 C5.60571792 4.20712261 9.7434705 7.30113718 13.88696289 10.38769531 C15.94808233 11.92967488 17.99951612 13.48400543 20.05078125 15.0390625 C22.43078534 16.84023952 24.82913254 18.58906391 27.29296875 20.2734375 C28.66388672 21.25183594 28.66388672 21.25183594 30.0625 22.25 C30.85785156 22.79140625 31.65320312 23.3328125 32.47265625 23.890625 C34 26 34 26 33.75390625 29.453125 C33.62717529 30.15147461 33.50044434 30.84982422 33.36987305 31.56933594 C32.61936966 36.50135687 32.85732648 41.52195921 32.875 46.5 C32.87113281 47.58925781 32.86726563 48.67851563 32.86328125 49.80078125 C32.86895308 54.49138657 32.90238922 58.82800853 33.921875 63.4140625 C34 67 34 67 32.88525391 68.57519531 C31.13663425 70.1802597 29.32610444 71.52355229 27.375 72.875 C26.69655029 73.37894287 26.01810059 73.88288574 25.3190918 74.40209961 C23.91625594 75.44258657 22.50522272 76.47210753 21.08642578 77.49072266 C18.50808292 79.35584266 15.99843014 81.30036044 13.48876953 83.25634766 C11.00708583 85.19008022 8.50424198 87.09561973 6 89 C5.28199219 89.60714844 4.56398438 90.21429688 3.82421875 90.83984375 C3.22222656 91.22269531 2.62023437 91.60554688 2 92 C-1 91 -1 91 -1.95141602 89.28515625 C-2.34864868 88.18494141 -2.34864868 88.18494141 -2.75390625 87.0625 C-3.05103516 86.24910156 -3.34816406 85.43570313 -3.65429688 84.59765625 C-3.95400391 83.74042969 -4.25371094 82.88320312 -4.5625 82 C-4.86607422 81.17371094 -5.16964844 80.34742188 -5.48242188 79.49609375 C-9.36481572 68.68629128 -10.47221028 58.71228837 -10.5 47.25 C-10.50334351 46.52200195 -10.50668701 45.79400391 -10.51013184 45.04394531 C-10.51463407 28.64139756 -6.84456895 14.8665092 0 0 Z " fill="#FABC06" transform="translate(20,66)"/>
</svg>
