<?xml version="1.0" encoding="UTF-8"?>
<svg version="1.1" xmlns="http://www.w3.org/2000/svg" width="225" height="225">
<path d="M0 0 C74.25 0 148.5 0 225 0 C225 74.25 225 148.5 225 225 C150.75 225 76.5 225 0 225 C0 150.75 0 76.5 0 0 Z " fill="#FEFEFE" transform="translate(0,0)"/>
<path d="M0 0 C2.1307446 -0.00216246 4.26095004 -0.02027414 6.39160156 -0.03930664 C14.87210088 -0.07497114 23.3991986 0.08027089 31.66503906 2.18530273 C32.65503906 3.17530273 32.65503906 3.17530273 33.66503906 4.18530273 C33.41994974 10.43508033 31.03135732 15.70538512 28.54003906 21.37280273 C28.13479004 22.3024585 27.72954102 23.23211426 27.31201172 24.18994141 C15.59946915 50.62267473 15.59946915 50.62267473 4.29394531 55.55639648 C-3.52002713 57.42571233 -13.2817605 57.88906351 -20.52246094 53.99780273 C-22.53027344 52.63061523 -22.53027344 52.63061523 -24.33496094 51.18530273 C-24.95113281 50.70834961 -25.56730469 50.23139648 -26.20214844 49.73999023 C-27.61658541 48.59931525 -28.98261488 47.39894663 -30.33496094 46.18530273 C-31.32496094 50.80530273 -32.31496094 55.42530273 -33.33496094 60.18530273 C-25.41496094 60.18530273 -17.49496094 60.18530273 -9.33496094 60.18530273 C-8.83996094 62.66030273 -8.83996094 62.66030273 -8.33496094 65.18530273 C-10.33496094 67.18530273 -10.33496094 67.18530273 -13.45996094 67.31030273 C-14.40871094 67.26905273 -15.35746094 67.22780273 -16.33496094 67.18530273 C-17.48477499 94.09683911 -18.294648 114.95259355 -1.5390625 137.11450195 C2.30975482 142.47675542 5.33911394 148.25980937 8.47753906 154.06030273 C9.60644594 156.10080781 10.73775645 158.13998594 11.87207031 160.17749023 C12.34104736 161.02682129 12.81002441 161.87615234 13.29321289 162.7512207 C14.26492946 164.47537343 15.27014311 166.18084319 16.2980957 167.87207031 C19.26248107 172.88860029 19.39084444 178.49565596 18.66503906 184.18530273 C16.43090168 190.53706553 12.70391387 195.15979 6.66503906 198.18530273 C2.05937446 199.99062382 -1.82249989 200.45105099 -6.75805664 200.49169922 C-7.47599396 200.50002274 -8.19393127 200.50834625 -8.93362427 200.516922 C-11.29271974 200.54089683 -13.65153803 200.54977875 -16.01074219 200.55639648 C-17.66212542 200.5653726 -19.31350787 200.57449461 -20.96488953 200.58375549 C-24.4221697 200.60021423 -27.87935339 200.60793986 -31.33666992 200.61083984 C-35.74827014 200.61621935 -40.15895288 200.6538942 -44.57029438 200.69958401 C-47.98057803 200.72945218 -51.39064334 200.73656551 -54.80104637 200.73756599 C-56.42643624 200.74174924 -58.0518279 200.75410679 -59.67708778 200.77508354 C-69.38436849 200.89040038 -77.45892732 200.73266646 -84.90083313 193.70701599 C-90.15368889 187.87938535 -90.88438208 182.16278444 -90.75 174.57446289 C-90.07177533 169.03616005 -87.65308857 165.02821166 -84.70996094 160.37280273 C-84.13036621 159.40431396 -83.55077148 158.4358252 -82.95361328 157.43798828 C-81.72770218 155.39113403 -80.49065039 153.35091551 -79.24316406 151.31713867 C-76.68255779 147.1145469 -74.22038104 142.8577708 -71.75537109 138.59863281 C-70.05384824 135.6599543 -68.34153855 132.72793822 -66.62402344 129.79858398 C-66.09204346 128.86320801 -65.56006348 127.92783203 -65.01196289 126.96411133 C-63.33496094 124.18530273 -63.33496094 124.18530273 -61.39819336 121.62915039 C-54.30423345 111.65482071 -55.33037339 100.67470443 -55.39746094 88.93530273 C-55.38433181 86.82199959 -55.36808194 84.70871341 -55.34863281 82.59545898 C-55.30807303 77.45822931 -55.30981549 72.3226138 -55.33496094 67.18530273 C-56.44871094 67.22655273 -57.56246094 67.26780273 -58.70996094 67.31030273 C-62.33496094 67.18530273 -62.33496094 67.18530273 -64.33496094 65.18530273 C-63.79924665 61.64958845 -63.79924665 61.64958845 -62.33496094 60.18530273 C-60.77323349 60.0984467 -59.20766749 60.07828054 -57.64355469 60.08764648 C-56.69931641 60.09086914 -55.75507812 60.0940918 -54.78222656 60.09741211 C-53.78900391 60.10579102 -52.79578125 60.11416992 -51.77246094 60.12280273 C-50.77537109 60.12731445 -49.77828125 60.13182617 -48.75097656 60.13647461 C-46.27891245 60.14830267 -43.80696576 60.16478424 -41.33496094 60.18530273 C-44.20439476 53.80918135 -46.52719874 49.23722985 -52.33496094 45.18530273 C-52.58246094 45.90717773 -52.82996094 46.62905273 -53.08496094 47.37280273 C-55.9152056 53.74085323 -60.29388402 57.06217995 -66.33496094 60.18530273 C-74.45529608 63.28579433 -81.81604928 63.14046525 -89.73730469 59.62670898 C-101.82954955 52.91687687 -111.1253595 41.49065897 -119.58496094 30.74780273 C-120.70644531 29.32661133 -120.70644531 29.32661133 -121.85058594 27.87670898 C-123.33496094 25.18530273 -123.33496094 25.18530273 -123.44824219 22.55249023 C-121.81449268 19.07862286 -119.7151435 18.36629048 -116.27246094 16.74780273 C-115.65338867 16.45558838 -115.03431641 16.16337402 -114.39648438 15.86230469 C-83.07347579 1.39320149 -83.07347579 1.39320149 -67.63183594 5.98999023 C-60.45591093 9.18173602 -54.72452436 14.3729875 -51.20996094 21.45092773 C-49.81755625 25.28004061 -49.31521944 28.56787133 -49.27246094 32.62280273 C-48.80730583 39.20474755 -43.0065008 43.12420002 -38.33496094 47.18530273 C-37.63269953 45.94353578 -36.94866985 44.69144674 -36.27246094 43.43530273 C-35.88960938 42.73920898 -35.50675781 42.04311523 -35.11230469 41.32592773 C-34.16777274 38.7249051 -34.54525305 37.79519099 -35.33496094 35.18530273 C-36.18349319 24.91945353 -35.01359959 16.52429052 -28.52246094 8.31030273 C-20.49138987 -0.28862184 -11.02179633 -0.0012485 0 0 Z " fill="#0A0A0A" transform="translate(157.3349609375,12.814697265625)"/>
<path d="M0 0 C2.1307446 -0.00216246 4.26095004 -0.02027414 6.39160156 -0.03930664 C14.87210088 -0.07497114 23.3991986 0.08027089 31.66503906 2.18530273 C32.65503906 3.17530273 32.65503906 3.17530273 33.66503906 4.18530273 C33.41994974 10.43508033 31.03135732 15.70538512 28.54003906 21.37280273 C28.13479004 22.3024585 27.72954102 23.23211426 27.31201172 24.18994141 C15.59946915 50.62267473 15.59946915 50.62267473 4.29394531 55.55639648 C-3.52002713 57.42571233 -13.2817605 57.88906351 -20.52246094 53.99780273 C-22.53027344 52.63061523 -22.53027344 52.63061523 -24.33496094 51.18530273 C-24.95113281 50.70834961 -25.56730469 50.23139648 -26.20214844 49.73999023 C-27.61658541 48.59931525 -28.98261488 47.39894663 -30.33496094 46.18530273 C-31.32496094 50.80530273 -32.31496094 55.42530273 -33.33496094 60.18530273 C-25.41496094 60.18530273 -17.49496094 60.18530273 -9.33496094 60.18530273 C-8.83996094 62.66030273 -8.83996094 62.66030273 -8.33496094 65.18530273 C-8.99496094 65.84530273 -9.65496094 66.50530273 -10.33496094 67.18530273 C-12.31496094 67.18530273 -14.29496094 67.18530273 -16.33496094 67.18530273 C-16.33496094 81.70530273 -16.33496094 96.22530273 -16.33496094 111.18530273 C-16.99496094 110.19530273 -17.65496094 109.20530273 -18.33496094 108.18530273 C-19.81996094 107.69030273 -19.81996094 107.69030273 -21.33496094 107.18530273 C-23.49344797 102.50693677 -23.60136166 98.00216917 -23.53027344 92.94311523 C-23.52744354 92.17474335 -23.52461365 91.40637146 -23.521698 90.61471558 C-23.51057405 88.17974753 -23.48548454 85.74515812 -23.45996094 83.31030273 C-23.44992105 81.65145391 -23.44079697 79.99259927 -23.43261719 78.33374023 C-23.41066031 74.28411694 -23.376185 70.23477386 -23.33496094 66.18530273 C-26.96496094 66.18530273 -30.59496094 66.18530273 -34.33496094 66.18530273 C-34.32972412 67.14831299 -34.3244873 68.11132324 -34.3190918 69.10351562 C-34.30088785 72.70230161 -34.28947303 76.30108359 -34.2800293 79.89990234 C-34.2750241 81.4526437 -34.26821793 83.0053804 -34.25952148 84.55810547 C-34.24728787 86.79973505 -34.24169437 89.04130191 -34.23730469 91.28295898 C-34.2321434 91.9686647 -34.22698212 92.65437042 -34.22166443 93.3608551 C-34.22116234 97.74922094 -34.62585425 101.86932118 -35.33496094 106.18530273 C-35.99496094 104.86530273 -36.65496094 103.54530273 -37.33496094 102.18530273 C-37.99496094 102.18530273 -38.65496094 102.18530273 -39.33496094 102.18530273 C-39.82996094 103.67030273 -39.82996094 103.67030273 -40.33496094 105.18530273 C-40.33496094 92.64530273 -40.33496094 80.10530273 -40.33496094 67.18530273 C-42.97496094 67.18530273 -45.61496094 67.18530273 -48.33496094 67.18530273 C-48.3244873 68.21413574 -48.31401367 69.24296875 -48.30322266 70.30297852 C-48.26688495 74.13839202 -48.24401055 77.97379044 -48.22509766 81.80932617 C-48.21507137 83.46592777 -48.20144688 85.12251181 -48.18408203 86.77905273 C-48.15968473 89.16711779 -48.148444 91.55494781 -48.13964844 93.94311523 C-48.12932587 94.6777298 -48.1190033 95.41234436 -48.10836792 96.16921997 C-48.10742026 100.56226633 -48.71219757 104.10312636 -50.33496094 108.18530273 C-52.31496094 107.69030273 -52.31496094 107.69030273 -54.33496094 107.18530273 C-55.08164817 101.87323026 -55.45429878 96.78108883 -55.43261719 91.40405273 C-55.43120224 90.70509888 -55.42978729 90.00614502 -55.42832947 89.28601074 C-55.42279764 87.08572844 -55.41025871 84.88555351 -55.39746094 82.68530273 C-55.3924371 81.18009589 -55.38787575 79.67488742 -55.38378906 78.16967773 C-55.37285071 74.50818539 -55.35563453 70.84675456 -55.33496094 67.18530273 C-56.44871094 67.22655273 -57.56246094 67.26780273 -58.70996094 67.31030273 C-62.33496094 67.18530273 -62.33496094 67.18530273 -64.33496094 65.18530273 C-63.79924665 61.64958845 -63.79924665 61.64958845 -62.33496094 60.18530273 C-60.77323349 60.0984467 -59.20766749 60.07828054 -57.64355469 60.08764648 C-56.69931641 60.09086914 -55.75507812 60.0940918 -54.78222656 60.09741211 C-53.78900391 60.10579102 -52.79578125 60.11416992 -51.77246094 60.12280273 C-50.77537109 60.12731445 -49.77828125 60.13182617 -48.75097656 60.13647461 C-46.27891245 60.14830267 -43.80696576 60.16478424 -41.33496094 60.18530273 C-44.20439476 53.80918135 -46.52719874 49.23722985 -52.33496094 45.18530273 C-52.58246094 45.90717773 -52.82996094 46.62905273 -53.08496094 47.37280273 C-55.9152056 53.74085323 -60.29388402 57.06217995 -66.33496094 60.18530273 C-74.45529608 63.28579433 -81.81604928 63.14046525 -89.73730469 59.62670898 C-101.82954955 52.91687687 -111.1253595 41.49065897 -119.58496094 30.74780273 C-120.70644531 29.32661133 -120.70644531 29.32661133 -121.85058594 27.87670898 C-123.33496094 25.18530273 -123.33496094 25.18530273 -123.44824219 22.55249023 C-121.81449268 19.07862286 -119.7151435 18.36629048 -116.27246094 16.74780273 C-115.65338867 16.45558838 -115.03431641 16.16337402 -114.39648438 15.86230469 C-83.07347579 1.39320149 -83.07347579 1.39320149 -67.63183594 5.98999023 C-60.45591093 9.18173602 -54.72452436 14.3729875 -51.20996094 21.45092773 C-49.81755625 25.28004061 -49.31521944 28.56787133 -49.27246094 32.62280273 C-48.80730583 39.20474755 -43.0065008 43.12420002 -38.33496094 47.18530273 C-37.63269953 45.94353578 -36.94866985 44.69144674 -36.27246094 43.43530273 C-35.88960938 42.73920898 -35.50675781 42.04311523 -35.11230469 41.32592773 C-34.16777274 38.7249051 -34.54525305 37.79519099 -35.33496094 35.18530273 C-36.18349319 24.91945353 -35.01359959 16.52429052 -28.52246094 8.31030273 C-20.49138987 -0.28862184 -11.02179633 -0.0012485 0 0 Z " fill="#060606" transform="translate(157.3349609375,12.814697265625)"/>
<path d="M0 0 C10.56 0 21.12 0 32 0 C32.66 2.31 33.32 4.62 34 7 C35.32 7 36.64 7 38 7 C38.33 4.69 38.66 2.38 39 0 C43.83741072 -0.32338703 48.66845939 -0.55803078 53.51416016 -0.71411133 C55.15817831 -0.77918099 56.80145253 -0.86768697 58.44287109 -0.98071289 C69.3624843 -1.71332811 69.3624843 -1.71332811 74 0 C77.95033367 3.90975747 79.81534435 7.88217183 82 13 C82.99875173 14.66741499 83.99843641 16.33427249 85 18 C85.98380292 23.54594786 85.16950817 28.30038444 82 33 C77.06961636 37.56060486 73.5548636 38.12668205 66.96166992 38.17700195 C66.24910538 38.18357315 65.53654083 38.19014435 64.80238342 38.19691467 C62.44507742 38.21661934 60.08783504 38.22830375 57.73046875 38.23828125 C56.52121451 38.24439454 56.52121451 38.24439454 55.2875309 38.25063133 C51.02071006 38.27147976 46.75392128 38.28578691 42.48706055 38.29516602 C38.08533141 38.30622946 33.68410792 38.34063174 29.28255749 38.38033772 C25.89300104 38.4065103 22.503565 38.41485838 19.1139164 38.41844749 C17.49163713 38.42331162 15.86936318 38.43492074 14.24718285 38.45348549 C11.97322113 38.47789238 9.70056687 38.47690987 7.42651367 38.4699707 C6.13428391 38.47583694 4.84205414 38.48170319 3.51066589 38.48774719 C-1.60183587 37.77745221 -4.56344295 35.24753638 -8.375 31.9375 C-11.0426637 27.11518485 -11.24513786 23.36739037 -10 18 C-7.21496659 11.68399069 -3.55681605 5.91320668 0 0 Z " fill="#FCFCFC" transform="translate(84,168)"/>
<path d="M0 0 C5.32261066 3.85889273 8.70956156 7.9215744 11.5 13.8125 C11.56541952 15.81142979 11.57589466 17.81394052 11.5 19.8125 C10.28376953 19.30589844 10.28376953 19.30589844 9.04296875 18.7890625 C-3.78466049 13.6221711 -14.85762239 12.5043911 -28.5 12.8125 C-28.5 14.1325 -28.5 15.4525 -28.5 16.8125 C-27.91734375 16.87195801 -27.3346875 16.93141602 -26.734375 16.99267578 C-14.04791166 18.34659669 -2.03290149 20.08592789 9.5 25.8125 C9.995 26.8025 9.995 26.8025 10.5 27.8125 C6.74280446 34.57545198 3.01636931 39.31493476 -4.5 41.8125 C-10.90092138 43.13061566 -15.53241642 42.22586363 -21.125 38.875 C-30.81966758 32.00335352 -41.60832413 21.79956255 -46.5 10.8125 C-32.98690933 3.34055575 -15.56523699 -5.28106255 0 0 Z " fill="#F8F8F8" transform="translate(89.5,26.1875)"/>
<path d="M0 0 C0.86463867 0.00386719 1.72927734 0.00773437 2.62011719 0.01171875 C10.34176206 0.11418068 17.82741068 0.9585909 25.4375 2.25 C22.29075069 15.88591369 14.93403794 30.93630445 4.875 40.75 C-0.179197 43.86027508 -4.65999656 44.7588365 -10.5625 44.25 C-15.61503607 42.92901252 -19.82672797 40.98577203 -23.5625 37.25 C-24.27196814 35.60109819 -24.94503437 33.93551429 -25.5625 32.25 C-14.18537424 21.33914988 -5.81899038 18.53847356 9.4375 16.25 C8.9425 13.775 8.9425 13.775 8.4375 11.25 C-4.95871424 11.48767477 -14.79817649 15.45672119 -25.5625 23.25 C-26.5525 23.91 -27.5425 24.57 -28.5625 25.25 C-29.15418901 18.83346137 -28.87479166 14.31693801 -25.04296875 9.00390625 C-18.17336424 0.86550935 -10.13865141 -0.11058911 0 0 Z " fill="#F8F8F8" transform="translate(157.5625,18.75)"/>
<path d="M0 0 C3.63 0 7.26 0 11 0 C10.95697754 1.32314209 10.91395508 2.64628418 10.86962891 4.00952148 C9.25581519 39.40417226 9.25581519 39.40417226 24.16308594 70.44506836 C26.77559118 74.07875621 28.82657176 78.08782916 31 82 C20.77 82 10.54 82 0 82 C0 54.94 0 27.88 0 0 Z " fill="#F3F3F3" transform="translate(123,79)"/>
<path d="M0 0 C2.31 0 4.62 0 7 0 C7 26.73 7 53.46 7 81 C-1.91 81 -10.82 81 -20 81 C-18.33960448 76.84901119 -16.56012407 73.31042615 -14.33984375 69.45703125 C-13.9899086 68.84736008 -13.63997345 68.2376889 -13.2794342 67.60954285 C-12.16851124 65.67541897 -11.05316393 63.74389229 -9.9375 61.8125 C-8.81921578 59.8698627 -7.70184023 57.9267061 -6.58485413 55.98332214 C-5.57496225 54.22732994 -4.56280539 52.47264094 -3.55053711 50.71801758 C-1.58686109 47.2757872 -0.86978228 45.47718753 -0.79467773 41.55029297 C-0.77473251 40.62948944 -0.75478729 39.70868591 -0.73423767 38.75997925 C-0.71752518 37.76410797 -0.70081268 36.76823669 -0.68359375 35.7421875 C-0.66281265 34.72399933 -0.64203156 33.70581116 -0.62062073 32.6567688 C-0.55510534 29.39624945 -0.49623098 26.13564794 -0.4375 22.875 C-0.39431668 20.66796017 -0.35070245 18.46092872 -0.30664062 16.25390625 C-0.19942195 10.83602499 -0.09765926 5.41806154 0 0 Z " fill="#FBFBFB" transform="translate(109,80)"/>
<path d="M0 0 C4.89051187 1.81130069 7.6998441 5.83307349 10.3125 10.1875 C11 12 11 12 11 15 C4.07 15 -2.86 15 -10 15 C-8.83757091 10.35028363 -7.36146612 9.28329249 -4 6 C-2.56213727 4.05058996 -1.28961943 2.05383835 0 0 Z " fill="#F2F2F2" transform="translate(105,58)"/>
<path d="M0 0 C1.2065625 0.0309375 1.2065625 0.0309375 2.4375 0.0625 C2.1075 2.7025 1.7775 5.3425 1.4375 8.0625 C-0.22916667 8.0625 -1.89583333 8.0625 -3.5625 8.0625 C-3.60491723 5.72955225 -3.60342937 3.39547433 -3.5625 1.0625 C-2.5625 0.0625 -2.5625 0.0625 0 0 Z " fill="#181818" transform="translate(106.5625,111.9375)"/>
<path d="M0 0 C0.99 0.33 1.98 0.66 3 1 C2.67 3.31 2.34 5.62 2 8 C1.01 7.67 0.02 7.34 -1 7 C-1.33 5.02 -1.66 3.04 -2 1 C-1.34 0.67 -0.68 0.34 0 0 Z " fill="#191919" transform="translate(137,113)"/>
</svg>
