<?xml version="1.0" encoding="UTF-8"?>
<svg version="1.1" xmlns="http://www.w3.org/2000/svg" width="225" height="225">
<path d="M0 0 C74.25 0 148.5 0 225 0 C225 74.25 225 148.5 225 225 C150.75 225 76.5 225 0 225 C0 150.75 0 76.5 0 0 Z " fill="#FEFEFE" transform="translate(0,0)"/>
<path d="M0 0 C2.78125 1.87109375 2.78125 1.87109375 5.5 4.4375 C23.35336766 20.39970569 47.07761514 29.52558723 71.0246582 29.49731445 C74.53208613 29.55274737 76.80635342 29.8901706 79.87890625 31.6328125 C89.94271952 42.86425051 88.78073746 66.85362568 88.19091797 81.20263672 C86.05569796 112.48825167 70.54801559 141.67220507 47.59765625 162.609375 C34.54119707 173.97392137 19.39189536 181.72470771 3 187 C2.01 187.33 1.02 187.66 0 188 C-5.69145477 188.32846801 -10.11674052 187.68821892 -15.4375 185.5625 C-16.11925293 185.29590576 -16.80100586 185.02931152 -17.50341797 184.75463867 C-47.34190827 172.71377012 -72.05912643 150.81094502 -85 121 C-96.07675059 93.10258702 -97.97678286 66.01690279 -90.29296875 36.92578125 C-88.69557778 33.31114126 -87.43988435 31.95299667 -84 30 C-81.12797902 29.65152425 -78.5550445 29.49663218 -75.6875 29.5 C-66.66884801 29.23894822 -58.58988525 27.70520774 -50 25 C-49.00637451 24.68869141 -49.00637451 24.68869141 -47.99267578 24.37109375 C-33.36621116 19.6476331 -20.95640209 12.42005198 -9.78125 1.87109375 C-6.17921699 -0.55218408 -4.2650571 -0.67593539 0 0 Z " fill="#FDFDFD" transform="translate(116,19)"/>
<path d="M0 0 C2.78125 1.87109375 2.78125 1.87109375 5.5 4.4375 C23.35336766 20.39970569 47.07761514 29.52558723 71.0246582 29.49731445 C74.53208613 29.55274737 76.80635342 29.8901706 79.87890625 31.6328125 C89.94271952 42.86425051 88.78073746 66.85362568 88.19091797 81.20263672 C86.05569796 112.48825167 70.54801559 141.67220507 47.59765625 162.609375 C34.54119707 173.97392137 19.39189536 181.72470771 3 187 C2.01 187.33 1.02 187.66 0 188 C-5.69145477 188.32846801 -10.11674052 187.68821892 -15.4375 185.5625 C-16.11925293 185.29590576 -16.80100586 185.02931152 -17.50341797 184.75463867 C-47.34190827 172.71377012 -72.05912643 150.81094502 -85 121 C-96.07675059 93.10258702 -97.97678286 66.01690279 -90.29296875 36.92578125 C-88.69557778 33.31114126 -87.43988435 31.95299667 -84 30 C-81.12797902 29.65152425 -78.5550445 29.49663218 -75.6875 29.5 C-66.66884801 29.23894822 -58.58988525 27.70520774 -50 25 C-49.00637451 24.68869141 -49.00637451 24.68869141 -47.99267578 24.37109375 C-33.36621116 19.6476331 -20.95640209 12.42005198 -9.78125 1.87109375 C-6.17921699 -0.55218408 -4.2650571 -0.67593539 0 0 Z M-8.2512207 19.14941406 C-16.36635872 25.2004915 -24.73318226 29.94562831 -34 34 C-34.64211426 34.28359375 -35.28422852 34.5671875 -35.94580078 34.859375 C-49.07755073 40.4848986 -62.91939867 42.19100566 -77 44 C-85.89631285 70.01610816 -80.85532956 96.87770217 -69.52734375 121.15625 C-65.81866482 128.34633505 -61.00862489 134.67091946 -56 141 C-55.49726562 141.65871094 -54.99453125 142.31742187 -54.4765625 142.99609375 C-50.07700411 148.50189949 -44.550961 152.71062105 -39 157 C-38.22914062 157.60972656 -37.45828125 158.21945313 -36.6640625 158.84765625 C-28.18577865 165.1991351 -13.84772957 174.16015775 -2.9375 173.9375 C12.3601094 170.98532977 26.36240524 161.95098682 38 152 C38.5878125 151.5565625 39.175625 151.113125 39.78125 150.65625 C58.16025329 136.43853047 70.48555343 110.11758731 73.56640625 87.48046875 C75.13049763 73.1861449 74.42229933 58.97291124 71 45 C69.15024588 43.15024588 66.05435592 43.46964665 63.5625 43.1875 C38.42557058 40.00965204 17.06041311 31.64712223 -3 16 C-5.09621713 16 -6.63579681 17.9349244 -8.2512207 19.14941406 Z " fill="#10172A" transform="translate(116,19)"/>
<path d="M0 0 C3.4375 0.4375 3.4375 0.4375 5.375 1.5 C7.08863879 4.62487074 6.79363929 6.91172108 6.4375 10.4375 C5.03613859 13.29267621 3.17804513 15.72937416 1.25 18.25 C0.44393311 19.34598511 0.44393311 19.34598511 -0.37841797 20.46411133 C-1.51686968 22.01108179 -2.66189159 23.55323574 -3.81298828 25.09082031 C-6.09459643 28.15121908 -8.32288052 31.24836583 -10.55053711 34.34814453 C-12.17386537 36.60603556 -13.80496717 38.8581332 -15.4375 41.109375 C-17.47336256 43.92188142 -19.4945454 46.74385786 -21.5 49.578125 C-21.95552246 50.22112549 -22.41104492 50.86412598 -22.88037109 51.52661133 C-23.72431424 52.72001692 -24.56595592 53.91505493 -25.40478516 55.11206055 C-26.43600613 56.56922062 -27.49767419 58.00471315 -28.5625 59.4375 C-29.00335938 60.05753906 -29.44421875 60.67757812 -29.8984375 61.31640625 C-33.06022975 63.4465339 -34.83743396 63.162438 -38.5625 62.4375 C-42.14468634 59.73118214 -45.12944847 56.52545988 -48.1875 53.25 C-49.02023438 52.38568359 -49.85296875 51.52136719 -50.7109375 50.63085938 C-52.3109461 48.96843005 -53.90223365 47.29754957 -55.48339844 45.6171875 C-57.15198531 43.86787519 -58.85294379 42.20091964 -60.6171875 40.55078125 C-62.5625 38.4375 -62.5625 38.4375 -63.0625 34.8125 C-62.5625 31.4375 -62.5625 31.4375 -61.5 29.5 C-58.24190639 27.7133035 -56.24779319 27.90313249 -52.5625 28.4375 C-49.37624526 30.75269229 -46.7901987 33.55040461 -44.125 36.4375 C-43.39345703 37.200625 -42.66191406 37.96375 -41.90820312 38.75 C-40.1094763 40.63102151 -38.32909982 42.52635731 -36.5625 44.4375 C-27.80166896 33.59468323 -19.65522745 22.33341649 -11.92797852 10.73388672 C-5.14220339 0.63149866 -5.14220339 0.63149866 0 0 Z " fill="#0F1629" transform="translate(140.5625,84.5625)"/>
</svg>
